<svg xmlns="http://www.w3.org/2000/svg" width="64" height="64" viewBox="0 0 64 64" role="img" aria-labelledby="title">
  <title id="title">Bird Perched</title>
  <path fill="#87CEEB" d="M46 6h6v1H46zM45 7h8v1H45zM44 8h10v1H44zM43 9h13v1H43zM43 10h15v1H43zM42 11h13v1H42zM42 12h12v1H42zM41 13h12v1H41zM40 14h13v1H40zM39 15h14v1H39zM37 16h16v1H37zM36 17h17v1H36zM35 18h18v1H35zM34 19h19v1H34zM33 20h20v1H33zM32 21h21v1H32zM31 22h21v1H31zM30 23h22v1H30zM30 24h22v1H30zM29 25h22v1H29zM28 26h23v1H28zM27 27h23v1H27zM27 28h22v1H27zM26 29h22v1H26zM25 30h22v1H25zM24 31h22v1H24zM23 32h22v1H23zM24 33h19v1H24zM24 34h18v1H24zM22 35h10v1H22zM35 35h3v1H35zM40 35h1v1H40zM21 36h8v1H21zM36 36h1v1H36zM40 36h2v1H40zM20 37h6v1H20zM37 37h1v1H37zM41 37h2v1H41zM19 38h6v1H19zM37 38h2v1H37zM42 38h2v1H42zM18 39h6v1H18zM38 39h1v1H38zM43 39h2v1H43zM56 39h1v1H56zM17 40h6v1H17zM38 40h2v1H38zM44 40h2v1H44zM53 40h5v1H53zM16 41h6v1H16zM39 41h1v1H39zM45 41h13v1H45zM15 42h6v1H15zM39 42h2v1H39zM44 42h14v1H44zM14 43h7v1H14zM39 43h19v1H39zM13 44h7v1H13zM37 44h17v1H37zM16 45h3v1H16zM34 45h17v1H34zM30 46h16v1H30zM27 47h16v1H27zM19 48h2v1H19zM24 48h13v1H24zM16 49h19v1H16zM14 50h19v1H14zM11 51h19v1H11zM7 52h18v1H7zM6 53h16v1H6zM6 54h12v1H6zM6 55h9v1H6zM6 56h7v1H6zM7 57h3v1H7z"/>
</svg>
