<svg xmlns="http://www.w3.org/2000/svg" width="64" height="64" viewBox="0 0 64 64" role="img" aria-labelledby="title">
  <title id="title">Bird in Flight</title>
  <path fill="#87CEEB" d="M13 5h2v1H13zM13 6h2v1H13zM14 7h2v1H14zM9 8h2v1H9zM14 8h3v1H14zM9 9h3v1H9zM15 9h3v1H15zM10 10h3v1H10zM15 10h4v1H15zM11 11h3v1H11zM16 11h4v1H16zM8 12h1v1H8zM11 12h4v1H11zM17 12h4v1H17zM8 13h3v1H8zM12 13h10v1H12zM9 14h3v1H9zM13 14h10v1H13zM24 14h1v1H24zM9 15h16v1H9zM11 16h15v1H11zM9 17h2v1H9zM12 17h15v1H12zM9 18h19v1H9zM10 19h19v1H10zM11 20h19v1H11zM10 21h2v1H10zM13 21h19v1H13zM10 22h23v1H10zM12 23h22v1H12zM13 24h21v1H13zM12 25h22v1H12zM13 26h22v1H13zM14 27h21v1H14zM16 28h19v1H16zM46 28h5v1H46zM15 29h21v1H15zM45 29h7v1H45zM15 30h22v1H15zM44 30h5v1H44zM50 30h3v1H50zM16 31h22v1H16zM42 31h12v1H42zM16 32h39v1H16zM17 33h33v1H17zM17 34h32v1H17zM18 35h30v1H18zM19 36h28v1H19zM19 37h28v1H19zM21 38h25v1H21zM21 39h25v1H21zM23 40h22v1H23zM26 41h18v1H26zM25 42h19v1H25zM24 43h18v1H24zM23 44h18v1H23zM22 45h17v1H22zM21 46h16v1H21zM19 47h16v1H19zM17 48h16v1H17zM14 49h18v1H14zM11 50h21v1H11zM10 51h16v1H10zM29 51h1v1H29zM31 51h1v1H31zM13 52h12v1H13zM28 52h2v1H28zM31 52h1v1H31zM11 53h13v1H11zM29 53h1v1H29zM31 53h3v1H31zM10 54h13v1H10zM28 54h6v1H28zM10 55h1v1H10zM13 55h9v1H13zM27 55h3v1H27zM31 55h2v1H31zM12 56h9v1H12zM27 56h2v1H27zM11 57h3v1H11zM15 57h5v1H15zM14 58h5v1H14zM14 59h1v1H14z"/>
</svg>
