<svg xmlns="http://www.w3.org/2000/svg" width="64" height="64" viewBox="0 0 64 64" role="img" aria-labelledby="title">
  <title id="title">Camera Default</title>
  <path fill="#87CEEB d="M25 11h14v1H25zM24 12h16v1H24zM23 13h18v1H23zM22 14h20v1H22zM21 15h4v1H21zM39 15h4v1H39zM21 16h4v1H21zM39 16h4v1H39zM20 17h4v1H20zM40 17h3v1H40zM10 18h13v1H10zM40 18h14v1H40zM9 19h14v1H9zM41 19h14v1H41zM8 20h14v1H8zM42 20h14v1H42zM7 21h5v1H7zM52 21h5v1H52zM7 22h3v1H7zM53 22h4v1H53zM6 23h4v1H6zM27 23h9v1H27zM54 23h3v1H54zM6 24h4v1H6zM25 24h13v1H25zM47 24h3v1H47zM54 24h4v1H54zM6 25h4v1H6zM24 25h16v1H24zM46 25h5v1H46zM54 25h4v1H54zM6 26h4v1H6zM23 26h6v1H23zM35 26h6v1H35zM46 26h5v1H46zM54 26h4v1H54zM6 27h4v1H6zM22 27h5v1H22zM37 27h5v1H37zM46 27h5v1H46zM54 27h4v1H54zM6 28h4v1H6zM21 28h4v1H21zM39 28h4v1H39zM54 28h4v1H54zM6 29h4v1H6zM21 29h4v1H21zM39 29h4v1H39zM54 29h3v1H54zM6 30h4v1H6zM21 30h3v1H21zM40 30h3v1H40zM54 30h3v1H54zM6 31h4v1H6zM20 31h3v1H20zM40 31h4v1H40zM54 31h3v1H54zM6 32h4v1H6zM20 32h3v1H20zM41 32h3v1H41zM54 32h3v1H54zM6 33h4v1H6zM20 33h3v1H20zM41 33h3v1H41zM54 33h3v1H54zM6 34h4v1H6zM19 34h4v1H19zM41 34h3v1H41zM54 34h3v1H54zM6 35h4v1H6zM20 35h3v1H20zM41 35h3v1H41zM54 35h3v1H54zM6 36h4v1H6zM20 36h3v1H20zM41 36h3v1H41zM54 36h3v1H54zM6 37h4v1H6zM20 37h3v1H20zM41 37h3v1H41zM54 37h3v1H54zM6 38h4v1H6zM20 38h4v1H20zM40 38h3v1H40zM54 38h3v1H54zM6 39h4v1H6zM21 39h3v1H21zM40 39h3v1H40zM54 39h3v1H54zM6 40h4v1H6zM21 40h4v1H21zM39 40h4v1H39zM54 40h3v1H54zM6 41h4v1H6zM22 41h4v1H22zM38 41h4v1H38zM54 41h3v1H54zM6 42h4v1H6zM23 42h5v1H23zM36 42h5v1H36zM54 42h3v1H54zM6 43h4v1H6zM24 43h6v1H24zM34 43h6v1H34zM54 43h3v1H54zM6 44h4v1H6zM25 44h14v1H25zM54 44h3v1H54zM6 45h4v1H6zM26 45h12v1H26zM54 45h3v1H54zM6 46h4v1H6zM29 46h5v1H29zM54 46h3v1H54zM6 47h4v1H6zM54 47h3v1H54zM7 48h4v1H7zM53 48h4v1H53zM7 49h49v1H7zM8 50h48v1H8zM10 51h44v1H10zM13 52h3v1H13zM18 52h1v1H18zM34 52h1v1H34zM37 52h1v1H37z"/>
</svg>
