<svg xmlns="http://www.w3.org/2000/svg" width="64" height="64" viewBox="0 0 64 64" role="img" aria-labelledby="title">
  <title id="title">Landscape</title>
  <path fill="#87CEEB" d="M33 18h1v1H33zM32 19h3v1H32zM31 20h5v1H31zM30 21h2v1H30zM33 21h3v1H33zM30 22h1v1H30zM33 22h4v1H33zM29 23h2v1H29zM33 23h7v1H33zM28 24h2v1H28zM33 24h7v1H33zM27 25h2v1H27zM33 25h5v1H33zM40 25h1v1H40zM26 26h2v1H26zM32 26h7v1H32zM40 26h2v1H40zM26 27h1v1H26zM32 27h10v1H32zM17 28h2v1H17zM25 28h2v1H25zM32 28h1v1H32zM34 28h11v1H34zM17 29h3v1H17zM24 29h2v1H24zM34 29h11v1H34zM16 30h1v1H16zM18 30h3v1H18zM23 30h2v1H23zM35 30h11v1H35zM15 31h2v1H15zM18 31h4v1H18zM23 31h1v1H23zM35 31h9v1H35zM45 31h2v1H45zM50 31h2v1H50zM14 32h2v1H14zM18 32h6v1H18zM36 32h8v1H36zM46 32h4v1H46zM51 32h1v1H51zM13 33h2v1H13zM18 33h5v1H18zM33 33h11v1H33zM46 33h3v1H46zM51 33h2v1H51zM13 34h1v1H13zM18 34h6v1H18zM33 34h16v1H33zM52 34h2v1H52zM12 35h2v1H12zM17 35h5v1H17zM24 35h1v1H24zM32 35h8v1H32zM42 35h8v1H42zM52 35h3v1H52zM11 36h2v1H11zM17 36h6v1H17zM24 36h2v1H24zM32 36h8v1H32zM42 36h4v1H42zM47 36h4v1H47zM52 36h4v1H52zM10 37h2v1H10zM17 37h7v1H17zM25 37h1v1H25zM31 37h9v1H31zM42 37h4v1H42zM47 37h5v1H47zM53 37h3v1H53zM9 38h2v1H9zM18 38h9v1H18zM30 38h5v1H30zM36 38h4v1H36zM42 38h4v1H42zM48 38h2v1H48zM51 38h1v1H51zM53 38h4v1H53zM9 39h1v1H9zM18 39h10v1H18zM29 39h5v1H29zM36 39h3v1H36zM43 39h2v1H43zM48 39h1v1H48zM51 39h3v1H51zM55 39h3v1H55zM8 40h4v1H8zM18 40h16v1H18zM36 40h3v1H36zM43 40h2v1H43zM48 40h1v1H48zM51 40h3v1H51zM55 40h3v1H55zM8 41h3v1H8zM18 41h16v1H18zM38 41h1v1H38zM44 41h1v1H44zM52 41h1v1H52zM55 41h4v1H55zM6 42h1v1H6zM8 42h3v1H8zM19 42h14v1H19zM59 42h1v1H59zM5 43h2v1H5zM9 43h2v1H9zM18 43h9v1H18zM28 43h2v1H28zM32 43h1v1H32zM5 44h1v1H5zM9 44h2v1H9zM19 44h7v1H19zM4 45h1v1H4zM9 45h1v1H9zM19 45h5v1H19z"/>
</svg>
