<svg xmlns="http://www.w3.org/2000/svg" width="64" height="64" viewBox="0 0 64 64" role="img" aria-labelledby="title">
  <title id="title">People</title>
  <path fill="#87CEEB" d="M15 10h7v1H15zM43 10h6v1H43zM14 11h9v1H14zM41 11h9v1H41zM13 12h11v1H13zM40 12h11v1H40zM12 13h13v1H12zM39 13h13v1H39zM12 14h13v1H12zM39 14h14v1H39zM11 15h15v1H11zM38 15h15v1H38zM11 16h15v1H11zM38 16h15v1H38zM11 17h15v1H11zM38 17h15v1H38zM11 18h15v1H11zM38 18h15v1H38zM11 19h15v1H11zM39 19h14v1H39zM12 20h13v1H12zM39 20h13v1H39zM12 21h13v1H12zM40 21h12v1H40zM13 22h11v1H13zM40 22h11v1H40zM14 23h9v1H14zM30 23h4v1H30zM41 23h9v1H41zM16 24h5v1H16zM28 24h8v1H28zM43 24h5v1H43zM27 25h10v1H27zM14 26h9v1H14zM26 26h12v1H26zM41 26h9v1H41zM10 27h15v1H10zM26 27h12v1H26zM40 27h14v1H40zM9 28h15v1H9zM26 28h13v1H26zM40 28h15v1H40zM8 29h16v1H8zM26 29h13v1H26zM40 29h16v1H40zM7 30h17v1H7zM26 30h13v1H26zM40 30h17v1H40zM7 31h18v1H7zM26 31h12v1H26zM40 31h17v1H40zM6 32h19v1H6zM27 32h11v1H27zM40 32h18v1H40zM6 33h19v1H6zM27 33h10v1H27zM39 33h19v1H39zM6 34h20v1H6zM28 34h8v1H28zM38 34h20v1H38zM6 35h20v1H6zM30 35h4v1H30zM38 35h20v1H38zM6 36h18v1H6zM40 36h18v1H40zM6 37h17v1H6zM26 37h12v1H26zM41 37h17v1H41zM6 38h5v1H6zM12 38h10v1H12zM24 38h16v1H24zM42 38h11v1H42zM54 38h4v1H54zM6 39h5v1H6zM12 39h9v1H12zM23 39h18v1H23zM43 39h10v1H43zM54 39h4v1H54zM6 40h5v1H6zM12 40h9v1H12zM22 40h20v1H22zM44 40h9v1H44zM54 40h4v1H54zM6 41h5v1H6zM12 41h8v1H12zM22 41h20v1H22zM44 41h9v1H44zM54 41h4v1H54zM6 42h5v1H6zM12 42h8v1H12zM21 42h22v1H21zM44 42h9v1H44zM54 42h4v1H54zM6 43h5v1H6zM12 43h8v1H12zM21 43h22v1H21zM45 43h8v1H45zM54 43h4v1H54zM6 44h5v1H6zM12 44h8v1H12zM21 44h22v1H21zM45 44h8v1H45zM54 44h4v1H54zM6 45h5v1H6zM12 45h8v1H12zM21 45h22v1H21zM45 45h8v1H45zM54 45h4v1H54zM6 46h4v1H6zM12 46h8v1H12zM21 46h22v1H21zM45 46h8v1H45zM54 46h4v1H54zM12 47h8v1H12zM21 47h4v1H21zM26 47h12v1H26zM39 47h4v1H39zM45 47h8v1H45zM12 48h8v1H12zM21 48h4v1H21zM26 48h12v1H26zM40 48h3v1H40zM45 48h8v1H45zM12 49h7v1H12zM21 49h4v1H21zM26 49h12v1H26zM40 49h3v1H40zM45 49h8v1H45zM12 50h6v1H12zM21 50h4v1H21zM26 50h12v1H26zM40 50h3v1H40zM46 50h6v1H46zM21 51h4v1H21zM26 51h12v1H26zM40 51h3v1H40zM21 52h4v1H21zM26 52h12v1H26zM40 52h3v1H40zM21 53h4v1H21zM26 53h12v1H26zM40 53h3v1H40z"/>
</svg>
