<svg xmlns="http://www.w3.org/2000/svg" width="64" height="64" viewBox="0 0 64 64" role="img" aria-labelledby="title">
  <title id="title">Wildlife</title>
  <path fill="#87CEEB" d="M34 6h1v1H34zM30 7h1v1H30zM34 7h1v1H34zM47 7h1v1H47zM50 7h2v1H50zM30 8h1v1H30zM33 8h2v1H33zM47 8h2v1H47zM50 8h2v1H50zM30 9h1v1H30zM33 9h1v1H33zM47 9h2v1H47zM50 9h2v1H50zM30 10h4v1H30zM48 10h1v1H48zM50 10h2v1H50zM30 11h4v1H30zM48 11h5v1H48zM31 12h3v1H31zM48 12h4v1H48zM32 13h2v1H32zM37 13h2v1H37zM43 13h2v1H43zM48 13h2v1H48zM33 14h3v1H33zM37 14h2v1H37zM43 14h2v1H43zM47 14h2v1H47zM34 15h4v1H34zM44 15h4v1H44zM32 16h2v1H32zM36 16h3v1H36zM43 16h3v1H43zM49 16h2v1H49zM32 17h19v1H32zM32 18h18v1H32zM33 19h16v1H33zM37 20h8v1H37zM37 21h8v1H37zM37 22h8v1H37zM37 23h8v1H37zM36 24h9v1H36zM36 25h9v1H36zM35 26h10v1H35zM35 27h9v1H35zM33 28h11v1H33zM18 29h6v1H18zM29 29h15v1H29zM15 30h29v1H15zM14 31h30v1H14zM13 32h31v1H13zM13 33h31v1H13zM12 34h31v1H12zM12 35h31v1H12zM12 36h31v1H12zM12 37h30v1H12zM11 38h31v1H11zM11 39h2v1H11zM14 39h27v1H14zM11 40h2v1H11zM14 40h27v1H14zM14 41h26v1H14zM14 42h26v1H14zM14 43h9v1H14zM31 43h4v1H31zM36 43h4v1H36zM14 44h8v1H14zM31 44h4v1H31zM36 44h4v1H36zM13 45h4v1H13zM18 45h4v1H18zM31 45h4v1H31zM36 45h4v1H36zM12 46h4v1H12zM18 46h3v1H18zM32 46h3v1H32zM36 46h4v1H36zM12 47h3v1H12zM18 47h3v1H18zM32 47h3v1H32zM36 47h3v1H36zM12 48h3v1H12zM17 48h3v1H17zM32 48h3v1H32zM36 48h3v1H36zM12 49h2v1H12zM17 49h3v1H17zM32 49h2v1H32zM37 49h2v1H37zM12 50h2v1H12zM17 50h3v1H17zM32 50h2v1H32zM37 50h2v1H37zM12 51h2v1H12zM18 51h2v1H18zM32 51h2v1H32zM37 51h2v1H37zM12 52h2v1H12zM18 52h2v1H18zM32 52h2v1H32zM37 52h2v1H37zM12 53h1v1H12zM18 53h3v1H18zM32 53h2v1H32zM37 53h2v1H37zM12 54h1v1H12zM19 54h2v1H19zM32 54h2v1H32zM37 54h2v1H37zM11 55h3v1H11zM19 55h2v1H19zM32 55h2v1H32zM37 55h2v1H37zM11 56h3v1H11zM19 56h3v1H19zM32 56h2v1H32zM37 56h3v1H37zM11 57h3v1H11zM20 57h2v1H20zM32 57h3v1H32zM38 57h3v1H38z"/>
</svg>
