<svg xmlns="http://www.w3.org/2000/svg" width="64" height="64" viewBox="0 0 64 64">
  <path fill="#000" d="M8 20h10v1h-10zM22 20h10v1h-10zM47 20h7v1h-7zM8 21h11v1h-11zM21 21h11v1h-11zM46 21h9v1h-9zM8 22h11v1h-11zM21 22h11v1h-11zM45 22h10v1h-10zM8 23h10v1h-10zM21 23h10v1h-10zM45 23h10v1h-10zM8 24h4v1h-4zM21 24h4v1h-4zM44 24h4v1h-4zM8 25h4v1h-4zM21 25h4v1h-4zM44 25h3v1h-3zM8 26h4v1h-4zM21 26h4v1h-4zM43 26h5v1h-5zM8 27h4v1h-4zM21 27h4v1h-4zM43 27h4v1h-4zM8 28h3v1h-3zM21 28h8v1h-8zM43 28h4v1h-4zM48 28h5v1h-5zM8 29h10v1h-10zM21 29h9v1h-9zM43 29h12v1h-12zM8 30h10v1h-10zM21 30h10v1h-10zM43 30h12v1h-12zM8 31h10v1h-10zM21 31h3v1h-3zM27 31h5v1h-5zM43 31h5v1h-5zM51 31h5v1h-5zM8 32h10v1h-10zM28 32h5v1h-5zM43 32h4v1h-4zM52 32h3v1h-3zM8 33h3v1h-3zM29 33h4v1h-4zM43 33h4v1h-4zM52 33h4v1h-4zM8 34h4v1h-4zM29 34h4v1h-4zM43 34h4v1h-4zM52 34h4v1h-4zM8 35h4v1h-4zM29 35h4v1h-4zM43 35h4v1h-4zM52 35h4v1h-4zM8 36h4v1h-4zM29 36h4v1h-4zM43 36h4v1h-4zM52 36h3v1h-3zM8 37h4v1h-4zM29 37h4v1h-4zM43 37h4v1h-4zM52 37h4v1h-4zM8 38h4v1h-4zM28 38h5v1h-5zM37 38h2v1h-2zM44 38h4v1h-4zM51 38h5v1h-5zM8 39h4v1h-4zM21 39h11v1h-11zM36 39h4v1h-4zM44 39h11v1h-11zM8 40h4v1h-4zM21 40h10v1h-10zM36 40h4v1h-4zM45 40h10v1h-10zM8 41h4v1h-4zM21 41h9v1h-9zM36 41h4v1h-4zM46 41h8v1h-8zM8 42h3v1h-3zM22 42h7v1h-7zM36 42h3v1h-3zM47 42h5v1h-5z"/>
</svg>
