<svg xmlns="http://www.w3.org/2000/svg" width="64" height="64" viewBox="0 0 64 64">
  <path fill="#000" d="M8 13h48v1h-48zM8 14h2v1h-2zM54 14h2v1h-2zM8 15h1v1h-1zM55 15h1v1h-1zM8 16h1v1h-1zM55 16h1v1h-1zM8 17h1v1h-1zM55 17h1v1h-1zM8 18h1v1h-1zM55 18h1v1h-1zM8 19h1v1h-1zM55 19h1v1h-1zM8 20h1v1h-1zM55 20h1v1h-1zM8 21h1v1h-1zM31 21h3v1h-3zM55 21h1v1h-1zM8 22h1v1h-1zM31 22h3v1h-3zM55 22h1v1h-1zM8 23h1v1h-1zM31 23h3v1h-3zM55 23h1v1h-1zM8 24h1v1h-1zM31 24h3v1h-3zM55 24h1v1h-1zM8 25h1v1h-1zM31 25h3v1h-3zM37 25h4v1h-4zM55 25h1v1h-1zM8 26h1v1h-1zM30 26h4v1h-4zM37 26h4v1h-4zM55 26h1v1h-1zM8 27h1v1h-1zM27 27h7v1h-7zM37 27h4v1h-4zM55 27h1v1h-1zM8 28h1v1h-1zM27 28h7v1h-7zM37 28h4v1h-4zM55 28h1v1h-1zM8 29h1v1h-1zM27 29h7v1h-7zM37 29h5v1h-5zM55 29h1v1h-1zM8 30h1v1h-1zM21 30h3v1h-3zM27 30h7v1h-7zM37 30h5v1h-5zM55 30h1v1h-1zM8 31h1v1h-1zM21 31h3v1h-3zM27 31h7v1h-7zM37 31h5v1h-5zM55 31h1v1h-1zM8 32h1v1h-1zM21 32h3v1h-3zM27 32h7v1h-7zM37 32h7v1h-7zM55 32h1v1h-1zM8 33h1v1h-1zM21 33h4v1h-4zM26 33h8v1h-8zM37 33h8v1h-8zM55 33h1v1h-1zM8 34h1v1h-1zM21 34h13v1h-13zM37 34h8v1h-8zM55 34h1v1h-1zM8 35h1v1h-1zM21 35h13v1h-13zM37 35h8v1h-8zM55 35h1v1h-1zM8 36h1v1h-1zM21 36h24v1h-24zM55 36h1v1h-1zM8 37h1v1h-1zM20 37h25v1h-25zM55 37h1v1h-1zM8 38h1v1h-1zM18 38h31v1h-31zM55 38h1v1h-1zM8 39h1v1h-1zM18 39h31v1h-31zM55 39h1v1h-1zM8 40h1v1h-1zM18 40h32v1h-32zM55 40h1v1h-1zM8 41h1v1h-1zM14 41h36v1h-36zM55 41h1v1h-1zM8 42h1v1h-1zM14 42h42v1h-42zM8 43h1v1h-1zM10 43h46v1h-46zM8 44h48v1h-48zM8 45h48v1h-48zM8 46h48v1h-48zM8 47h48v1h-48zM8 48h48v1h-48zM8 49h47v1h-47z"/>
</svg>
