<svg xmlns="http://www.w3.org/2000/svg" width="64" height="64" viewBox="0 0 64 64">
  <path fill="#000" d="M9 18h46v1h-46zM8 19h48v1h-48zM8 20h48v1h-48zM8 21h48v1h-48zM8 22h48v1h-48zM8 23h4v1h-4zM17 23h11v1h-11zM31 23h5v1h-5zM37 23h6v1h-6zM44 23h7v1h-7zM53 23h3v1h-3zM8 24h4v1h-4zM20 24h7v1h-7zM31 24h4v1h-4zM38 24h5v1h-5zM46 24h4v1h-4zM52 24h4v1h-4zM8 25h4v1h-4zM21 25h7v1h-7zM32 25h4v1h-4zM38 25h5v1h-5zM46 25h4v1h-4zM52 25h4v1h-4zM8 26h4v1h-4zM15 26h3v1h-3zM21 26h6v1h-6zM32 26h4v1h-4zM38 26h4v1h-4zM46 26h4v1h-4zM53 26h3v1h-3zM8 27h4v1h-4zM15 27h4v1h-4zM21 27h6v1h-6zM29 27h1v1h-1zM32 27h4v1h-4zM39 27h3v1h-3zM46 27h4v1h-4zM52 27h4v1h-4zM8 28h4v1h-4zM15 28h4v1h-4zM21 28h6v1h-6zM28 28h2v1h-2zM33 28h3v1h-3zM39 28h3v1h-3zM47 28h3v1h-3zM52 28h4v1h-4zM8 29h4v1h-4zM15 29h4v1h-4zM21 29h5v1h-5zM28 29h2v1h-2zM32 29h4v1h-4zM39 29h3v1h-3zM44 29h1v1h-1zM47 29h2v1h-2zM52 29h4v1h-4zM8 30h4v1h-4zM15 30h3v1h-3zM21 30h5v1h-5zM29 30h2v1h-2zM32 30h5v1h-5zM39 30h3v1h-3zM44 30h1v1h-1zM47 30h2v1h-2zM52 30h4v1h-4zM8 31h4v1h-4zM20 31h6v1h-6zM28 31h3v1h-3zM33 31h4v1h-4zM39 31h2v1h-2zM43 31h2v1h-2zM47 31h2v1h-2zM51 31h5v1h-5zM8 32h4v1h-4zM19 32h7v1h-7zM28 32h3v1h-3zM33 32h4v1h-4zM40 32h1v1h-1zM43 32h2v1h-2zM47 32h2v1h-2zM51 32h5v1h-5zM8 33h4v1h-4zM19 33h6v1h-6zM28 33h4v1h-4zM33 33h4v1h-4zM40 33h1v1h-1zM43 33h2v1h-2zM48 33h1v1h-1zM51 33h5v1h-5zM8 34h4v1h-4zM15 34h2v1h-2zM20 34h5v1h-5zM34 34h3v1h-3zM40 34h1v1h-1zM43 34h2v1h-2zM48 34h1v1h-1zM51 34h5v1h-5zM8 35h4v1h-4zM15 35h3v1h-3zM20 35h5v1h-5zM34 35h4v1h-4zM40 35h1v1h-1zM43 35h3v1h-3zM48 35h1v1h-1zM51 35h5v1h-5zM8 36h4v1h-4zM15 36h3v1h-3zM21 36h3v1h-3zM34 36h4v1h-4zM42 36h4v1h-4zM50 36h6v1h-6zM8 37h4v1h-4zM15 37h3v1h-3zM20 37h4v1h-4zM27 37h5v1h-5zM35 37h3v1h-3zM42 37h4v1h-4zM50 37h6v1h-6zM8 38h4v1h-4zM15 38h4v1h-4zM21 38h3v1h-3zM26 38h6v1h-6zM35 38h3v1h-3zM42 38h4v1h-4zM50 38h6v1h-6zM8 39h4v1h-4zM15 39h4v1h-4zM21 39h2v1h-2zM26 39h6v1h-6zM35 39h4v1h-4zM42 39h4v1h-4zM50 39h6v1h-6zM8 40h4v1h-4zM15 40h4v1h-4zM22 40h2v1h-2zM26 40h7v1h-7zM36 40h3v1h-3zM42 40h5v1h-5zM49 40h7v1h-7zM8 41h48v1h-48zM8 42h48v1h-48zM8 43h48v1h-48zM8 44h48v1h-48zM8 45h48v1h-48z"/>
</svg>
