<svg xmlns="http://www.w3.org/2000/svg" width="64" height="64" viewBox="0 0 64 64">
  <path fill="#000" d="M17 8h2v1h-2zM26 8h3v1h-3zM38 8h3v1h-3zM16 9h3v1h-3zM23 9h7v1h-7zM36 9h7v1h-7zM16 10h3v1h-3zM22 10h8v1h-8zM35 10h9v1h-9zM16 11h3v1h-3zM23 11h3v1h-3zM29 11h1v1h-1zM34 11h4v1h-4zM41 11h4v1h-4zM16 12h3v1h-3zM22 12h3v1h-3zM33 12h4v1h-4zM42 12h3v1h-3zM16 13h3v1h-3zM22 13h4v1h-4zM33 13h4v1h-4zM42 13h3v1h-3zM16 14h3v1h-3zM23 14h4v1h-4zM33 14h4v1h-4zM43 14h3v1h-3zM16 15h3v1h-3zM23 15h4v1h-4zM34 15h2v1h-2zM43 15h3v1h-3zM16 16h3v1h-3zM24 16h5v1h-5zM34 16h2v1h-2zM43 16h3v1h-3zM16 17h3v1h-3zM25 17h5v1h-5zM34 17h2v1h-2zM43 17h3v1h-3zM16 18h3v1h-3zM27 18h4v1h-4zM34 18h2v1h-2zM43 18h3v1h-3zM16 19h3v1h-3zM28 19h3v1h-3zM34 19h2v1h-2zM43 19h3v1h-3zM17 20h2v1h-2zM28 20h3v1h-3zM33 20h4v1h-4zM43 20h2v1h-2zM17 21h2v1h-2zM28 21h3v1h-3zM33 21h4v1h-4zM42 21h3v1h-3zM16 22h3v1h-3zM23 22h1v1h-1zM28 22h3v1h-3zM34 22h4v1h-4zM41 22h4v1h-4zM16 23h3v1h-3zM22 23h9v1h-9zM35 23h9v1h-9zM16 24h3v1h-3zM22 24h8v1h-8zM36 24h7v1h-7zM16 25h3v1h-3zM23 25h6v1h-6zM36 25h6v1h-6zM16 32h4v1h-4zM30 32h4v1h-4zM45 32h6v1h-6zM15 33h5v1h-5zM28 33h8v1h-8zM44 33h8v1h-8zM15 34h5v1h-5zM27 34h10v1h-10zM43 34h10v1h-10zM14 35h6v1h-6zM26 35h5v1h-5zM33 35h4v1h-4zM42 35h5v1h-5zM49 35h4v1h-4zM13 36h7v1h-7zM25 36h5v1h-5zM34 36h4v1h-4zM42 36h4v1h-4zM50 36h4v1h-4zM12 37h8v1h-8zM25 37h4v1h-4zM34 37h4v1h-4zM42 37h4v1h-4zM50 37h4v1h-4zM12 38h4v1h-4zM17 38h3v1h-3zM25 38h4v1h-4zM34 38h4v1h-4zM42 38h3v1h-3zM50 38h4v1h-4zM11 39h9v1h-9zM25 39h4v1h-4zM34 39h5v1h-5zM42 39h3v1h-3zM51 39h3v1h-3zM11 40h4v1h-4zM16 40h4v1h-4zM25 40h4v1h-4zM34 40h5v1h-5zM41 40h4v1h-4zM51 40h4v1h-4zM10 41h5v1h-5zM16 41h4v1h-4zM24 41h5v1h-5zM34 41h5v1h-5zM41 41h4v1h-4zM51 41h4v1h-4zM10 42h4v1h-4zM16 42h4v1h-4zM24 42h5v1h-5zM34 42h5v1h-5zM41 42h4v1h-4zM51 42h4v1h-4zM10 43h4v1h-4zM16 43h4v1h-4zM24 43h5v1h-5zM34 43h5v1h-5zM41 43h4v1h-4zM51 43h4v1h-4zM9 44h4v1h-4zM16 44h4v1h-4zM24 44h5v1h-5zM34 44h5v1h-5zM41 44h4v1h-4zM51 44h4v1h-4zM9 45h4v1h-4zM16 45h4v1h-4zM24 45h5v1h-5zM34 45h5v1h-5zM41 45h4v1h-4zM51 45h4v1h-4zM8 46h4v1h-4zM17 46h3v1h-3zM24 46h5v1h-5zM34 46h5v1h-5zM41 46h4v1h-4zM51 46h4v1h-4zM8 47h15v1h-15zM25 47h4v1h-4zM34 47h5v1h-5zM41 47h4v1h-4zM51 47h4v1h-4zM8 48h15v1h-15zM25 48h4v1h-4zM34 48h5v1h-5zM42 48h3v1h-3zM51 48h3v1h-3zM8 49h15v1h-15zM25 49h4v1h-4zM34 49h4v1h-4zM42 49h4v1h-4zM50 49h4v1h-4zM8 50h15v1h-15zM25 50h4v1h-4zM34 50h4v1h-4zM42 50h4v1h-4zM50 50h4v1h-4zM17 51h3v1h-3zM25 51h5v1h-5zM34 51h4v1h-4zM42 51h4v1h-4zM49 51h5v1h-5zM16 52h4v1h-4zM26 52h11v1h-11zM43 52h10v1h-10zM16 53h4v1h-4zM27 53h9v1h-9zM43 53h10v1h-10zM16 54h4v1h-4zM28 54h7v1h-7zM44 54h8v1h-8zM30 55h4v1h-4zM46 55h4v1h-4z"/>
</svg>
