<svg xmlns="http://www.w3.org/2000/svg" width="64" height="64" viewBox="0 0 64 64">
  <path fill="#000" d="M9 11h10v1h-10zM28 11h10v1h-10zM45 11h11v1h-11zM8 12h11v1h-11zM26 12h12v1h-12zM45 12h11v1h-11zM8 13h11v1h-11zM26 13h12v1h-12zM45 13h11v1h-11zM8 14h3v1h-3zM17 14h2v1h-2zM26 14h3v1h-3zM35 14h3v1h-3zM45 14h3v1h-3zM53 14h3v1h-3zM8 15h3v1h-3zM17 15h2v1h-2zM26 15h3v1h-3zM35 15h3v1h-3zM45 15h3v1h-3zM53 15h3v1h-3zM8 16h3v1h-3zM17 16h2v1h-2zM26 16h3v1h-3zM35 16h3v1h-3zM45 16h3v1h-3zM53 16h3v1h-3zM8 17h3v1h-3zM17 17h2v1h-2zM26 17h3v1h-3zM35 17h3v1h-3zM45 17h3v1h-3zM53 17h3v1h-3zM8 18h3v1h-3zM17 18h2v1h-2zM26 18h3v1h-3zM35 18h3v1h-3zM45 18h3v1h-3zM53 18h3v1h-3zM8 19h11v1h-11zM26 19h12v1h-12zM45 19h11v1h-11zM8 20h11v1h-11zM27 20h11v1h-11zM45 20h11v1h-11zM9 21h10v1h-10zM28 21h9v1h-9zM45 21h11v1h-11zM8 26h11v1h-11zM26 26h12v1h-12zM45 26h11v1h-11zM8 27h11v1h-11zM26 27h12v1h-12zM45 27h11v1h-11zM8 28h2v1h-2zM12 28h3v1h-3zM16 28h3v1h-3zM26 28h12v1h-12zM45 28h3v1h-3zM49 28h2v1h-2zM53 28h3v1h-3zM8 29h3v1h-3zM17 29h2v1h-2zM26 29h3v1h-3zM35 29h3v1h-3zM45 29h3v1h-3zM53 29h3v1h-3zM8 30h3v1h-3zM17 30h2v1h-2zM26 30h3v1h-3zM35 30h3v1h-3zM45 30h3v1h-3zM53 30h3v1h-3zM8 31h3v1h-3zM17 31h2v1h-2zM26 31h3v1h-3zM35 31h3v1h-3zM45 31h3v1h-3zM53 31h3v1h-3zM8 32h3v1h-3zM17 32h2v1h-2zM26 32h3v1h-3zM35 32h3v1h-3zM45 32h3v1h-3zM53 32h3v1h-3zM8 33h3v1h-3zM16 33h3v1h-3zM26 33h3v1h-3zM35 33h3v1h-3zM45 33h3v1h-3zM53 33h3v1h-3zM8 34h11v1h-11zM26 34h12v1h-12zM45 34h11v1h-11zM8 35h11v1h-11zM26 35h12v1h-12zM45 35h11v1h-11zM9 36h9v1h-9zM28 36h8v1h-8zM45 36h11v1h-11zM8 41h11v1h-11zM28 41h9v1h-9zM45 41h11v1h-11zM8 42h11v1h-11zM27 42h11v1h-11zM45 42h11v1h-11zM8 43h3v1h-3zM16 43h3v1h-3zM26 43h12v1h-12zM45 43h3v1h-3zM53 43h3v1h-3zM8 44h3v1h-3zM17 44h2v1h-2zM26 44h3v1h-3zM35 44h3v1h-3zM45 44h3v1h-3zM53 44h3v1h-3zM8 45h3v1h-3zM17 45h2v1h-2zM26 45h3v1h-3zM35 45h3v1h-3zM45 45h3v1h-3zM53 45h3v1h-3zM8 46h3v1h-3zM17 46h2v1h-2zM26 46h3v1h-3zM35 46h3v1h-3zM45 46h3v1h-3zM53 46h3v1h-3zM8 47h3v1h-3zM17 47h2v1h-2zM26 47h3v1h-3zM35 47h3v1h-3zM45 47h3v1h-3zM53 47h3v1h-3zM8 48h3v1h-3zM16 48h3v1h-3zM26 48h3v1h-3zM35 48h3v1h-3zM45 48h3v1h-3zM53 48h3v1h-3zM8 49h11v1h-11zM26 49h12v1h-12zM45 49h11v1h-11zM8 50h11v1h-11zM26 50h12v1h-12zM45 50h11v1h-11zM46 51h4v1h-4zM52 51h3v1h-3z"/>
</svg>
