<svg xmlns="http://www.w3.org/2000/svg" width="64" height="64" viewBox="0 0 64 64">
  <path fill="#000" d="M9 11h11v1h-11zM44 11h11v1h-11zM8 12h12v1h-12zM44 12h11v1h-11zM8 13h11v1h-11zM45 13h10v1h-10zM8 14h3v1h-3zM51 14h4v1h-4zM8 15h3v1h-3zM52 15h3v1h-3zM8 16h3v1h-3zM52 16h3v1h-3zM8 17h3v1h-3zM52 17h3v1h-3zM8 18h3v1h-3zM52 18h3v1h-3zM8 19h3v1h-3zM52 19h3v1h-3zM8 20h3v1h-3zM52 20h3v1h-3zM8 21h3v1h-3zM23 21h2v1h-2zM39 21h2v1h-2zM52 21h3v1h-3zM8 22h3v1h-3zM21 22h5v1h-5zM38 22h5v1h-5zM52 22h3v1h-3zM8 23h2v1h-2zM21 23h6v1h-6zM37 23h6v1h-6zM52 23h3v1h-3zM21 24h22v1h-22zM21 25h22v1h-22zM21 26h20v1h-20zM21 27h20v1h-20zM21 28h20v1h-20zM22 29h19v1h-19zM23 30h18v1h-18zM22 31h19v1h-19zM21 32h20v1h-20zM21 33h6v1h-6zM28 33h7v1h-7zM38 33h3v1h-3zM21 34h6v1h-6zM28 34h7v1h-7zM37 34h4v1h-4zM21 35h6v1h-6zM28 35h7v1h-7zM36 35h5v1h-5zM21 36h20v1h-20zM21 37h20v1h-20zM21 38h9v1h-9zM34 38h8v1h-8zM8 39h2v1h-2zM22 39h19v1h-19zM52 39h3v1h-3zM8 40h3v1h-3zM23 40h17v1h-17zM52 40h4v1h-4zM8 41h3v1h-3zM24 41h16v1h-16zM52 41h4v1h-4zM8 42h3v1h-3zM25 42h14v1h-14zM52 42h3v1h-3zM8 43h3v1h-3zM26 43h12v1h-12zM52 43h3v1h-3zM8 44h3v1h-3zM52 44h3v1h-3zM8 45h3v1h-3zM52 45h3v1h-3zM8 46h3v1h-3zM52 46h3v1h-3zM8 47h4v1h-4zM52 47h3v1h-3zM8 48h4v1h-4zM51 48h5v1h-5zM8 49h11v1h-11zM43 49h13v1h-13zM8 50h12v1h-12zM43 50h12v1h-12zM9 51h11v1h-11zM44 51h10v1h-10z"/>
</svg>
