<svg xmlns="http://www.w3.org/2000/svg" width="64" height="64" viewBox="0 0 64 64">
  <path fill="#000" d="M9 11h12v1h-12zM43 11h12v1h-12zM9 12h12v1h-12zM43 12h13v1h-13zM8 13h13v1h-13zM43 13h13v1h-13zM8 14h5v1h-5zM14 14h5v1h-5zM48 14h8v1h-8zM8 15h4v1h-4zM53 15h3v1h-3zM8 16h4v1h-4zM53 16h3v1h-3zM8 17h4v1h-4zM53 17h3v1h-3zM8 18h4v1h-4zM53 18h3v1h-3zM8 19h4v1h-4zM53 19h3v1h-3zM8 20h4v1h-4zM53 20h3v1h-3zM8 21h4v1h-4zM38 21h3v1h-3zM53 21h3v1h-3zM8 22h4v1h-4zM24 22h4v1h-4zM37 22h4v1h-4zM53 22h3v1h-3zM8 23h3v1h-3zM24 23h4v1h-4zM37 23h4v1h-4zM53 23h3v1h-3zM24 24h4v1h-4zM36 24h5v1h-5zM24 25h4v1h-4zM36 25h4v1h-4zM24 26h4v1h-4zM37 26h3v1h-3zM24 27h4v1h-4zM37 27h3v1h-3zM24 28h3v1h-3zM37 28h2v1h-2zM25 29h2v1h-2zM31 29h3v1h-3zM31 30h3v1h-3zM31 31h3v1h-3zM31 32h3v1h-3zM32 33h1v1h-1zM37 33h2v1h-2zM24 34h3v1h-3zM37 34h3v1h-3zM24 35h3v1h-3zM37 35h4v1h-4zM24 36h3v1h-3zM37 36h4v1h-4zM24 37h3v1h-3zM37 37h4v1h-4zM24 38h4v1h-4zM36 38h4v1h-4zM9 39h2v1h-2zM25 39h4v1h-4zM35 39h5v1h-5zM53 39h3v1h-3zM8 40h4v1h-4zM25 40h14v1h-14zM53 40h3v1h-3zM8 41h4v1h-4zM25 41h13v1h-13zM53 41h3v1h-3zM8 42h4v1h-4zM28 42h8v1h-8zM53 42h3v1h-3zM8 43h4v1h-4zM53 43h3v1h-3zM8 44h4v1h-4zM53 44h3v1h-3zM8 45h4v1h-4zM53 45h3v1h-3zM8 46h4v1h-4zM53 46h3v1h-3zM8 47h4v1h-4zM53 47h3v1h-3zM8 48h4v1h-4zM52 48h4v1h-4zM8 49h12v1h-12zM44 49h12v1h-12zM8 50h13v1h-13zM43 50h13v1h-13zM9 51h12v1h-12zM43 51h13v1h-13zM10 52h10v1h-10zM44 52h10v1h-10z"/>
</svg>
