<svg xmlns="http://www.w3.org/2000/svg" width="64" height="64" viewBox="0 0 64 64">
  <path fill="#000" d="M10 18h41v1h-41zM9 19h43v1h-43zM8 20h45v1h-45zM8 21h45v1h-45zM8 22h4v1h-4zM49 22h4v1h-4zM8 23h4v1h-4zM13 23h6v1h-6zM22 23h6v1h-6zM31 23h6v1h-6zM40 23h6v1h-6zM49 23h4v1h-4zM8 24h4v1h-4zM13 24h7v1h-7zM22 24h6v1h-6zM31 24h6v1h-6zM40 24h6v1h-6zM49 24h4v1h-4zM8 25h4v1h-4zM13 25h8v1h-8zM22 25h6v1h-6zM31 25h6v1h-6zM40 25h6v1h-6zM49 25h4v1h-4zM54 25h1v1h-1zM8 26h4v1h-4zM13 26h6v1h-6zM22 26h6v1h-6zM31 26h6v1h-6zM40 26h6v1h-6zM49 26h7v1h-7zM8 27h4v1h-4zM13 27h6v1h-6zM22 27h5v1h-5zM31 27h6v1h-6zM40 27h5v1h-5zM49 27h7v1h-7zM8 28h4v1h-4zM13 28h5v1h-5zM22 28h5v1h-5zM30 28h6v1h-6zM40 28h4v1h-4zM49 28h3v1h-3zM53 28h3v1h-3zM8 29h4v1h-4zM13 29h5v1h-5zM22 29h5v1h-5zM30 29h6v1h-6zM40 29h4v1h-4zM49 29h3v1h-3zM53 29h3v1h-3zM8 30h4v1h-4zM13 30h5v1h-5zM22 30h4v1h-4zM30 30h6v1h-6zM40 30h4v1h-4zM49 30h3v1h-3zM53 30h3v1h-3zM8 31h4v1h-4zM13 31h4v1h-4zM22 31h3v1h-3zM30 31h5v1h-5zM40 31h3v1h-3zM49 31h3v1h-3zM53 31h3v1h-3zM8 32h4v1h-4zM13 32h3v1h-3zM22 32h2v1h-2zM30 32h4v1h-4zM35 32h1v1h-1zM40 32h3v1h-3zM49 32h3v1h-3zM53 32h3v1h-3zM8 33h4v1h-4zM13 33h2v1h-2zM22 33h6v1h-6zM30 33h7v1h-7zM40 33h7v1h-7zM49 33h3v1h-3zM53 33h3v1h-3zM8 34h4v1h-4zM17 34h3v1h-3zM23 34h5v1h-5zM32 34h5v1h-5zM40 34h7v1h-7zM49 34h3v1h-3zM53 34h3v1h-3zM8 35h4v1h-4zM13 35h3v1h-3zM17 35h4v1h-4zM22 35h6v1h-6zM31 35h6v1h-6zM40 35h7v1h-7zM49 35h7v1h-7zM8 36h4v1h-4zM13 36h8v1h-8zM22 36h6v1h-6zM31 36h6v1h-6zM40 36h7v1h-7zM49 36h7v1h-7zM8 37h4v1h-4zM13 37h8v1h-8zM22 37h6v1h-6zM31 37h6v1h-6zM40 37h7v1h-7zM49 37h7v1h-7zM8 38h4v1h-4zM13 38h8v1h-8zM22 38h6v1h-6zM31 38h6v1h-6zM40 38h7v1h-7zM49 38h3v1h-3zM8 39h4v1h-4zM13 39h8v1h-8zM22 39h6v1h-6zM31 39h6v1h-6zM40 39h7v1h-7zM49 39h4v1h-4zM8 40h4v1h-4zM13 40h7v1h-7zM22 40h6v1h-6zM31 40h6v1h-6zM40 40h7v1h-7zM49 40h4v1h-4zM8 41h4v1h-4zM49 41h4v1h-4zM8 42h45v1h-45zM8 43h45v1h-45zM9 44h43v1h-43zM10 45h41v1h-41z"/>
</svg>
