<svg xmlns="http://www.w3.org/2000/svg" width="64" height="64" viewBox="0 0 64 64">
  <path fill="#000" d="M11 9h36v1h-36zM10 10h37v1h-37zM51 10h3v1h-3zM9 11h38v1h-38zM51 11h4v1h-4zM8 12h38v1h-38zM49 12h7v1h-7zM8 13h37v1h-37zM48 13h8v1h-8zM8 14h5v1h-5zM48 14h8v1h-8zM8 15h5v1h-5zM46 15h10v1h-10zM8 16h5v1h-5zM46 16h9v1h-9zM8 17h5v1h-5zM44 17h10v1h-10zM8 18h5v1h-5zM43 18h10v1h-10zM8 19h5v1h-5zM43 19h9v1h-9zM8 20h5v1h-5zM41 20h10v1h-10zM8 21h5v1h-5zM40 21h10v1h-10zM8 22h5v1h-5zM40 22h9v1h-9zM8 23h5v1h-5zM38 23h10v1h-10zM49 23h4v1h-4zM8 24h5v1h-5zM38 24h9v1h-9zM49 24h4v1h-4zM8 25h5v1h-5zM37 25h9v1h-9zM49 25h4v1h-4zM8 26h5v1h-5zM19 26h2v1h-2zM35 26h10v1h-10zM49 26h4v1h-4zM8 27h5v1h-5zM19 27h2v1h-2zM35 27h9v1h-9zM49 27h4v1h-4zM8 28h5v1h-5zM17 28h6v1h-6zM33 28h10v1h-10zM49 28h4v1h-4zM8 29h5v1h-5zM17 29h7v1h-7zM32 29h10v1h-10zM49 29h4v1h-4zM8 30h5v1h-5zM17 30h7v1h-7zM32 30h9v1h-9zM49 30h4v1h-4zM8 31h5v1h-5zM17 31h9v1h-9zM30 31h10v1h-10zM49 31h4v1h-4zM8 32h5v1h-5zM17 32h9v1h-9zM30 32h9v1h-9zM49 32h4v1h-4zM8 33h5v1h-5zM18 33h9v1h-9zM29 33h9v1h-9zM49 33h4v1h-4zM8 34h5v1h-5zM19 34h18v1h-18zM49 34h4v1h-4zM8 35h5v1h-5zM20 35h16v1h-16zM49 35h4v1h-4zM8 36h5v1h-5zM21 36h14v1h-14zM49 36h4v1h-4zM8 37h5v1h-5zM22 37h12v1h-12zM49 37h4v1h-4zM8 38h5v1h-5zM25 38h8v1h-8zM49 38h4v1h-4zM8 39h5v1h-5zM25 39h7v1h-7zM49 39h4v1h-4zM8 40h5v1h-5zM27 40h4v1h-4zM49 40h4v1h-4zM8 41h5v1h-5zM28 41h2v1h-2zM49 41h4v1h-4zM8 42h5v1h-5zM49 42h4v1h-4zM8 43h5v1h-5zM49 43h4v1h-4zM8 44h5v1h-5zM49 44h4v1h-4zM8 45h5v1h-5zM49 45h4v1h-4zM8 46h5v1h-5zM48 46h5v1h-5zM8 47h5v1h-5zM48 47h5v1h-5zM8 48h5v1h-5zM47 48h6v1h-6zM8 49h45v1h-45zM8 50h45v1h-45zM9 51h43v1h-43zM10 52h41v1h-41zM11 53h39v1h-39z"/>
</svg>
