<svg xmlns="http://www.w3.org/2000/svg" width="64" height="64" viewBox="0 0 64 64">
  <path fill="#000" d="M10 8h44v1h-44zM10 9h44v1h-44zM10 10h8v1h-8zM20 10h24v1h-24zM50 10h4v1h-4zM30 21h4v1h-4zM28 22h8v1h-8zM28 23h8v1h-8zM28 24h8v1h-8zM27 25h10v1h-10zM27 26h11v1h-11zM26 27h12v1h-12zM26 28h13v1h-13zM26 29h14v1h-14zM24 30h16v1h-16zM23 31h8v1h-8zM33 31h8v1h-8zM23 32h7v1h-7zM34 32h7v1h-7zM23 33h7v1h-7zM34 33h7v1h-7zM22 34h8v1h-8zM34 34h8v1h-8zM22 35h8v1h-8zM34 35h9v1h-9zM21 36h9v1h-9zM34 36h9v1h-9zM20 37h10v1h-10zM34 37h10v1h-10zM19 38h11v1h-11zM34 38h11v1h-11zM19 39h11v1h-11zM34 39h11v1h-11zM18 40h12v1h-12zM34 40h12v1h-12zM18 41h12v1h-12zM34 41h12v1h-12zM17 42h14v1h-14zM34 42h13v1h-13zM16 43h32v1h-32zM16 44h32v1h-32zM16 45h32v1h-32zM15 46h34v1h-34zM15 47h16v1h-16zM33 47h16v1h-16zM14 48h16v1h-16zM34 48h16v1h-16zM13 49h17v1h-17zM34 49h17v1h-17zM13 50h18v1h-18zM34 50h17v1h-17zM12 51h40v1h-40zM12 52h40v1h-40zM12 53h40v1h-40zM13 54h39v1h-39zM13 55h38v1h-38z"/>
</svg>
