<svg xmlns="http://www.w3.org/2000/svg" width="64" height="64" viewBox="0 0 64 64">
  <path fill="#000" d="M25 10h9v1h-9zM21 11h18v1h-18zM18 12h23v1h-23zM52 12h3v1h-3zM17 13h25v1h-25zM50 13h5v1h-5zM15 14h18v1h-18zM37 14h5v1h-5zM49 14h6v1h-6zM14 15h8v1h-8zM29 15h4v1h-4zM48 15h7v1h-7zM13 16h7v1h-7zM29 16h4v1h-4zM47 16h8v1h-8zM12 17h7v1h-7zM29 17h4v1h-4zM46 17h8v1h-8zM11 18h7v1h-7zM26 18h7v1h-7zM45 18h8v1h-8zM11 19h6v1h-6zM26 19h7v1h-7zM44 19h8v1h-8zM10 20h6v1h-6zM18 20h2v1h-2zM27 20h6v1h-6zM43 20h8v1h-8zM10 21h5v1h-5zM17 21h5v1h-5zM28 21h5v1h-5zM42 21h8v1h-8zM9 22h5v1h-5zM16 22h6v1h-6zM41 22h9v1h-9zM9 23h5v1h-5zM16 23h6v1h-6zM40 23h9v1h-9zM9 24h4v1h-4zM17 24h5v1h-5zM38 24h10v1h-10zM8 25h5v1h-5zM17 25h4v1h-4zM37 25h10v1h-10zM8 26h5v1h-5zM17 26h4v1h-4zM36 26h10v1h-10zM8 27h4v1h-4zM35 27h10v1h-10zM8 28h4v1h-4zM34 28h10v1h-10zM8 29h4v1h-4zM14 29h5v1h-5zM33 29h10v1h-10zM8 30h4v1h-4zM13 30h6v1h-6zM33 30h10v1h-10zM8 31h4v1h-4zM13 31h5v1h-5zM33 31h9v1h-9zM53 31h3v1h-3zM8 32h4v1h-4zM34 32h7v1h-7zM52 32h4v1h-4zM8 33h4v1h-4zM30 33h3v1h-3zM35 33h6v1h-6zM53 33h3v1h-3zM8 34h4v1h-4zM29 34h5v1h-5zM36 34h4v1h-4zM52 34h4v1h-4zM8 35h5v1h-5zM14 35h7v1h-7zM29 35h6v1h-6zM37 35h2v1h-2zM52 35h4v1h-4zM8 36h14v1h-14zM28 36h8v1h-8zM52 36h4v1h-4zM8 37h15v1h-15zM28 37h8v1h-8zM52 37h4v1h-4zM8 38h7v1h-7zM17 38h7v1h-7zM27 38h2v1h-2zM31 38h5v1h-5zM51 38h4v1h-4zM9 39h5v1h-5zM17 39h7v1h-7zM26 39h10v1h-10zM51 39h4v1h-4zM9 40h6v1h-6zM17 40h6v1h-6zM26 40h10v1h-10zM50 40h5v1h-5zM9 41h13v1h-13zM25 41h11v1h-11zM49 41h5v1h-5zM10 42h12v1h-12zM24 42h11v1h-11zM48 42h6v1h-6zM10 43h11v1h-11zM24 43h9v1h-9zM47 43h6v1h-6zM11 44h9v1h-9zM24 44h6v1h-6zM46 44h6v1h-6zM12 45h7v1h-7zM23 45h4v1h-4zM45 45h5v1h-5zM13 46h6v1h-6zM44 46h5v1h-5zM14 47h7v1h-7zM42 47h7v1h-7zM15 48h8v1h-8zM38 48h10v1h-10zM16 49h31v1h-31zM18 50h26v1h-26zM21 51h21v1h-21zM24 52h14v1h-14z"/>
</svg>
