<svg xmlns="http://www.w3.org/2000/svg" width="64" height="64" viewBox="0 0 64 64">
  <path fill="#000" d="M15 12h3v1h-3zM46 12h4v1h-4zM14 13h4v1h-4zM46 13h5v1h-5zM14 14h2v1h-2zM48 14h4v1h-4zM12 15h4v1h-4zM49 15h4v1h-4zM11 16h5v1h-5zM50 16h3v1h-3zM11 17h4v1h-4zM51 17h2v1h-2zM11 18h3v1h-3zM51 18h4v1h-4zM10 19h3v1h-3zM51 19h4v1h-4zM9 20h4v1h-4zM52 20h3v1h-3zM9 21h4v1h-4zM53 21h3v1h-3zM9 22h4v1h-4zM52 22h4v1h-4zM9 23h3v1h-3zM52 23h4v1h-4zM9 24h3v1h-3zM52 24h4v1h-4zM8 25h4v1h-4zM53 25h3v1h-3zM8 26h4v1h-4zM54 26h2v1h-2zM8 27h4v1h-4zM54 27h2v1h-2zM8 28h4v1h-4zM54 28h2v1h-2zM8 29h4v1h-4zM54 29h2v1h-2zM8 30h4v1h-4zM53 30h3v1h-3zM8 31h4v1h-4zM52 31h4v1h-4zM9 32h3v1h-3zM52 32h4v1h-4zM9 33h3v1h-3zM52 33h4v1h-4zM9 34h3v1h-3zM52 34h4v1h-4zM9 35h4v1h-4zM52 35h4v1h-4zM9 36h4v1h-4zM51 36h4v1h-4zM9 37h4v1h-4zM51 37h4v1h-4zM10 38h5v1h-5zM51 38h3v1h-3zM11 39h4v1h-4zM50 39h3v1h-3zM11 40h4v1h-4zM49 40h4v1h-4zM11 41h5v1h-5zM48 41h5v1h-5zM12 42h5v1h-5zM47 42h5v1h-5zM14 43h4v1h-4zM46 43h6v1h-6zM14 44h5v1h-5zM45 44h7v1h-7zM16 45h6v1h-6zM44 45h9v1h-9zM17 46h5v1h-5zM43 46h10v1h-10zM17 47h8v1h-8zM39 47h14v1h-14zM19 48h26v1h-26zM50 48h3v1h-3zM21 49h22v1h-22zM22 50h20v1h-20zM26 51h12v1h-12z"/>
</svg>
