<svg xmlns="http://www.w3.org/2000/svg" width="64" height="64" viewBox="0 0 64 64">
  <path fill="#000" d="M23 12h31v1h-31zM22 13h33v1h-33zM22 14h34v1h-34zM23 15h33v1h-33zM24 16h1v1h-1zM52 16h4v1h-4zM52 17h4v1h-4zM52 18h4v1h-4zM16 19h32v1h-32zM52 19h4v1h-4zM15 20h34v1h-34zM52 20h4v1h-4zM15 21h34v1h-34zM52 21h4v1h-4zM15 22h34v1h-34zM52 22h4v1h-4zM44 23h5v1h-5zM52 23h4v1h-4zM45 24h4v1h-4zM52 24h4v1h-4zM46 25h3v1h-3zM52 25h4v1h-4zM46 26h3v1h-3zM52 26h4v1h-4zM46 27h3v1h-3zM52 27h4v1h-4zM9 28h32v1h-32zM46 28h3v1h-3zM52 28h4v1h-4zM8 29h34v1h-34zM46 29h3v1h-3zM52 29h4v1h-4zM8 30h34v1h-34zM46 30h3v1h-3zM52 30h3v1h-3zM8 31h34v1h-34zM46 31h3v1h-3zM52 31h3v1h-3zM8 32h4v1h-4zM38 32h4v1h-4zM46 32h3v1h-3zM52 32h3v1h-3zM8 33h4v1h-4zM38 33h4v1h-4zM46 33h3v1h-3zM52 33h3v1h-3zM8 34h4v1h-4zM38 34h4v1h-4zM46 34h3v1h-3zM52 34h3v1h-3zM8 35h4v1h-4zM38 35h4v1h-4zM46 35h3v1h-3zM52 35h4v1h-4zM8 36h4v1h-4zM38 36h4v1h-4zM46 36h3v1h-3zM52 36h4v1h-4zM8 37h4v1h-4zM38 37h4v1h-4zM46 37h3v1h-3zM52 37h3v1h-3zM8 38h4v1h-4zM14 38h28v1h-28zM46 38h3v1h-3zM8 39h34v1h-34zM46 39h3v1h-3zM8 40h34v1h-34zM46 40h3v1h-3zM8 41h34v1h-34zM46 41h3v1h-3zM8 42h4v1h-4zM38 42h4v1h-4zM46 42h3v1h-3zM8 43h4v1h-4zM38 43h4v1h-4zM46 43h3v1h-3zM8 44h4v1h-4zM38 44h4v1h-4zM46 44h2v1h-2zM8 45h4v1h-4zM38 45h4v1h-4zM8 46h4v1h-4zM38 46h4v1h-4zM8 47h4v1h-4zM38 47h4v1h-4zM8 48h34v1h-34zM8 49h34v1h-34zM9 50h33v1h-33zM10 51h31v1h-31z"/>
</svg>
