<svg xmlns="http://www.w3.org/2000/svg" width="64" height="64" viewBox="0 0 64 64">
  <path fill="#000" d="M30 19h5v1h-5zM28 20h9v1h-9zM27 21h11v1h-11zM27 22h4v1h-4zM33 22h4v1h-4zM27 23h3v1h-3zM34 23h4v1h-4zM27 24h3v1h-3zM34 24h4v1h-4zM27 25h3v1h-3zM34 25h4v1h-4zM27 26h3v1h-3zM34 26h4v1h-4zM27 27h3v1h-3zM34 27h4v1h-4zM51 27h2v1h-2zM27 28h3v1h-3zM34 28h4v1h-4zM51 28h2v1h-2zM27 29h3v1h-3zM34 29h4v1h-4zM51 29h2v1h-2zM27 30h3v1h-3zM34 30h4v1h-4zM51 30h2v1h-2zM9 31h8v1h-8zM19 31h3v1h-3zM27 31h3v1h-3zM34 31h4v1h-4zM42 31h3v1h-3zM47 31h9v1h-9zM8 32h9v1h-9zM19 32h3v1h-3zM27 32h3v1h-3zM34 32h4v1h-4zM42 32h3v1h-3zM47 32h9v1h-9zM20 33h1v1h-1zM27 33h3v1h-3zM34 33h4v1h-4zM43 33h1v1h-1zM50 33h3v1h-3zM27 34h3v1h-3zM34 34h4v1h-4zM51 34h2v1h-2zM27 35h3v1h-3zM34 35h4v1h-4zM51 35h2v1h-2zM27 36h3v1h-3zM34 36h4v1h-4zM51 36h2v1h-2zM27 37h3v1h-3zM34 37h4v1h-4zM27 38h3v1h-3zM34 38h4v1h-4zM27 39h3v1h-3zM34 39h4v1h-4zM27 40h3v1h-3zM34 40h4v1h-4zM27 41h4v1h-4zM33 41h5v1h-5zM27 42h10v1h-10zM28 43h9v1h-9zM29 44h7v1h-7z"/>
</svg>
