<svg xmlns="http://www.w3.org/2000/svg" width="64" height="64" viewBox="0 0 64 64">
  <path fill="#000" d="M25 8h12v1h-12zM22 9h18v1h-18zM20 10h23v1h-23zM52 10h2v1h-2zM18 11h26v1h-26zM51 11h3v1h-3zM17 12h28v1h-28zM50 12h4v1h-4zM15 13h32v1h-32zM49 13h5v1h-5zM14 14h40v1h-40zM13 15h13v1h-13zM36 15h18v1h-18zM13 16h11v1h-11zM39 16h15v1h-15zM12 17h10v1h-10zM40 17h14v1h-14zM11 18h10v1h-10zM43 18h11v1h-11zM11 19h9v1h-9zM42 19h12v1h-12zM10 20h9v1h-9zM41 20h13v1h-13zM10 21h7v1h-7zM40 21h14v1h-14zM9 22h8v1h-8zM38 22h16v1h-16zM9 23h8v1h-8zM38 23h16v1h-16zM9 24h7v1h-7zM38 24h16v1h-16zM8 25h8v1h-8zM38 25h16v1h-16zM8 26h7v1h-7zM8 27h7v1h-7zM8 28h7v1h-7zM8 29h7v1h-7zM8 30h7v1h-7zM48 33h7v1h-7zM48 34h7v1h-7zM48 35h7v1h-7zM48 36h6v1h-6zM47 37h7v1h-7zM9 38h14v1h-14zM47 38h7v1h-7zM9 39h16v1h-16zM46 39h8v1h-8zM9 40h16v1h-16zM46 40h8v1h-8zM9 41h15v1h-15zM45 41h8v1h-8zM9 42h14v1h-14zM45 42h8v1h-8zM9 43h13v1h-13zM44 43h9v1h-9zM9 44h11v1h-11zM43 44h9v1h-9zM9 45h13v1h-13zM42 45h9v1h-9zM9 46h14v1h-14zM41 46h10v1h-10zM9 47h16v1h-16zM39 47h11v1h-11zM9 48h18v1h-18zM36 48h13v1h-13zM9 49h6v1h-6zM16 49h32v1h-32zM9 50h5v1h-5zM17 50h30v1h-30zM9 51h4v1h-4zM18 51h28v1h-28zM9 52h3v1h-3zM20 52h24v1h-24zM9 53h2v1h-2zM21 53h21v1h-21zM24 54h15v1h-15zM29 55h5v1h-5z"/>
</svg>
