<svg xmlns="http://www.w3.org/2000/svg" width="64" height="64" viewBox="0 0 64 64">
  <path fill="#000" d="M23 11h18v1h-18zM22 12h20v1h-20zM22 13h20v1h-20zM21 14h22v1h-22zM21 15h22v1h-22zM20 16h23v1h-23zM12 17h40v1h-40zM9 18h46v1h-46zM8 19h47v1h-47zM8 20h48v1h-48zM8 21h48v1h-48zM8 22h48v1h-48zM8 23h19v1h-19zM37 23h11v1h-11zM51 23h5v1h-5zM8 24h18v1h-18zM39 24h10v1h-10zM50 24h6v1h-6zM8 25h16v1h-16zM40 25h16v1h-16zM8 26h15v1h-15zM30 26h5v1h-5zM41 26h15v1h-15zM8 27h14v1h-14zM28 27h9v1h-9zM42 27h14v1h-14zM8 28h14v1h-14zM26 28h12v1h-12zM43 28h13v1h-13zM8 29h13v1h-13zM26 29h13v1h-13zM43 29h13v1h-13zM8 30h13v1h-13zM25 30h15v1h-15zM44 30h12v1h-12zM8 31h12v1h-12zM24 31h16v1h-16zM44 31h12v1h-12zM8 32h12v1h-12zM24 32h16v1h-16zM44 32h12v1h-12zM8 33h12v1h-12zM24 33h17v1h-17zM44 33h12v1h-12zM8 34h12v1h-12zM24 34h17v1h-17zM44 34h12v1h-12zM8 35h12v1h-12zM24 35h17v1h-17zM44 35h12v1h-12zM8 36h12v1h-12zM24 36h16v1h-16zM44 36h12v1h-12zM8 37h12v1h-12zM24 37h16v1h-16zM44 37h12v1h-12zM8 38h12v1h-12zM24 38h16v1h-16zM44 38h12v1h-12zM8 39h13v1h-13zM25 39h14v1h-14zM43 39h13v1h-13zM8 40h13v1h-13zM26 40h13v1h-13zM43 40h13v1h-13zM8 41h14v1h-14zM27 41h11v1h-11zM42 41h14v1h-14zM8 42h15v1h-15zM28 42h8v1h-8zM42 42h14v1h-14zM8 43h15v1h-15zM41 43h15v1h-15zM8 44h17v1h-17zM40 44h16v1h-16zM8 45h18v1h-18zM38 45h18v1h-18zM8 46h20v1h-20zM36 46h20v1h-20zM8 47h48v1h-48zM8 48h48v1h-48zM8 49h48v1h-48zM8 50h48v1h-48zM9 51h46v1h-46zM10 52h44v1h-44z"/>
</svg>
