<svg xmlns="http://www.w3.org/2000/svg" width="64" height="64" viewBox="0 0 64 64">
  <path fill="#000" d="M25 14h13v1h-13zM22 15h19v1h-19zM20 16h23v1h-23zM18 17h27v1h-27zM17 18h29v1h-29zM16 19h31v1h-31zM15 20h14v1h-14zM35 20h13v1h-13zM54 20h2v1h-2zM14 21h11v1h-11zM38 21h11v1h-11zM52 21h4v1h-4zM13 22h10v1h-10zM40 22h10v1h-10zM51 22h5v1h-5zM12 23h9v1h-9zM42 23h14v1h-14zM11 24h9v1h-9zM43 24h13v1h-13zM11 25h8v1h-8zM44 25h12v1h-12zM10 26h8v1h-8zM44 26h11v1h-11zM10 27h7v1h-7zM42 27h13v1h-13zM9 28h8v1h-8zM41 28h14v1h-14zM9 29h7v1h-7zM40 29h15v1h-15zM9 30h6v1h-6zM40 30h15v1h-15zM8 31h7v1h-7zM43 31h11v1h-11zM8 32h7v1h-7zM47 32h7v1h-7zM8 33h6v1h-6zM8 34h6v1h-6zM8 35h6v1h-6zM8 36h6v1h-6zM51 39h4v1h-4zM50 40h6v1h-6zM50 41h6v1h-6zM49 42h7v1h-7zM49 43h7v1h-7zM10 44h5v1h-5zM49 44h7v1h-7zM10 45h10v1h-10zM48 45h7v1h-7zM10 46h14v1h-14zM48 46h7v1h-7zM10 47h14v1h-14zM47 47h8v1h-8zM9 48h14v1h-14zM47 48h7v1h-7zM9 49h13v1h-13zM46 49h7v1h-7z"/>
</svg>
