<svg xmlns="http://www.w3.org/2000/svg" width="64" height="64" viewBox="0 0 64 64">
  <path fill="#000" d="M10 16h44v1h-44zM9 17h46v1h-46zM8 18h48v1h-48zM8 19h3v1h-3zM53 19h3v1h-3zM8 20h2v1h-2zM54 20h2v1h-2zM8 21h1v1h-1zM55 21h1v1h-1zM8 22h2v1h-2zM54 22h2v1h-2zM8 23h1v1h-1zM55 23h1v1h-1zM8 24h1v1h-1zM48 24h1v1h-1zM55 24h1v1h-1zM8 25h1v1h-1zM14 25h3v1h-3zM22 25h2v1h-2zM27 25h8v1h-8zM37 25h3v1h-3zM42 25h8v1h-8zM55 25h1v1h-1zM8 26h1v1h-1zM14 26h3v1h-3zM22 26h3v1h-3zM27 26h7v1h-7zM37 26h3v1h-3zM42 26h7v1h-7zM55 26h1v1h-1zM8 27h1v1h-1zM14 27h3v1h-3zM22 27h2v1h-2zM27 27h3v1h-3zM37 27h3v1h-3zM42 27h3v1h-3zM55 27h1v1h-1zM8 28h1v1h-1zM14 28h3v1h-3zM22 28h3v1h-3zM27 28h3v1h-3zM37 28h3v1h-3zM42 28h3v1h-3zM55 28h1v1h-1zM8 29h1v1h-1zM14 29h3v1h-3zM21 29h4v1h-4zM27 29h2v1h-2zM37 29h3v1h-3zM42 29h3v1h-3zM55 29h1v1h-1zM8 30h1v1h-1zM14 30h11v1h-11zM27 30h7v1h-7zM37 30h3v1h-3zM42 30h8v1h-8zM55 30h1v1h-1zM8 31h1v1h-1zM14 31h11v1h-11zM27 31h7v1h-7zM37 31h3v1h-3zM42 31h8v1h-8zM55 31h1v1h-1zM8 32h1v1h-1zM14 32h11v1h-11zM27 32h7v1h-7zM37 32h3v1h-3zM42 32h8v1h-8zM55 32h1v1h-1zM8 33h1v1h-1zM14 33h3v1h-3zM21 33h4v1h-4zM27 33h2v1h-2zM37 33h3v1h-3zM42 33h3v1h-3zM55 33h1v1h-1zM8 34h1v1h-1zM14 34h3v1h-3zM22 34h3v1h-3zM27 34h3v1h-3zM37 34h3v1h-3zM42 34h3v1h-3zM55 34h1v1h-1zM8 35h1v1h-1zM14 35h3v1h-3zM22 35h3v1h-3zM27 35h3v1h-3zM37 35h3v1h-3zM42 35h3v1h-3zM55 35h1v1h-1zM8 36h1v1h-1zM14 36h3v1h-3zM22 36h3v1h-3zM27 36h8v1h-8zM37 36h3v1h-3zM42 36h3v1h-3zM55 36h1v1h-1zM8 37h1v1h-1zM14 37h3v1h-3zM22 37h2v1h-2zM27 37h8v1h-8zM37 37h3v1h-3zM42 37h3v1h-3zM55 37h1v1h-1zM8 38h1v1h-1zM55 38h1v1h-1zM8 39h1v1h-1zM55 39h1v1h-1zM8 40h2v1h-2zM54 40h2v1h-2zM8 41h1v1h-1zM55 41h1v1h-1zM8 42h2v1h-2zM54 42h2v1h-2zM8 43h3v1h-3zM53 43h3v1h-3zM8 44h48v1h-48zM9 45h46v1h-46zM11 46h42v1h-42z"/>
</svg>
