<svg xmlns="http://www.w3.org/2000/svg" width="64" height="64" viewBox="0 0 64 64">
  <path fill="#000" d="M25 9h14v1h-14zM21 10h20v1h-20zM19 11h25v1h-25zM18 12h28v1h-28zM17 13h30v1h-30zM16 14h10v1h-10zM31 14h2v1h-2zM38 14h10v1h-10zM16 15h7v1h-7zM41 15h7v1h-7zM15 16h7v1h-7zM42 16h7v1h-7zM13 17h7v1h-7zM44 17h7v1h-7zM12 18h7v1h-7zM45 18h7v1h-7zM11 19h7v1h-7zM46 19h7v1h-7zM11 20h6v1h-6zM47 20h6v1h-6zM10 21h7v1h-7zM47 21h7v1h-7zM10 22h6v1h-6zM48 22h6v1h-6zM10 23h5v1h-5zM49 23h5v1h-5zM10 24h5v1h-5zM49 24h5v1h-5zM9 25h5v1h-5zM21 25h2v1h-2zM28 25h3v1h-3zM33 25h7v1h-7zM49 25h6v1h-6zM9 26h5v1h-5zM20 26h4v1h-4zM28 26h3v1h-3zM33 26h8v1h-8zM49 26h6v1h-6zM9 27h5v1h-5zM20 27h5v1h-5zM28 27h3v1h-3zM33 27h9v1h-9zM50 27h5v1h-5zM9 28h5v1h-5zM20 28h5v1h-5zM28 28h3v1h-3zM33 28h3v1h-3zM39 28h4v1h-4zM50 28h5v1h-5zM9 29h5v1h-5zM20 29h6v1h-6zM28 29h3v1h-3zM33 29h3v1h-3zM40 29h3v1h-3zM50 29h5v1h-5zM9 30h5v1h-5zM20 30h7v1h-7zM28 30h3v1h-3zM33 30h3v1h-3zM40 30h3v1h-3zM50 30h5v1h-5zM8 31h6v1h-6zM20 31h3v1h-3zM24 31h3v1h-3zM28 31h3v1h-3zM33 31h10v1h-10zM50 31h6v1h-6zM9 32h5v1h-5zM20 32h3v1h-3zM25 32h6v1h-6zM33 32h9v1h-9zM50 32h6v1h-6zM9 33h5v1h-5zM20 33h3v1h-3zM25 33h6v1h-6zM33 33h8v1h-8zM50 33h6v1h-6zM9 34h5v1h-5zM20 34h3v1h-3zM25 34h6v1h-6zM33 34h3v1h-3zM38 34h3v1h-3zM50 34h6v1h-6zM9 35h5v1h-5zM20 35h3v1h-3zM26 35h5v1h-5zM33 35h3v1h-3zM39 35h3v1h-3zM50 35h5v1h-5zM9 36h5v1h-5zM20 36h3v1h-3zM27 36h4v1h-4zM33 36h3v1h-3zM39 36h4v1h-4zM50 36h5v1h-5zM9 37h5v1h-5zM20 37h3v1h-3zM27 37h4v1h-4zM33 37h3v1h-3zM40 37h3v1h-3zM50 37h5v1h-5zM9 38h6v1h-6zM21 38h2v1h-2zM28 38h2v1h-2zM33 38h3v1h-3zM40 38h3v1h-3zM49 38h6v1h-6zM10 39h5v1h-5zM49 39h5v1h-5zM10 40h6v1h-6zM48 40h6v1h-6zM10 41h6v1h-6zM47 41h7v1h-7zM11 42h6v1h-6zM47 42h6v1h-6zM11 43h7v1h-7zM46 43h7v1h-7zM12 44h7v1h-7zM45 44h7v1h-7zM13 45h7v1h-7zM44 45h8v1h-8zM13 46h8v1h-8zM43 46h8v1h-8zM14 47h9v1h-9zM41 47h9v1h-9zM15 48h10v1h-10zM39 48h10v1h-10zM16 49h13v1h-13zM34 49h14v1h-14zM17 50h29v1h-29zM19 51h26v1h-26zM21 52h22v1h-22zM24 53h16v1h-16z"/>
</svg>
