<svg xmlns="http://www.w3.org/2000/svg" width="64" height="64" viewBox="0 0 64 64">
  <path fill="#000" d="M10 11h6v1h-6zM18 11h10v1h-10zM30 11h4v1h-4zM48 11h3v1h-3zM12 12h5v1h-5zM31 12h3v1h-3zM47 12h4v1h-4zM13 13h5v1h-5zM31 13h3v1h-3zM46 13h5v1h-5zM14 14h5v1h-5zM31 14h3v1h-3zM45 14h5v1h-5zM15 15h4v1h-4zM31 15h2v1h-2zM44 15h5v1h-5zM16 16h4v1h-4zM42 16h6v1h-6zM17 17h4v1h-4zM42 17h5v1h-5zM18 18h4v1h-4zM31 18h4v1h-4zM42 18h4v1h-4zM19 19h3v1h-3zM30 19h5v1h-5zM43 19h2v1h-2zM10 20h5v1h-5zM27 20h10v1h-10zM10 21h6v1h-6zM26 21h14v1h-14zM49 21h4v1h-4zM10 22h5v1h-5zM24 22h17v1h-17zM49 22h4v1h-4zM11 23h3v1h-3zM23 23h18v1h-18zM50 23h2v1h-2zM12 24h1v1h-1zM22 24h20v1h-20zM22 25h21v1h-21zM21 26h22v1h-22zM9 27h8v1h-8zM21 27h22v1h-22zM8 28h10v1h-10zM21 28h22v1h-22zM46 28h10v1h-10zM8 29h10v1h-10zM21 29h22v1h-22zM46 29h10v1h-10zM8 30h9v1h-9zM21 30h22v1h-22zM46 30h10v1h-10zM21 31h22v1h-22zM21 32h22v1h-22zM22 33h21v1h-21zM22 34h20v1h-20zM11 35h4v1h-4zM22 35h19v1h-19zM49 35h3v1h-3zM10 36h5v1h-5zM24 36h17v1h-17zM48 36h5v1h-5zM10 37h5v1h-5zM25 37h16v1h-16zM48 37h5v1h-5zM10 38h5v1h-5zM26 38h13v1h-13zM43 38h1v1h-1zM49 38h3v1h-3zM11 39h3v1h-3zM20 39h1v1h-1zM27 39h10v1h-10zM42 39h2v1h-2zM49 39h3v1h-3zM19 40h3v1h-3zM30 40h4v1h-4zM42 40h3v1h-3zM49 40h3v1h-3zM18 41h4v1h-4zM42 41h4v1h-4zM18 42h4v1h-4zM43 42h4v1h-4zM17 43h4v1h-4zM44 43h4v1h-4zM16 44h4v1h-4zM31 44h3v1h-3zM45 44h4v1h-4zM15 45h4v1h-4zM31 45h3v1h-3zM46 45h5v1h-5zM13 46h5v1h-5zM23 46h3v1h-3zM31 46h3v1h-3zM47 46h6v1h-6zM13 47h4v1h-4zM23 47h3v1h-3zM31 47h3v1h-3zM38 47h16v1h-16zM13 48h3v1h-3zM31 48h3v1h-3zM38 48h16v1h-16zM30 49h4v1h-4zM38 49h16v1h-16zM30 50h4v1h-4zM39 50h2v1h-2zM51 50h2v1h-2zM31 51h3v1h-3z"/>
</svg>
