<svg xmlns="http://www.w3.org/2000/svg" width="64" height="64" viewBox="0 0 64 64">
  <path fill="#000" d="M8 17h3v1h-3zM53 17h3v1h-3zM8 18h4v1h-4zM53 18h3v1h-3zM8 19h4v1h-4zM53 19h3v1h-3zM8 20h4v1h-4zM53 20h3v1h-3zM8 21h4v1h-4zM16 21h7v1h-7zM29 21h3v1h-3zM36 21h2v1h-2zM41 21h2v1h-2zM47 21h2v1h-2zM53 21h3v1h-3zM8 22h4v1h-4zM15 22h9v1h-9zM28 22h5v1h-5zM35 22h4v1h-4zM40 22h4v1h-4zM46 22h4v1h-4zM53 22h3v1h-3zM8 23h4v1h-4zM15 23h9v1h-9zM28 23h5v1h-5zM34 23h5v1h-5zM40 23h4v1h-4zM46 23h4v1h-4zM53 23h3v1h-3zM8 24h4v1h-4zM15 24h4v1h-4zM20 24h4v1h-4zM28 24h5v1h-5zM36 24h3v1h-3zM40 24h4v1h-4zM46 24h2v1h-2zM53 24h3v1h-3zM8 25h4v1h-4zM15 25h3v1h-3zM21 25h3v1h-3zM28 25h5v1h-5zM36 25h3v1h-3zM40 25h4v1h-4zM46 25h3v1h-3zM53 25h3v1h-3zM8 26h4v1h-4zM15 26h3v1h-3zM21 26h3v1h-3zM27 26h7v1h-7zM36 26h3v1h-3zM40 26h4v1h-4zM46 26h3v1h-3zM53 26h3v1h-3zM8 27h3v1h-3zM15 27h3v1h-3zM21 27h3v1h-3zM27 27h3v1h-3zM31 27h3v1h-3zM36 27h3v1h-3zM40 27h4v1h-4zM46 27h3v1h-3zM53 27h3v1h-3zM8 28h3v1h-3zM15 28h4v1h-4zM20 28h4v1h-4zM27 28h3v1h-3zM31 28h3v1h-3zM36 28h2v1h-2zM40 28h4v1h-4zM46 28h3v1h-3zM53 28h3v1h-3zM8 29h3v1h-3zM15 29h8v1h-8zM27 29h3v1h-3zM31 29h3v1h-3zM36 29h9v1h-9zM46 29h3v1h-3zM53 29h3v1h-3zM8 30h3v1h-3zM15 30h8v1h-8zM27 30h2v1h-2zM31 30h4v1h-4zM37 30h11v1h-11zM53 30h3v1h-3zM8 31h3v1h-3zM15 31h8v1h-8zM26 31h9v1h-9zM37 31h5v1h-5zM43 31h4v1h-4zM53 31h3v1h-3zM8 32h3v1h-3zM15 32h3v1h-3zM20 32h4v1h-4zM25 32h10v1h-10zM37 32h5v1h-5zM43 32h4v1h-4zM53 32h3v1h-3zM8 33h3v1h-3zM15 33h3v1h-3zM20 33h4v1h-4zM25 33h10v1h-10zM37 33h5v1h-5zM43 33h4v1h-4zM53 33h3v1h-3zM8 34h3v1h-3zM15 34h3v1h-3zM21 34h3v1h-3zM26 34h3v1h-3zM32 34h3v1h-3zM37 34h4v1h-4zM43 34h4v1h-4zM53 34h3v1h-3zM8 35h3v1h-3zM15 35h3v1h-3zM21 35h3v1h-3zM25 35h3v1h-3zM32 35h3v1h-3zM37 35h4v1h-4zM43 35h4v1h-4zM53 35h3v1h-3zM8 36h3v1h-3zM15 36h3v1h-3zM21 36h7v1h-7zM32 36h3v1h-3zM38 36h3v1h-3zM43 36h4v1h-4zM53 36h3v1h-3zM8 37h3v1h-3zM53 37h3v1h-3zM8 38h3v1h-3zM53 38h3v1h-3zM8 39h3v1h-3zM53 39h3v1h-3zM8 40h2v1h-2zM53 40h3v1h-3zM8 41h4v1h-4zM54 41h2v1h-2zM8 42h4v1h-4zM53 42h3v1h-3zM8 43h4v1h-4zM52 43h4v1h-4zM8 44h48v1h-48zM9 45h46v1h-46zM10 46h44v1h-44z"/>
</svg>
