<svg xmlns="http://www.w3.org/2000/svg" width="64" height="64" viewBox="0 0 64 64">
  <path fill="#000" d="M29 12h3v1h-3zM28 13h5v1h-5zM28 14h5v1h-5zM34 14h2v1h-2zM25 15h2v1h-2zM28 15h5v1h-5zM34 15h3v1h-3zM12 16h2v1h-2zM23 16h4v1h-4zM28 16h10v1h-10zM50 16h3v1h-3zM11 17h4v1h-4zM23 17h4v1h-4zM29 17h9v1h-9zM50 17h3v1h-3zM11 18h4v1h-4zM23 18h4v1h-4zM29 18h8v1h-8zM39 18h4v1h-4zM50 18h4v1h-4zM11 19h4v1h-4zM23 19h4v1h-4zM29 19h8v1h-8zM39 19h4v1h-4zM50 19h4v1h-4zM10 20h4v1h-4zM23 20h4v1h-4zM29 20h8v1h-8zM39 20h4v1h-4zM51 20h3v1h-3zM10 21h4v1h-4zM23 21h4v1h-4zM29 21h8v1h-8zM39 21h4v1h-4zM46 21h1v1h-1zM51 21h4v1h-4zM9 22h4v1h-4zM23 22h4v1h-4zM29 22h8v1h-8zM39 22h4v1h-4zM46 22h3v1h-3zM52 22h3v1h-3zM9 23h4v1h-4zM23 23h4v1h-4zM29 23h8v1h-8zM39 23h4v1h-4zM46 23h2v1h-2zM52 23h4v1h-4zM9 24h4v1h-4zM23 24h4v1h-4zM29 24h8v1h-8zM39 24h4v1h-4zM46 24h4v1h-4zM52 24h4v1h-4zM9 25h4v1h-4zM23 25h4v1h-4zM29 25h8v1h-8zM39 25h4v1h-4zM46 25h4v1h-4zM52 25h4v1h-4zM8 26h4v1h-4zM23 26h4v1h-4zM29 26h4v1h-4zM34 26h3v1h-3zM39 26h4v1h-4zM46 26h4v1h-4zM52 26h4v1h-4zM8 27h4v1h-4zM23 27h14v1h-14zM39 27h4v1h-4zM47 27h3v1h-3zM54 27h2v1h-2zM8 28h4v1h-4zM23 28h20v1h-20zM47 28h3v1h-3zM53 28h3v1h-3zM8 29h4v1h-4zM23 29h20v1h-20zM47 29h3v1h-3zM53 29h3v1h-3zM8 30h4v1h-4zM23 30h20v1h-20zM47 30h3v1h-3zM53 30h3v1h-3zM8 31h4v1h-4zM18 31h3v1h-3zM23 31h20v1h-20zM47 31h3v1h-3zM53 31h3v1h-3zM8 32h4v1h-4zM18 32h3v1h-3zM23 32h20v1h-20zM47 32h3v1h-3zM53 32h3v1h-3zM8 33h4v1h-4zM18 33h4v1h-4zM23 33h20v1h-20zM47 33h3v1h-3zM53 33h3v1h-3zM8 34h4v1h-4zM18 34h4v1h-4zM23 34h20v1h-20zM47 34h3v1h-3zM54 34h2v1h-2zM8 35h4v1h-4zM18 35h4v1h-4zM23 35h20v1h-20zM46 35h4v1h-4zM52 35h4v1h-4zM9 36h3v1h-3zM18 36h4v1h-4zM23 36h20v1h-20zM46 36h4v1h-4zM52 36h4v1h-4zM9 37h4v1h-4zM18 37h25v1h-25zM46 37h4v1h-4zM52 37h4v1h-4zM9 38h4v1h-4zM18 38h25v1h-25zM46 38h2v1h-2zM52 38h4v1h-4zM9 39h4v1h-4zM18 39h25v1h-25zM46 39h3v1h-3zM51 39h4v1h-4zM10 40h4v1h-4zM19 40h24v1h-24zM46 40h1v1h-1zM51 40h4v1h-4zM10 41h4v1h-4zM19 41h24v1h-24zM50 41h4v1h-4zM11 42h4v1h-4zM20 42h23v1h-23zM50 42h4v1h-4zM11 43h4v1h-4zM20 43h23v1h-23zM50 43h3v1h-3zM11 44h2v1h-2zM20 44h23v1h-23zM50 44h3v1h-3zM21 45h22v1h-22zM22 46h21v1h-21zM22 47h20v1h-20zM23 48h19v1h-19zM25 49h16v1h-16zM26 50h14v1h-14z"/>
</svg>
