<svg xmlns="http://www.w3.org/2000/svg" width="64" height="64" viewBox="0 0 64 64">
  <path fill="#000" d="M12 14h11v1h-11zM33 14h17v1h-17zM10 15h44v1h-44zM9 16h46v1h-46zM8 17h5v1h-5zM51 17h5v1h-5zM8 18h3v1h-3zM53 18h3v1h-3zM8 19h3v1h-3zM53 19h3v1h-3zM8 20h2v1h-2zM54 20h2v1h-2zM8 21h2v1h-2zM53 21h3v1h-3zM8 22h2v1h-2zM53 22h3v1h-3zM8 23h2v1h-2zM53 23h3v1h-3zM8 24h2v1h-2zM16 24h3v1h-3zM25 24h6v1h-6zM39 24h6v1h-6zM53 24h3v1h-3zM8 25h2v1h-2zM16 25h4v1h-4zM24 25h8v1h-8zM37 25h9v1h-9zM53 25h3v1h-3zM8 26h2v1h-2zM16 26h4v1h-4zM23 26h10v1h-10zM37 26h10v1h-10zM53 26h3v1h-3zM8 27h2v1h-2zM16 27h4v1h-4zM23 27h4v1h-4zM29 27h4v1h-4zM36 27h4v1h-4zM43 27h5v1h-5zM53 27h3v1h-3zM8 28h2v1h-2zM16 28h4v1h-4zM23 28h3v1h-3zM30 28h2v1h-2zM36 28h3v1h-3zM44 28h4v1h-4zM53 28h3v1h-3zM8 29h2v1h-2zM16 29h4v1h-4zM23 29h3v1h-3zM35 29h4v1h-4zM44 29h4v1h-4zM53 29h3v1h-3zM8 30h2v1h-2zM16 30h4v1h-4zM23 30h5v1h-5zM35 30h3v1h-3zM45 30h3v1h-3zM53 30h3v1h-3zM8 31h2v1h-2zM16 31h4v1h-4zM24 31h6v1h-6zM35 31h3v1h-3zM45 31h4v1h-4zM53 31h3v1h-3zM8 32h2v1h-2zM16 32h4v1h-4zM25 32h7v1h-7zM35 32h3v1h-3zM45 32h4v1h-4zM53 32h3v1h-3zM8 33h2v1h-2zM16 33h4v1h-4zM27 33h6v1h-6zM35 33h3v1h-3zM45 33h4v1h-4zM53 33h3v1h-3zM8 34h2v1h-2zM16 34h4v1h-4zM28 34h5v1h-5zM35 34h3v1h-3zM44 34h4v1h-4zM53 34h3v1h-3zM8 35h2v1h-2zM16 35h4v1h-4zM23 35h2v1h-2zM29 35h5v1h-5zM35 35h4v1h-4zM44 35h4v1h-4zM53 35h3v1h-3zM8 36h2v1h-2zM16 36h4v1h-4zM22 36h4v1h-4zM30 36h4v1h-4zM36 36h4v1h-4zM44 36h4v1h-4zM53 36h3v1h-3zM8 37h2v1h-2zM16 37h4v1h-4zM22 37h5v1h-5zM29 37h4v1h-4zM36 37h5v1h-5zM43 37h5v1h-5zM53 37h3v1h-3zM8 38h2v1h-2zM16 38h4v1h-4zM23 38h10v1h-10zM37 38h10v1h-10zM53 38h3v1h-3zM8 39h2v1h-2zM16 39h4v1h-4zM24 39h8v1h-8zM37 39h9v1h-9zM53 39h3v1h-3zM8 40h2v1h-2zM16 40h3v1h-3zM25 40h6v1h-6zM39 40h6v1h-6zM53 40h3v1h-3zM8 41h2v1h-2zM53 41h3v1h-3zM8 42h2v1h-2zM53 42h3v1h-3zM8 43h2v1h-2zM53 43h3v1h-3zM8 44h3v1h-3zM53 44h3v1h-3zM8 45h3v1h-3zM53 45h3v1h-3zM8 46h4v1h-4zM52 46h4v1h-4zM8 47h47v1h-47zM9 48h46v1h-46zM11 49h43v1h-43z"/>
</svg>
