<svg xmlns="http://www.w3.org/2000/svg" width="64" height="64" viewBox="0 0 64 64">
  <path fill="#000" d="M27 8h10v1h-10zM24 9h17v1h-17zM20 10h24v1h-24zM19 11h27v1h-27zM18 12h8v1h-8zM31 12h2v1h-2zM38 12h9v1h-9zM18 13h6v1h-6zM30 13h4v1h-4zM40 13h8v1h-8zM18 14h4v1h-4zM31 14h2v1h-2zM42 14h7v1h-7zM14 15h3v1h-3zM31 15h3v1h-3zM35 15h4v1h-4zM43 15h7v1h-7zM13 16h4v1h-4zM21 16h3v1h-3zM25 16h4v1h-4zM30 16h10v1h-10zM42 16h2v1h-2zM45 16h6v1h-6zM12 17h6v1h-6zM21 17h7v1h-7zM33 17h11v1h-11zM46 17h6v1h-6zM11 18h6v1h-6zM21 18h5v1h-5zM36 18h8v1h-8zM47 18h6v1h-6zM11 19h5v1h-5zM21 19h3v1h-3zM39 19h5v1h-5zM47 19h6v1h-6zM10 20h5v1h-5zM17 20h1v1h-1zM21 20h2v1h-2zM40 20h4v1h-4zM45 20h9v1h-9zM10 21h4v1h-4zM17 21h4v1h-4zM44 21h4v1h-4zM50 21h4v1h-4zM10 22h3v1h-3zM17 22h4v1h-4zM43 22h4v1h-4zM50 22h4v1h-4zM9 23h4v1h-4zM18 23h2v1h-2zM43 23h3v1h-3zM51 23h4v1h-4zM9 24h4v1h-4zM51 24h4v1h-4zM8 25h4v1h-4zM45 25h4v1h-4zM52 25h3v1h-3zM8 26h4v1h-4zM15 26h1v1h-1zM45 26h4v1h-4zM52 26h4v1h-4zM8 27h4v1h-4zM15 27h1v1h-1zM45 27h3v1h-3zM52 27h4v1h-4zM8 28h4v1h-4zM46 28h2v1h-2zM52 28h4v1h-4zM8 29h4v1h-4zM47 29h2v1h-2zM52 29h4v1h-4zM8 30h4v1h-4zM13 30h1v1h-1zM17 30h1v1h-1zM45 30h5v1h-5zM52 30h4v1h-4zM8 31h11v1h-11zM45 31h11v1h-11zM8 32h10v1h-10zM46 32h10v1h-10zM8 33h4v1h-4zM13 33h1v1h-1zM50 33h1v1h-1zM52 33h4v1h-4zM8 34h4v1h-4zM52 34h4v1h-4zM8 35h4v1h-4zM52 35h4v1h-4zM8 36h4v1h-4zM52 36h4v1h-4zM9 37h4v1h-4zM52 37h4v1h-4zM9 38h4v1h-4zM52 38h3v1h-3zM9 39h4v1h-4zM51 39h4v1h-4zM9 40h4v1h-4zM17 40h3v1h-3zM43 40h4v1h-4zM51 40h4v1h-4zM10 41h4v1h-4zM18 41h2v1h-2zM44 41h3v1h-3zM50 41h4v1h-4zM10 42h4v1h-4zM18 42h2v1h-2zM45 42h2v1h-2zM50 42h4v1h-4zM10 43h5v1h-5zM21 43h11v1h-11zM35 43h9v1h-9zM46 43h1v1h-1zM48 43h6v1h-6zM11 44h34v1h-34zM47 44h6v1h-6zM11 45h34v1h-34zM46 45h7v1h-7zM12 46h6v1h-6zM24 46h20v1h-20zM45 46h7v1h-7zM13 47h4v1h-4zM31 47h2v1h-2zM44 47h3v1h-3zM31 48h2v1h-2zM43 48h5v1h-5zM20 49h3v1h-3zM31 49h2v1h-2zM41 49h7v1h-7zM20 50h5v1h-5zM30 50h4v1h-4zM39 50h8v1h-8zM20 51h9v1h-9zM31 51h2v1h-2zM35 51h11v1h-11zM20 52h25v1h-25zM22 53h19v1h-19zM25 54h14v1h-14zM29 55h3v1h-3z"/>
</svg>
