<svg xmlns="http://www.w3.org/2000/svg" width="64" height="64" viewBox="0 0 64 64">
  <path fill="#000" d="M27 9h12v1h-12zM24 10h17v1h-17zM22 11h22v1h-22zM19 12h27v1h-27zM18 13h7v1h-7zM31 13h2v1h-2zM38 13h9v1h-9zM18 14h5v1h-5zM30 14h4v1h-4zM35 14h3v1h-3zM40 14h8v1h-8zM18 15h4v1h-4zM31 15h2v1h-2zM35 15h3v1h-3zM41 15h7v1h-7zM31 16h3v1h-3zM35 16h3v1h-3zM40 16h2v1h-2zM44 16h6v1h-6zM13 17h4v1h-4zM31 17h7v1h-7zM40 17h3v1h-3zM45 17h6v1h-6zM13 18h5v1h-5zM31 18h12v1h-12zM46 18h6v1h-6zM12 19h5v1h-5zM32 19h11v1h-11zM47 19h6v1h-6zM11 20h5v1h-5zM18 20h2v1h-2zM39 20h7v1h-7zM48 20h5v1h-5zM11 21h4v1h-4zM18 21h3v1h-3zM40 21h6v1h-6zM48 21h6v1h-6zM11 22h4v1h-4zM18 22h3v1h-3zM41 22h5v1h-5zM49 22h5v1h-5zM10 23h4v1h-4zM19 23h2v1h-2zM42 23h3v1h-3zM50 23h4v1h-4zM10 24h4v1h-4zM43 24h3v1h-3zM47 24h1v1h-1zM50 24h4v1h-4zM10 25h3v1h-3zM44 25h4v1h-4zM51 25h4v1h-4zM9 26h4v1h-4zM15 26h2v1h-2zM44 26h3v1h-3zM51 26h4v1h-4zM9 27h4v1h-4zM14 27h4v1h-4zM44 27h5v1h-5zM51 27h4v1h-4zM9 28h4v1h-4zM14 28h3v1h-3zM45 28h5v1h-5zM51 28h4v1h-4zM9 29h3v1h-3zM45 29h4v1h-4zM51 29h4v1h-4zM9 30h3v1h-3zM14 30h3v1h-3zM45 30h3v1h-3zM51 30h4v1h-4zM8 31h9v1h-9zM45 31h3v1h-3zM51 31h5v1h-5zM8 32h9v1h-9zM45 32h11v1h-11zM8 33h10v1h-10zM45 33h11v1h-11zM8 34h4v1h-4zM15 34h2v1h-2zM46 34h2v1h-2zM51 34h5v1h-5zM9 35h3v1h-3zM16 35h1v1h-1zM51 35h4v1h-4zM9 36h4v1h-4zM15 36h3v1h-3zM46 36h2v1h-2zM51 36h4v1h-4zM9 37h4v1h-4zM14 37h5v1h-5zM45 37h3v1h-3zM51 37h4v1h-4zM9 38h8v1h-8zM45 38h3v1h-3zM51 38h4v1h-4zM10 39h4v1h-4zM50 39h4v1h-4zM10 40h4v1h-4zM18 40h2v1h-2zM50 40h4v1h-4zM11 41h3v1h-3zM17 41h4v1h-4zM43 41h3v1h-3zM49 41h5v1h-5zM11 42h4v1h-4zM17 42h4v1h-4zM43 42h4v1h-4zM49 42h5v1h-5zM11 43h5v1h-5zM17 43h4v1h-4zM43 43h10v1h-10zM12 44h5v1h-5zM18 44h2v1h-2zM21 44h2v1h-2zM40 44h2v1h-2zM44 44h9v1h-9zM12 45h6v1h-6zM21 45h2v1h-2zM38 45h5v1h-5zM46 45h6v1h-6zM13 46h6v1h-6zM37 46h6v1h-6zM45 46h6v1h-6zM14 47h5v1h-5zM31 47h3v1h-3zM35 47h8v1h-8zM44 47h7v1h-7zM15 48h3v1h-3zM20 48h2v1h-2zM31 48h3v1h-3zM35 48h3v1h-3zM42 48h8v1h-8zM16 49h1v1h-1zM19 49h4v1h-4zM31 49h3v1h-3zM35 49h2v1h-2zM41 49h8v1h-8zM19 50h6v1h-6zM30 50h3v1h-3zM37 50h10v1h-10zM19 51h10v1h-10zM31 51h3v1h-3zM35 51h11v1h-11zM20 52h25v1h-25zM23 53h18v1h-18zM25 54h14v1h-14z"/>
</svg>
