<svg xmlns="http://www.w3.org/2000/svg" width="64" height="64" viewBox="0 0 64 64">
  <path fill="#000" d="M12 12h40v1h-40zM10 13h44v1h-44zM9 14h46v1h-46zM8 15h48v1h-48zM8 16h4v1h-4zM30 16h4v1h-4zM52 16h4v1h-4zM8 17h4v1h-4zM28 17h8v1h-8zM53 17h3v1h-3zM8 18h4v1h-4zM27 18h10v1h-10zM54 18h2v1h-2zM8 19h4v1h-4zM26 19h12v1h-12zM53 19h3v1h-3zM8 20h2v1h-2zM26 20h12v1h-12zM53 20h3v1h-3zM8 21h3v1h-3zM26 21h12v1h-12zM53 21h3v1h-3zM8 22h3v1h-3zM26 22h2v1h-2zM30 22h7v1h-7zM53 22h3v1h-3zM8 23h3v1h-3zM26 23h2v1h-2zM30 23h7v1h-7zM53 23h3v1h-3zM8 24h3v1h-3zM26 24h2v1h-2zM31 24h6v1h-6zM53 24h3v1h-3zM8 25h3v1h-3zM27 25h1v1h-1zM31 25h2v1h-2zM53 25h3v1h-3zM8 26h2v1h-2zM53 26h3v1h-3zM8 27h3v1h-3zM53 27h3v1h-3zM8 28h4v1h-4zM53 28h3v1h-3zM8 29h4v1h-4zM53 29h3v1h-3zM8 30h4v1h-4zM53 30h3v1h-3zM8 31h4v1h-4zM53 31h3v1h-3zM8 32h4v1h-4zM53 32h3v1h-3zM8 33h4v1h-4zM53 33h3v1h-3zM8 34h4v1h-4zM53 34h3v1h-3zM8 35h4v1h-4zM53 35h3v1h-3zM8 36h4v1h-4zM30 36h5v1h-5zM53 36h3v1h-3zM8 37h4v1h-4zM29 37h7v1h-7zM53 37h3v1h-3zM8 38h4v1h-4zM27 38h10v1h-10zM53 38h3v1h-3zM8 39h4v1h-4zM27 39h11v1h-11zM53 39h3v1h-3zM8 40h4v1h-4zM27 40h11v1h-11zM53 40h3v1h-3zM8 41h4v1h-4zM26 41h13v1h-13zM53 41h3v1h-3zM8 42h4v1h-4zM26 42h14v1h-14zM53 42h3v1h-3zM8 43h4v1h-4zM26 43h14v1h-14zM53 43h3v1h-3zM8 44h3v1h-3zM26 44h13v1h-13zM53 44h3v1h-3zM8 45h2v1h-2zM26 45h12v1h-12zM54 45h2v1h-2zM8 46h4v1h-4zM28 46h8v1h-8zM52 46h4v1h-4zM8 47h4v1h-4zM31 47h3v1h-3zM52 47h4v1h-4zM8 48h6v1h-6zM31 48h2v1h-2zM50 48h6v1h-6zM9 49h47v1h-47zM10 50h45v1h-45zM11 51h43v1h-43z"/>
</svg>
