<svg xmlns="http://www.w3.org/2000/svg" width="64" height="64" viewBox="0 0 64 64">
  <path fill="#000" d="M25 8h12v1h-12zM22 9h18v1h-18zM20 10h22v1h-22zM18 11h27v1h-27zM16 12h11v1h-11zM36 12h10v1h-10zM15 13h11v1h-11zM37 13h11v1h-11zM14 14h8v1h-8zM24 14h3v1h-3zM36 14h2v1h-2zM41 14h8v1h-8zM13 15h8v1h-8zM24 15h2v1h-2zM35 15h3v1h-3zM42 15h7v1h-7zM13 16h6v1h-6zM25 16h2v1h-2zM36 16h2v1h-2zM44 16h6v1h-6zM12 17h6v1h-6zM25 17h3v1h-3zM35 17h2v1h-2zM45 17h6v1h-6zM11 18h9v1h-9zM25 18h2v1h-2zM34 18h3v1h-3zM44 18h8v1h-8zM11 19h9v1h-9zM26 19h10v1h-10zM44 19h8v1h-8zM10 20h6v1h-6zM17 20h3v1h-3zM25 20h13v1h-13zM43 20h3v1h-3zM48 20h5v1h-5zM10 21h5v1h-5zM18 21h3v1h-3zM25 21h13v1h-13zM42 21h3v1h-3zM48 21h5v1h-5zM10 22h4v1h-4zM19 22h2v1h-2zM23 22h16v1h-16zM42 22h2v1h-2zM49 22h4v1h-4zM9 23h5v1h-5zM22 23h18v1h-18zM49 23h5v1h-5zM9 24h5v1h-5zM21 24h20v1h-20zM49 24h5v1h-5zM9 25h7v1h-7zM21 25h21v1h-21zM47 25h7v1h-7zM8 26h10v1h-10zM19 26h25v1h-25zM45 26h9v1h-9zM8 27h11v1h-11zM20 27h23v1h-23zM44 27h11v1h-11zM8 28h39v1h-39zM51 28h4v1h-4zM8 29h36v1h-36zM52 29h3v1h-3zM8 30h36v1h-36zM51 30h4v1h-4zM8 31h6v1h-6zM15 31h3v1h-3zM19 31h25v1h-25zM51 31h4v1h-4zM8 32h7v1h-7zM16 32h28v1h-28zM51 32h4v1h-4zM8 33h9v1h-9zM18 33h26v1h-26zM51 33h4v1h-4zM8 34h36v1h-36zM52 34h3v1h-3zM8 35h38v1h-38zM51 35h4v1h-4zM8 36h47v1h-47zM8 37h46v1h-46zM9 38h8v1h-8zM20 38h22v1h-22zM45 38h9v1h-9zM9 39h6v1h-6zM20 39h23v1h-23zM48 39h6v1h-6zM9 40h5v1h-5zM18 40h23v1h-23zM43 40h2v1h-2zM49 40h5v1h-5zM9 41h6v1h-6zM17 41h3v1h-3zM21 41h20v1h-20zM43 41h3v1h-3zM48 41h5v1h-5zM10 42h5v1h-5zM16 42h4v1h-4zM22 42h19v1h-19zM43 42h3v1h-3zM48 42h5v1h-5zM10 43h9v1h-9zM23 43h17v1h-17zM44 43h2v1h-2zM47 43h6v1h-6zM10 44h9v1h-9zM24 44h13v1h-13zM44 44h8v1h-8zM11 45h6v1h-6zM21 45h2v1h-2zM26 45h12v1h-12zM46 45h6v1h-6zM12 46h6v1h-6zM21 46h2v1h-2zM27 46h12v1h-12zM45 46h6v1h-6zM12 47h7v1h-7zM20 47h2v1h-2zM27 47h2v1h-2zM33 47h6v1h-6zM44 47h7v1h-7zM13 48h8v1h-8zM26 48h3v1h-3zM33 48h7v1h-7zM42 48h8v1h-8zM14 49h8v1h-8zM26 49h2v1h-2zM33 49h16v1h-16zM15 50h13v1h-13zM33 50h15v1h-15zM16 51h12v1h-12zM33 51h14v1h-14zM18 52h27v1h-27zM20 53h23v1h-23zM22 54h19v1h-19zM25 55h13v1h-13z"/>
</svg>
