<svg xmlns="http://www.w3.org/2000/svg" width="64" height="64" viewBox="0 0 64 64">
  <path fill="#000" d="M12 8h41v1h-41zM10 9h43v1h-43zM10 10h43v1h-43zM10 11h2v1h-2zM50 11h4v1h-4zM10 12h3v1h-3zM51 12h3v1h-3zM10 13h3v1h-3zM52 13h2v1h-2zM10 14h3v1h-3zM51 14h3v1h-3zM10 15h3v1h-3zM51 15h3v1h-3zM10 16h3v1h-3zM51 16h3v1h-3zM10 17h3v1h-3zM51 17h3v1h-3zM10 18h3v1h-3zM51 18h3v1h-3zM10 19h3v1h-3zM19 19h24v1h-24zM51 19h3v1h-3zM10 20h3v1h-3zM19 20h24v1h-24zM51 20h3v1h-3zM10 21h3v1h-3zM19 21h24v1h-24zM51 21h3v1h-3zM10 22h3v1h-3zM19 22h24v1h-24zM51 22h3v1h-3zM10 23h3v1h-3zM19 23h24v1h-24zM51 23h3v1h-3zM10 24h3v1h-3zM51 24h3v1h-3zM10 25h3v1h-3zM51 25h3v1h-3zM10 26h3v1h-3zM51 26h3v1h-3zM10 27h3v1h-3zM51 27h3v1h-3zM10 28h3v1h-3zM52 28h2v1h-2zM10 29h3v1h-3zM52 29h2v1h-2zM10 30h3v1h-3zM20 30h22v1h-22zM51 30h3v1h-3zM10 31h3v1h-3zM19 31h24v1h-24zM50 31h4v1h-4zM10 32h3v1h-3zM19 32h24v1h-24zM50 32h4v1h-4zM10 33h3v1h-3zM20 33h22v1h-22zM50 33h4v1h-4zM10 34h3v1h-3zM50 34h4v1h-4zM10 35h3v1h-3zM50 35h4v1h-4zM10 36h3v1h-3zM50 36h4v1h-4zM10 37h3v1h-3zM50 37h4v1h-4zM10 38h3v1h-3zM50 38h4v1h-4zM10 39h3v1h-3zM50 39h4v1h-4zM10 40h3v1h-3zM19 40h12v1h-12zM41 40h13v1h-13zM10 41h3v1h-3zM19 41h13v1h-13zM40 41h14v1h-14zM10 42h3v1h-3zM19 42h13v1h-13zM38 42h16v1h-16zM10 43h3v1h-3zM19 43h13v1h-13zM38 43h7v1h-7zM50 43h4v1h-4zM10 44h3v1h-3zM19 44h12v1h-12zM38 44h7v1h-7zM50 44h4v1h-4zM10 45h3v1h-3zM38 45h3v1h-3zM49 45h4v1h-4zM10 46h3v1h-3zM36 46h5v1h-5zM46 46h6v1h-6zM10 47h3v1h-3zM36 47h5v1h-5zM46 47h5v1h-5zM10 48h3v1h-3zM36 48h5v1h-5zM44 48h6v1h-6zM10 49h3v1h-3zM36 49h5v1h-5zM44 49h5v1h-5zM10 50h3v1h-3zM36 50h5v1h-5zM44 50h4v1h-4zM10 51h3v1h-3zM36 51h5v1h-5zM43 51h4v1h-4zM10 52h2v1h-2zM36 52h10v1h-10zM10 53h35v1h-35zM10 54h34v1h-34zM12 55h31v1h-31z"/>
</svg>
