<svg xmlns="http://www.w3.org/2000/svg" width="64" height="64" viewBox="0 0 64 64">
  <path fill="#000" d="M11 11h42v1h-42zM10 12h45v1h-45zM9 13h46v1h-46zM9 14h3v1h-3zM52 14h4v1h-4zM8 15h4v1h-4zM52 15h4v1h-4zM8 16h4v1h-4zM52 16h4v1h-4zM8 17h4v1h-4zM52 17h4v1h-4zM8 18h4v1h-4zM52 18h4v1h-4zM8 19h4v1h-4zM52 19h4v1h-4zM8 20h4v1h-4zM52 20h4v1h-4zM8 21h4v1h-4zM52 21h4v1h-4zM8 22h4v1h-4zM52 22h4v1h-4zM8 23h4v1h-4zM38 23h2v1h-2zM52 23h4v1h-4zM8 24h4v1h-4zM38 24h3v1h-3zM52 24h4v1h-4zM8 25h4v1h-4zM37 25h5v1h-5zM52 25h4v1h-4zM8 26h4v1h-4zM36 26h6v1h-6zM52 26h4v1h-4zM8 27h4v1h-4zM21 27h3v1h-3zM36 27h7v1h-7zM52 27h4v1h-4zM8 28h4v1h-4zM21 28h4v1h-4zM35 28h8v1h-8zM52 28h4v1h-4zM8 29h4v1h-4zM21 29h4v1h-4zM34 29h9v1h-9zM52 29h4v1h-4zM8 30h4v1h-4zM20 30h6v1h-6zM33 30h11v1h-11zM52 30h4v1h-4zM8 31h4v1h-4zM19 31h8v1h-8zM33 31h12v1h-12zM52 31h4v1h-4zM8 32h4v1h-4zM19 32h8v1h-8zM32 32h13v1h-13zM52 32h4v1h-4zM8 33h4v1h-4zM18 33h10v1h-10zM32 33h14v1h-14zM52 33h4v1h-4zM8 34h4v1h-4zM17 34h11v1h-11zM31 34h16v1h-16zM52 34h4v1h-4zM8 35h4v1h-4zM17 35h12v1h-12zM30 35h17v1h-17zM52 35h4v1h-4zM8 36h4v1h-4zM16 36h32v1h-32zM52 36h4v1h-4zM8 37h4v1h-4zM15 37h33v1h-33zM52 37h4v1h-4zM8 38h4v1h-4zM14 38h35v1h-35zM52 38h4v1h-4zM8 39h4v1h-4zM14 39h36v1h-36zM52 39h4v1h-4zM8 40h4v1h-4zM13 40h38v1h-38zM52 40h4v1h-4zM8 41h4v1h-4zM13 41h38v1h-38zM52 41h4v1h-4zM8 42h48v1h-48zM8 43h48v1h-48zM8 44h48v1h-48zM8 45h48v1h-48zM9 46h3v1h-3zM52 46h4v1h-4zM9 47h4v1h-4zM52 47h4v1h-4zM9 48h46v1h-46zM9 49h46v1h-46zM10 50h44v1h-44zM12 51h40v1h-40z"/>
</svg>
