<svg xmlns="http://www.w3.org/2000/svg" width="64" height="64" viewBox="0 0 64 64">
  <path fill="#000" d="M11 12h16v1h-16zM9 13h19v1h-19zM9 14h20v1h-20zM8 15h21v1h-21zM8 16h4v1h-4zM25 16h5v1h-5zM8 17h4v1h-4zM26 17h26v1h-26zM8 18h4v1h-4zM26 18h27v1h-27zM8 19h4v1h-4zM27 19h27v1h-27zM8 20h4v1h-4zM50 20h4v1h-4zM8 21h4v1h-4zM51 21h3v1h-3zM8 22h4v1h-4zM51 22h2v1h-2zM8 23h4v1h-4zM16 23h38v1h-38zM8 24h4v1h-4zM15 24h41v1h-41zM8 25h4v1h-4zM14 25h42v1h-42zM8 26h4v1h-4zM13 26h43v1h-43zM8 27h4v1h-4zM13 27h4v1h-4zM52 27h4v1h-4zM8 28h4v1h-4zM13 28h4v1h-4zM53 28h3v1h-3zM8 29h4v1h-4zM13 29h4v1h-4zM54 29h2v1h-2zM8 30h4v1h-4zM14 30h3v1h-3zM52 30h4v1h-4zM8 31h4v1h-4zM15 31h2v1h-2zM52 31h4v1h-4zM8 32h4v1h-4zM14 32h3v1h-3zM52 32h4v1h-4zM8 33h4v1h-4zM15 33h2v1h-2zM52 33h4v1h-4zM8 34h4v1h-4zM15 34h2v1h-2zM52 34h4v1h-4zM8 35h4v1h-4zM15 35h2v1h-2zM52 35h4v1h-4zM8 36h4v1h-4zM14 36h2v1h-2zM52 36h3v1h-3zM8 37h4v1h-4zM15 37h1v1h-1zM52 37h3v1h-3zM8 38h4v1h-4zM51 38h4v1h-4zM8 39h4v1h-4zM51 39h4v1h-4zM8 40h4v1h-4zM51 40h4v1h-4zM8 41h4v1h-4zM51 41h4v1h-4zM8 42h4v1h-4zM51 42h4v1h-4zM8 43h4v1h-4zM51 43h4v1h-4zM8 44h4v1h-4zM51 44h4v1h-4zM8 45h4v1h-4zM51 45h4v1h-4zM8 46h4v1h-4zM50 46h5v1h-5zM8 47h46v1h-46zM9 48h45v1h-45zM9 49h44v1h-44zM11 50h40v1h-40z"/>
</svg>
