<svg xmlns="http://www.w3.org/2000/svg" width="64" height="64" viewBox="0 0 64 64">
  <path fill="#000" d="M27 8h10v1h-10zM23 9h14v1h-14zM40 9h2v1h-2zM21 10h16v1h-16zM39 10h4v1h-4zM19 11h17v1h-17zM38 11h7v1h-7zM18 12h17v1h-17zM37 12h9v1h-9zM17 13h17v1h-17zM36 13h11v1h-11zM16 14h17v1h-17zM34 14h14v1h-14zM14 15h2v1h-2zM17 15h15v1h-15zM34 15h15v1h-15zM14 16h2v1h-2zM17 16h14v1h-14zM33 16h17v1h-17zM13 17h3v1h-3zM17 17h13v1h-13zM32 17h20v1h-20zM12 18h4v1h-4zM17 18h12v1h-12zM31 18h21v1h-21zM11 19h17v1h-17zM31 19h21v1h-21zM11 20h6v1h-6zM18 20h10v1h-10zM36 20h17v1h-17zM10 21h7v1h-7zM19 21h8v1h-8zM37 21h16v1h-16zM10 22h7v1h-7zM18 22h8v1h-8zM42 22h12v1h-12zM9 23h16v1h-16zM42 23h1v1h-1zM49 23h5v1h-5zM9 24h9v1h-9zM19 24h5v1h-5zM41 24h8v1h-8zM9 25h9v1h-9zM20 25h3v1h-3zM41 25h10v1h-10zM9 26h9v1h-9zM20 26h3v1h-3zM41 26h13v1h-13zM8 27h10v1h-10zM20 27h2v1h-2zM41 27h14v1h-14zM8 28h11v1h-11zM20 28h1v1h-1zM42 28h13v1h-13zM8 29h11v1h-11zM43 29h12v1h-12zM8 30h11v1h-11zM43 30h12v1h-12zM8 31h11v1h-11zM43 31h12v1h-12zM8 32h12v1h-12zM44 32h11v1h-11zM8 33h12v1h-12zM44 33h11v1h-11zM8 34h12v1h-12zM44 34h11v1h-11zM8 35h13v1h-13zM44 35h11v1h-11zM10 36h12v1h-12zM42 36h1v1h-1zM45 36h10v1h-10zM14 37h8v1h-8zM41 37h2v1h-2zM45 37h9v1h-9zM9 38h3v1h-3zM17 38h6v1h-6zM40 38h3v1h-3zM45 38h9v1h-9zM9 39h6v1h-6zM19 39h3v1h-3zM39 39h5v1h-5zM46 39h8v1h-8zM9 40h10v1h-10zM39 40h6v1h-6zM46 40h8v1h-8zM10 41h12v1h-12zM38 41h6v1h-6zM46 41h8v1h-8zM10 42h18v1h-18zM37 42h8v1h-8zM46 42h7v1h-7zM10 43h19v1h-19zM36 43h17v1h-17zM11 44h23v1h-23zM35 44h11v1h-11zM47 44h5v1h-5zM12 45h21v1h-21zM34 45h12v1h-12zM47 45h4v1h-4zM13 46h19v1h-19zM33 46h13v1h-13zM47 46h3v1h-3zM13 47h18v1h-18zM32 47h15v1h-15zM48 47h2v1h-2zM14 48h16v1h-16zM31 48h16v1h-16zM15 49h14v1h-14zM30 49h17v1h-17zM16 50h11v1h-11zM29 50h18v1h-18zM17 51h9v1h-9zM28 51h18v1h-18zM19 52h6v1h-6zM27 52h18v1h-18zM20 53h4v1h-4zM25 53h18v1h-18zM25 54h16v1h-16zM27 55h10v1h-10z"/>
</svg>
