<svg xmlns="http://www.w3.org/2000/svg" width="64" height="64" viewBox="0 0 64 64">
  <path fill="#000" d="M8 11h12v1h-12zM44 11h11v1h-11zM8 12h12v1h-12zM44 12h11v1h-11zM8 13h11v1h-11zM45 13h10v1h-10zM8 14h3v1h-3zM46 14h1v1h-1zM48 14h7v1h-7zM8 15h3v1h-3zM52 15h3v1h-3zM8 16h3v1h-3zM30 16h4v1h-4zM52 16h3v1h-3zM8 17h3v1h-3zM27 17h9v1h-9zM52 17h3v1h-3zM8 18h3v1h-3zM26 18h11v1h-11zM52 18h3v1h-3zM8 19h3v1h-3zM25 19h13v1h-13zM52 19h3v1h-3zM8 20h3v1h-3zM25 20h14v1h-14zM52 20h3v1h-3zM8 21h3v1h-3zM24 21h15v1h-15zM52 21h3v1h-3zM8 22h3v1h-3zM24 22h16v1h-16zM52 22h3v1h-3zM8 23h2v1h-2zM24 23h16v1h-16zM52 23h3v1h-3zM23 24h17v1h-17zM23 25h17v1h-17zM24 26h16v1h-16zM24 27h16v1h-16zM24 28h15v1h-15zM25 29h14v1h-14zM25 30h14v1h-14zM25 31h13v1h-13zM26 32h11v1h-11zM28 33h8v1h-8zM25 34h13v1h-13zM24 35h15v1h-15zM23 36h17v1h-17zM21 37h20v1h-20zM20 38h23v1h-23zM20 39h23v1h-23zM8 40h2v1h-2zM20 40h23v1h-23zM52 40h3v1h-3zM8 41h3v1h-3zM20 41h23v1h-23zM52 41h4v1h-4zM8 42h3v1h-3zM20 42h23v1h-23zM52 42h4v1h-4zM8 43h3v1h-3zM20 43h24v1h-24zM52 43h3v1h-3zM8 44h3v1h-3zM20 44h24v1h-24zM52 44h3v1h-3zM8 45h3v1h-3zM20 45h23v1h-23zM52 45h3v1h-3zM8 46h3v1h-3zM21 46h21v1h-21zM52 46h3v1h-3zM8 47h3v1h-3zM24 47h16v1h-16zM52 47h3v1h-3zM8 48h3v1h-3zM52 48h3v1h-3zM8 49h3v1h-3zM51 49h4v1h-4zM8 50h11v1h-11zM45 50h10v1h-10zM8 51h12v1h-12zM44 51h11v1h-11zM8 52h12v1h-12zM44 52h11v1h-11z"/>
</svg>
