<svg xmlns="http://www.w3.org/2000/svg" width="64" height="64" viewBox="0 0 64 64">
  <path fill="#000" d="M28 16h6v1h-6zM23 17h16v1h-16zM20 18h22v1h-22zM19 19h25v1h-25zM18 20h27v1h-27zM16 21h31v1h-31zM14 22h14v1h-14zM35 22h13v1h-13zM13 23h12v1h-12zM38 23h11v1h-11zM13 24h11v1h-11zM39 24h11v1h-11zM12 25h11v1h-11zM28 25h6v1h-6zM40 25h11v1h-11zM10 26h12v1h-12zM27 26h8v1h-8zM40 26h12v1h-12zM9 27h12v1h-12zM26 27h10v1h-10zM40 27h13v1h-13zM9 28h12v1h-12zM26 28h11v1h-11zM41 28h13v1h-13zM8 29h13v1h-13zM24 29h14v1h-14zM41 29h14v1h-14zM8 30h13v1h-13zM24 30h14v1h-14zM41 30h15v1h-15zM8 31h13v1h-13zM24 31h14v1h-14zM41 31h15v1h-15zM8 32h13v1h-13zM24 32h14v1h-14zM41 32h15v1h-15zM8 33h13v1h-13zM24 33h14v1h-14zM41 33h14v1h-14zM9 34h12v1h-12zM26 34h11v1h-11zM41 34h13v1h-13zM9 35h12v1h-12zM26 35h11v1h-11zM41 35h12v1h-12zM10 36h12v1h-12zM26 36h11v1h-11zM40 36h12v1h-12zM12 37h11v1h-11zM27 37h9v1h-9zM40 37h11v1h-11zM13 38h10v1h-10zM30 38h3v1h-3zM40 38h10v1h-10zM13 39h11v1h-11zM30 39h2v1h-2zM39 39h10v1h-10zM14 40h11v1h-11zM38 40h10v1h-10zM16 41h11v1h-11zM35 41h12v1h-12zM17 42h11v1h-11zM35 42h11v1h-11zM17 43h28v1h-28zM20 44h23v1h-23zM22 45h19v1h-19zM26 46h10v1h-10z"/>
</svg>
