<svg xmlns="http://www.w3.org/2000/svg" width="64" height="64" viewBox="0 0 64 64">
  <path fill="#000" d="M31 8h3v1h-3zM31 9h3v1h-3zM31 10h3v1h-3zM31 11h3v1h-3zM31 12h3v1h-3zM31 13h3v1h-3zM30 14h4v1h-4zM15 15h4v1h-4zM30 15h4v1h-4zM46 15h3v1h-3zM15 16h5v1h-5zM30 16h4v1h-4zM45 16h5v1h-5zM15 17h6v1h-6zM30 17h4v1h-4zM44 17h5v1h-5zM16 18h6v1h-6zM43 18h5v1h-5zM17 19h5v1h-5zM42 19h5v1h-5zM18 20h4v1h-4zM42 20h4v1h-4zM19 21h2v1h-2zM29 21h8v1h-8zM43 21h2v1h-2zM27 22h12v1h-12zM24 23h16v1h-16zM24 24h17v1h-17zM23 25h6v1h-6zM36 25h5v1h-5zM22 26h5v1h-5zM37 26h5v1h-5zM22 27h4v1h-4zM38 27h4v1h-4zM22 28h4v1h-4zM39 28h3v1h-3zM22 29h3v1h-3zM39 29h3v1h-3zM21 30h4v1h-4zM39 30h5v1h-5zM8 31h11v1h-11zM21 31h4v1h-4zM39 31h5v1h-5zM47 31h8v1h-8zM8 32h11v1h-11zM21 32h4v1h-4zM39 32h5v1h-5zM46 32h9v1h-9zM9 33h10v1h-10zM22 33h3v1h-3zM39 33h5v1h-5zM46 33h9v1h-9zM22 34h3v1h-3zM39 34h5v1h-5zM22 35h4v1h-4zM39 35h3v1h-3zM22 36h4v1h-4zM38 36h4v1h-4zM22 37h5v1h-5zM37 37h5v1h-5zM23 38h6v1h-6zM36 38h6v1h-6zM23 39h18v1h-18zM24 40h16v1h-16zM25 41h14v1h-14zM28 42h9v1h-9zM18 43h4v1h-4zM42 43h3v1h-3zM17 44h5v1h-5zM42 44h4v1h-4zM17 45h5v1h-5zM42 45h5v1h-5zM16 46h5v1h-5zM31 46h2v1h-2zM43 46h5v1h-5zM15 47h5v1h-5zM31 47h3v1h-3zM44 47h5v1h-5zM15 48h4v1h-4zM30 48h4v1h-4zM45 48h4v1h-4zM15 49h3v1h-3zM30 49h4v1h-4zM46 49h3v1h-3zM30 50h4v1h-4zM30 51h4v1h-4zM30 52h4v1h-4zM30 53h4v1h-4zM30 54h4v1h-4zM30 55h4v1h-4z"/>
</svg>
