<svg xmlns="http://www.w3.org/2000/svg" width="64" height="64" viewBox="0 0 64 64">
  <path fill="#000" d="M10 13h44v1h-44zM9 14h3v1h-3zM13 14h1v1h-1zM51 14h1v1h-1zM53 14h2v1h-2zM8 15h3v1h-3zM54 15h2v1h-2zM8 16h2v1h-2zM55 16h1v1h-1zM8 17h1v1h-1zM54 17h2v1h-2zM8 18h2v1h-2zM55 18h1v1h-1zM8 19h1v1h-1zM55 19h1v1h-1zM8 20h1v1h-1zM55 20h1v1h-1zM8 21h1v1h-1zM55 21h1v1h-1zM8 22h1v1h-1zM55 22h1v1h-1zM8 23h1v1h-1zM16 23h2v1h-2zM23 23h3v1h-3zM31 23h3v1h-3zM36 23h9v1h-9zM55 23h1v1h-1zM8 24h1v1h-1zM15 24h4v1h-4zM23 24h4v1h-4zM31 24h3v1h-3zM36 24h10v1h-10zM55 24h1v1h-1zM8 25h1v1h-1zM16 25h4v1h-4zM23 25h4v1h-4zM30 25h4v1h-4zM36 25h11v1h-11zM55 25h1v1h-1zM8 26h1v1h-1zM17 26h2v1h-2zM22 26h5v1h-5zM30 26h4v1h-4zM36 26h4v1h-4zM43 26h4v1h-4zM55 26h1v1h-1zM8 27h1v1h-1zM17 27h3v1h-3zM22 27h5v1h-5zM30 27h4v1h-4zM36 27h4v1h-4zM43 27h4v1h-4zM55 27h1v1h-1zM8 28h1v1h-1zM17 28h2v1h-2zM22 28h6v1h-6zM30 28h4v1h-4zM36 28h4v1h-4zM43 28h4v1h-4zM55 28h1v1h-1zM8 29h1v1h-1zM17 29h3v1h-3zM22 29h6v1h-6zM30 29h3v1h-3zM36 29h11v1h-11zM55 29h1v1h-1zM8 30h1v1h-1zM17 30h4v1h-4zM22 30h3v1h-3zM26 30h2v1h-2zM30 30h3v1h-3zM36 30h10v1h-10zM55 30h1v1h-1zM8 31h1v1h-1zM18 31h3v1h-3zM22 31h2v1h-2zM25 31h3v1h-3zM30 31h3v1h-3zM36 31h9v1h-9zM55 31h1v1h-1zM8 32h1v1h-1zM18 32h2v1h-2zM21 32h3v1h-3zM25 32h3v1h-3zM30 32h3v1h-3zM36 32h10v1h-10zM55 32h1v1h-1zM8 33h1v1h-1zM18 33h6v1h-6zM25 33h8v1h-8zM36 33h4v1h-4zM42 33h5v1h-5zM55 33h1v1h-1zM8 34h1v1h-1zM18 34h6v1h-6zM26 34h7v1h-7zM36 34h4v1h-4zM44 34h3v1h-3zM55 34h1v1h-1zM8 35h1v1h-1zM18 35h6v1h-6zM27 35h5v1h-5zM36 35h4v1h-4zM45 35h2v1h-2zM55 35h1v1h-1zM8 36h1v1h-1zM18 36h6v1h-6zM27 36h5v1h-5zM36 36h4v1h-4zM44 36h3v1h-3zM55 36h1v1h-1zM8 37h1v1h-1zM19 37h4v1h-4zM27 37h5v1h-5zM36 37h11v1h-11zM55 37h1v1h-1zM8 38h1v1h-1zM19 38h4v1h-4zM27 38h5v1h-5zM36 38h11v1h-11zM55 38h1v1h-1zM8 39h1v1h-1zM19 39h4v1h-4zM27 39h5v1h-5zM36 39h10v1h-10zM55 39h1v1h-1zM8 40h1v1h-1zM20 40h2v1h-2zM37 40h4v1h-4zM55 40h1v1h-1zM8 41h1v1h-1zM55 41h1v1h-1zM8 42h1v1h-1zM55 42h1v1h-1zM8 43h1v1h-1zM55 43h1v1h-1zM8 44h1v1h-1zM55 44h1v1h-1zM8 45h2v1h-2zM54 45h2v1h-2zM8 46h1v1h-1zM55 46h1v1h-1zM8 47h2v1h-2zM54 47h2v1h-2zM9 48h2v1h-2zM12 48h1v1h-1zM51 48h1v1h-1zM53 48h3v1h-3zM10 49h45v1h-45z"/>
</svg>
