<svg xmlns="http://www.w3.org/2000/svg" width="64" height="64" viewBox="0 0 64 64">
  <path fill="#000" d="M10 14h44v1h-44zM9 15h46v1h-46zM9 16h46v1h-46zM8 17h3v1h-3zM53 17h3v1h-3zM8 18h3v1h-3zM53 18h3v1h-3zM8 19h3v1h-3zM53 19h3v1h-3zM8 20h3v1h-3zM53 20h3v1h-3zM8 21h3v1h-3zM29 21h6v1h-6zM53 21h3v1h-3zM8 22h3v1h-3zM15 22h4v1h-4zM23 22h3v1h-3zM29 22h6v1h-6zM38 22h4v1h-4zM45 22h4v1h-4zM53 22h3v1h-3zM8 23h3v1h-3zM15 23h4v1h-4zM23 23h4v1h-4zM29 23h6v1h-6zM37 23h5v1h-5zM45 23h4v1h-4zM53 23h3v1h-3zM8 24h3v1h-3zM15 24h4v1h-4zM23 24h4v1h-4zM29 24h6v1h-6zM37 24h5v1h-5zM45 24h4v1h-4zM53 24h3v1h-3zM8 25h3v1h-3zM15 25h4v1h-4zM23 25h4v1h-4zM29 25h6v1h-6zM37 25h5v1h-5zM45 25h4v1h-4zM53 25h3v1h-3zM8 26h3v1h-3zM15 26h1v1h-1zM17 26h2v1h-2zM23 26h3v1h-3zM31 26h3v1h-3zM38 26h3v1h-3zM46 26h1v1h-1zM48 26h1v1h-1zM53 26h3v1h-3zM8 27h3v1h-3zM53 27h3v1h-3zM8 28h3v1h-3zM53 28h3v1h-3zM8 29h3v1h-3zM30 29h5v1h-5zM53 29h3v1h-3zM8 30h3v1h-3zM15 30h4v1h-4zM22 30h4v1h-4zM29 30h6v1h-6zM38 30h4v1h-4zM45 30h4v1h-4zM53 30h3v1h-3zM8 31h3v1h-3zM15 31h4v1h-4zM22 31h5v1h-5zM29 31h6v1h-6zM37 31h5v1h-5zM45 31h4v1h-4zM53 31h3v1h-3zM8 32h3v1h-3zM15 32h4v1h-4zM22 32h5v1h-5zM29 32h6v1h-6zM37 32h5v1h-5zM45 32h4v1h-4zM53 32h3v1h-3zM8 33h3v1h-3zM15 33h4v1h-4zM22 33h5v1h-5zM29 33h6v1h-6zM37 33h5v1h-5zM45 33h4v1h-4zM53 33h3v1h-3zM8 34h3v1h-3zM15 34h4v1h-4zM22 34h4v1h-4zM29 34h6v1h-6zM38 34h4v1h-4zM45 34h4v1h-4zM53 34h3v1h-3zM8 35h3v1h-3zM30 35h1v1h-1zM33 35h1v1h-1zM53 35h3v1h-3zM8 36h3v1h-3zM53 36h3v1h-3zM8 37h3v1h-3zM53 37h3v1h-3zM8 38h3v1h-3zM15 38h4v1h-4zM23 38h3v1h-3zM30 38h5v1h-5zM38 38h4v1h-4zM45 38h4v1h-4zM53 38h3v1h-3zM8 39h3v1h-3zM15 39h4v1h-4zM22 39h5v1h-5zM29 39h6v1h-6zM37 39h5v1h-5zM45 39h4v1h-4zM53 39h3v1h-3zM8 40h3v1h-3zM15 40h4v1h-4zM22 40h5v1h-5zM30 40h5v1h-5zM37 40h5v1h-5zM45 40h4v1h-4zM53 40h3v1h-3zM8 41h3v1h-3zM15 41h4v1h-4zM23 41h4v1h-4zM30 41h5v1h-5zM37 41h5v1h-5zM45 41h4v1h-4zM53 41h3v1h-3zM8 42h3v1h-3zM15 42h4v1h-4zM23 42h3v1h-3zM29 42h6v1h-6zM38 42h4v1h-4zM45 42h4v1h-4zM53 42h3v1h-3zM8 43h3v1h-3zM30 43h1v1h-1zM33 43h1v1h-1zM53 43h3v1h-3zM8 44h3v1h-3zM53 44h3v1h-3zM8 45h3v1h-3zM53 45h3v1h-3zM8 46h3v1h-3zM53 46h3v1h-3zM8 47h3v1h-3zM53 47h3v1h-3zM9 48h46v1h-46zM9 49h46v1h-46z"/>
</svg>
