<svg xmlns="http://www.w3.org/2000/svg" width="64" height="64" viewBox="0 0 64 64">
  <path fill="#000" d="M9 13h46v1h-46zM8 14h48v1h-48zM8 15h48v1h-48zM8 16h3v1h-3zM53 16h3v1h-3zM8 17h3v1h-3zM53 17h3v1h-3zM8 18h3v1h-3zM53 18h3v1h-3zM8 19h3v1h-3zM14 19h4v1h-4zM47 19h3v1h-3zM53 19h3v1h-3zM8 20h3v1h-3zM13 20h5v1h-5zM47 20h4v1h-4zM53 20h3v1h-3zM8 21h3v1h-3zM13 21h5v1h-5zM47 21h4v1h-4zM53 21h3v1h-3zM8 22h3v1h-3zM13 22h4v1h-4zM47 22h4v1h-4zM53 22h3v1h-3zM8 23h3v1h-3zM53 23h3v1h-3zM8 24h3v1h-3zM53 24h3v1h-3zM8 25h3v1h-3zM53 25h3v1h-3zM8 26h3v1h-3zM53 26h3v1h-3zM8 27h3v1h-3zM35 27h2v1h-2zM53 27h3v1h-3zM8 28h3v1h-3zM28 28h8v1h-8zM53 28h3v1h-3zM8 29h3v1h-3zM28 29h8v1h-8zM53 29h3v1h-3zM8 30h3v1h-3zM28 30h2v1h-2zM34 30h2v1h-2zM53 30h3v1h-3zM8 31h3v1h-3zM28 31h2v1h-2zM34 31h2v1h-2zM53 31h3v1h-3zM8 32h3v1h-3zM28 32h2v1h-2zM34 32h2v1h-2zM53 32h3v1h-3zM8 33h3v1h-3zM28 33h2v1h-2zM34 33h2v1h-2zM53 33h3v1h-3zM8 34h3v1h-3zM28 34h8v1h-8zM53 34h3v1h-3zM8 35h3v1h-3zM28 35h8v1h-8zM53 35h3v1h-3zM8 36h3v1h-3zM53 36h3v1h-3zM8 37h3v1h-3zM53 37h3v1h-3zM8 38h3v1h-3zM53 38h3v1h-3zM8 39h3v1h-3zM53 39h3v1h-3zM8 40h3v1h-3zM53 40h3v1h-3zM8 41h3v1h-3zM13 41h5v1h-5zM46 41h5v1h-5zM53 41h3v1h-3zM8 42h3v1h-3zM13 42h5v1h-5zM46 42h5v1h-5zM53 42h3v1h-3zM8 43h3v1h-3zM13 43h4v1h-4zM47 43h4v1h-4zM53 43h3v1h-3zM8 44h3v1h-3zM14 44h3v1h-3zM47 44h3v1h-3zM53 44h3v1h-3zM8 45h3v1h-3zM53 45h3v1h-3zM8 46h3v1h-3zM53 46h3v1h-3zM8 47h3v1h-3zM53 47h3v1h-3zM8 48h48v1h-48zM8 49h47v1h-47zM9 50h46v1h-46z"/>
</svg>
