<svg xmlns="http://www.w3.org/2000/svg" width="64" height="64" viewBox="0 0 64 64">
  <path fill="#000" d="M13 23h3v1h-3zM23 23h9v1h-9zM38 23h17v1h-17zM12 24h5v1h-5zM23 24h9v1h-9zM37 24h19v1h-19zM12 25h5v1h-5zM23 25h9v1h-9zM37 25h2v1h-2zM40 25h13v1h-13zM54 25h2v1h-2zM12 26h6v1h-6zM23 26h4v1h-4zM37 26h2v1h-2zM40 26h16v1h-16zM12 27h6v1h-6zM23 27h4v1h-4zM37 27h2v1h-2zM40 27h1v1h-1zM52 27h4v1h-4zM11 28h3v1h-3zM15 28h3v1h-3zM23 28h4v1h-4zM37 28h2v1h-2zM40 28h1v1h-1zM52 28h4v1h-4zM11 29h3v1h-3zM15 29h3v1h-3zM23 29h4v1h-4zM37 29h2v1h-2zM40 29h1v1h-1zM52 29h4v1h-4zM10 30h4v1h-4zM15 30h4v1h-4zM23 30h8v1h-8zM37 30h2v1h-2zM40 30h1v1h-1zM52 30h4v1h-4zM10 31h4v1h-4zM16 31h3v1h-3zM23 31h8v1h-8zM37 31h2v1h-2zM40 31h1v1h-1zM52 31h4v1h-4zM10 32h3v1h-3zM16 32h3v1h-3zM23 32h8v1h-8zM37 32h2v1h-2zM40 32h1v1h-1zM52 32h4v1h-4zM10 33h3v1h-3zM16 33h4v1h-4zM23 33h4v1h-4zM37 33h2v1h-2zM40 33h1v1h-1zM52 33h4v1h-4zM10 34h10v1h-10zM23 34h3v1h-3zM37 34h2v1h-2zM40 34h1v1h-1zM52 34h4v1h-4zM9 35h11v1h-11zM23 35h3v1h-3zM37 35h2v1h-2zM40 35h1v1h-1zM52 35h4v1h-4zM9 36h11v1h-11zM23 36h3v1h-3zM37 36h2v1h-2zM40 36h1v1h-1zM52 36h4v1h-4zM9 37h3v1h-3zM17 37h3v1h-3zM23 37h3v1h-3zM37 37h2v1h-2zM40 37h16v1h-16zM8 38h4v1h-4zM17 38h4v1h-4zM23 38h3v1h-3zM37 38h2v1h-2zM41 38h12v1h-12zM54 38h2v1h-2zM8 39h4v1h-4zM18 39h3v1h-3zM23 39h3v1h-3zM37 39h19v1h-19zM8 40h3v1h-3zM18 40h3v1h-3zM23 40h3v1h-3zM38 40h17v1h-17z"/>
</svg>
