<svg xmlns="http://www.w3.org/2000/svg" width="64" height="64" viewBox="0 0 64 64">
  <path fill="#000" d="M8 14h16v1h-16zM41 14h15v1h-15zM8 15h16v1h-16zM41 15h15v1h-15zM8 16h3v1h-3zM41 16h2v1h-2zM53 16h3v1h-3zM8 17h3v1h-3zM53 17h3v1h-3zM8 18h3v1h-3zM42 18h2v1h-2zM53 18h3v1h-3zM8 19h3v1h-3zM42 19h3v1h-3zM53 19h3v1h-3zM8 20h3v1h-3zM43 20h3v1h-3zM53 20h3v1h-3zM8 21h3v1h-3zM17 21h22v1h-22zM43 21h4v1h-4zM53 21h3v1h-3zM8 22h3v1h-3zM16 22h24v1h-24zM44 22h3v1h-3zM53 22h3v1h-3zM8 23h3v1h-3zM16 23h24v1h-24zM46 23h2v1h-2zM53 23h3v1h-3zM8 24h3v1h-3zM16 24h10v1h-10zM29 24h11v1h-11zM46 24h3v1h-3zM53 24h3v1h-3zM8 25h3v1h-3zM16 25h10v1h-10zM29 25h11v1h-11zM47 25h3v1h-3zM53 25h3v1h-3zM8 26h3v1h-3zM16 26h10v1h-10zM30 26h10v1h-10zM48 26h3v1h-3zM53 26h3v1h-3zM8 27h3v1h-3zM16 27h9v1h-9zM30 27h10v1h-10zM49 27h3v1h-3zM8 28h3v1h-3zM16 28h9v1h-9zM27 28h1v1h-1zM31 28h9v1h-9zM49 28h3v1h-3zM8 29h3v1h-3zM16 29h9v1h-9zM27 29h1v1h-1zM31 29h9v1h-9zM50 29h3v1h-3zM8 30h3v1h-3zM16 30h8v1h-8zM26 30h3v1h-3zM31 30h9v1h-9zM51 30h1v1h-1zM8 31h3v1h-3zM16 31h8v1h-8zM26 31h3v1h-3zM32 31h8v1h-8zM8 32h3v1h-3zM16 32h8v1h-8zM26 32h3v1h-3zM32 32h8v1h-8zM8 33h3v1h-3zM16 33h7v1h-7zM25 33h5v1h-5zM32 33h8v1h-8zM8 34h3v1h-3zM16 34h7v1h-7zM25 34h5v1h-5zM33 34h7v1h-7zM8 35h3v1h-3zM16 35h6v1h-6zM32 35h8v1h-8zM9 36h2v1h-2zM16 36h6v1h-6zM33 36h7v1h-7zM9 37h2v1h-2zM16 37h6v1h-6zM24 37h7v1h-7zM33 37h7v1h-7zM53 37h3v1h-3zM9 38h2v1h-2zM16 38h6v1h-6zM24 38h7v1h-7zM33 38h7v1h-7zM53 38h3v1h-3zM9 39h2v1h-2zM16 39h6v1h-6zM24 39h8v1h-8zM34 39h6v1h-6zM53 39h3v1h-3zM9 40h2v1h-2zM16 40h5v1h-5zM23 40h8v1h-8zM34 40h6v1h-6zM53 40h3v1h-3zM9 41h2v1h-2zM16 41h24v1h-24zM53 41h3v1h-3zM9 42h2v1h-2zM16 42h24v1h-24zM53 42h3v1h-3zM9 43h4v1h-4zM16 43h23v1h-23zM53 43h3v1h-3zM12 44h2v1h-2zM53 44h3v1h-3zM12 45h2v1h-2zM53 45h3v1h-3zM12 46h2v1h-2zM53 46h3v1h-3zM12 47h2v1h-2zM15 47h41v1h-41zM12 48h2v1h-2zM15 48h41v1h-41z"/>
</svg>
