<svg xmlns="http://www.w3.org/2000/svg" width="64" height="64" viewBox="0 0 64 64">
  <path fill="#000" d="M8 23h8v1h-8zM20 23h3v1h-3zM29 23h3v1h-3zM35 23h3v1h-3zM46 23h8v1h-8zM8 24h9v1h-9zM20 24h3v1h-3zM29 24h3v1h-3zM35 24h3v1h-3zM46 24h9v1h-9zM8 25h9v1h-9zM20 25h3v1h-3zM29 25h3v1h-3zM35 25h3v1h-3zM46 25h10v1h-10zM8 26h3v1h-3zM14 26h4v1h-4zM20 26h3v1h-3zM29 26h3v1h-3zM35 26h3v1h-3zM46 26h3v1h-3zM53 26h3v1h-3zM8 27h3v1h-3zM14 27h4v1h-4zM20 27h3v1h-3zM29 27h3v1h-3zM35 27h3v1h-3zM46 27h3v1h-3zM53 27h3v1h-3zM8 28h3v1h-3zM14 28h4v1h-4zM20 28h3v1h-3zM29 28h3v1h-3zM35 28h3v1h-3zM46 28h3v1h-3zM53 28h3v1h-3zM8 29h3v1h-3zM13 29h4v1h-4zM20 29h3v1h-3zM29 29h3v1h-3zM35 29h3v1h-3zM46 29h3v1h-3zM52 29h4v1h-4zM8 30h8v1h-8zM20 30h3v1h-3zM29 30h3v1h-3zM35 30h3v1h-3zM46 30h9v1h-9zM8 31h8v1h-8zM20 31h3v1h-3zM29 31h3v1h-3zM35 31h3v1h-3zM46 31h9v1h-9zM8 32h10v1h-10zM20 32h3v1h-3zM29 32h3v1h-3zM35 32h3v1h-3zM46 32h3v1h-3zM50 32h6v1h-6zM8 33h3v1h-3zM14 33h4v1h-4zM20 33h3v1h-3zM29 33h3v1h-3zM35 33h3v1h-3zM46 33h3v1h-3zM53 33h3v1h-3zM8 34h3v1h-3zM15 34h3v1h-3zM20 34h3v1h-3zM29 34h3v1h-3zM35 34h3v1h-3zM46 34h3v1h-3zM53 34h3v1h-3zM8 35h3v1h-3zM15 35h3v1h-3zM20 35h4v1h-4zM29 35h3v1h-3zM35 35h3v1h-3zM46 35h3v1h-3zM53 35h3v1h-3zM8 36h3v1h-3zM14 36h4v1h-4zM20 36h4v1h-4zM29 36h3v1h-3zM35 36h3v1h-3zM46 36h3v1h-3zM53 36h3v1h-3zM8 37h10v1h-10zM21 37h11v1h-11zM35 37h9v1h-9zM46 37h10v1h-10zM8 38h9v1h-9zM21 38h10v1h-10zM35 38h9v1h-9zM46 38h10v1h-10zM8 39h9v1h-9zM22 39h8v1h-8zM35 39h9v1h-9zM46 39h9v1h-9z"/>
</svg>
