<svg xmlns="http://www.w3.org/2000/svg" width="64" height="64" viewBox="0 0 64 64">
  <path fill="#000" d="M8 14h3v1h-3zM55 14h1v1h-1zM8 15h11v1h-11zM45 15h11v1h-11zM8 16h11v1h-11zM46 16h10v1h-10zM8 17h3v1h-3zM53 17h3v1h-3zM8 18h3v1h-3zM54 18h2v1h-2zM8 19h3v1h-3zM54 19h2v1h-2zM8 20h3v1h-3zM54 20h2v1h-2zM8 21h3v1h-3zM54 21h2v1h-2zM8 22h3v1h-3zM16 22h32v1h-32zM54 22h2v1h-2zM8 23h3v1h-3zM16 23h33v1h-33zM54 23h2v1h-2zM8 24h3v1h-3zM16 24h33v1h-33zM53 24h3v1h-3zM16 31h33v1h-33zM16 32h33v1h-33zM16 33h33v1h-33zM8 39h2v1h-2zM17 39h31v1h-31zM54 39h2v1h-2zM8 40h3v1h-3zM16 40h33v1h-33zM54 40h2v1h-2zM9 41h2v1h-2zM16 41h32v1h-32zM54 41h2v1h-2zM9 42h2v1h-2zM17 42h22v1h-22zM40 42h7v1h-7zM54 42h2v1h-2zM9 43h2v1h-2zM54 43h2v1h-2zM9 44h2v1h-2zM54 44h2v1h-2zM9 45h2v1h-2zM54 45h2v1h-2zM9 46h2v1h-2zM54 46h2v1h-2zM9 47h2v1h-2zM53 47h3v1h-3zM9 48h10v1h-10zM45 48h11v1h-11zM8 49h11v1h-11zM45 49h11v1h-11z"/>
</svg>
