<svg xmlns="http://www.w3.org/2000/svg" width="64" height="64" viewBox="0 0 64 64">
  <path fill="#000" d="M24 12h2v1h-2zM19 13h14v1h-14zM49 13h7v1h-7zM17 14h18v1h-18zM48 14h8v1h-8zM16 15h19v1h-19zM47 15h9v1h-9zM15 16h19v1h-19zM45 16h11v1h-11zM14 17h20v1h-20zM44 17h12v1h-12zM13 18h12v1h-12zM29 18h5v1h-5zM43 18h13v1h-13zM12 19h10v1h-10zM32 19h2v1h-2zM42 19h14v1h-14zM11 20h8v1h-8zM41 20h15v1h-15zM10 21h8v1h-8zM42 21h6v1h-6zM49 21h7v1h-7zM10 22h8v1h-8zM42 22h4v1h-4zM49 22h7v1h-7zM10 23h7v1h-7zM43 23h2v1h-2zM49 23h7v1h-7zM9 24h8v1h-8zM44 24h1v1h-1zM49 24h7v1h-7zM9 25h7v1h-7zM49 25h7v1h-7zM9 26h7v1h-7zM49 26h7v1h-7zM8 27h8v1h-8zM49 27h7v1h-7zM8 28h8v1h-8zM49 28h7v1h-7zM8 29h7v1h-7zM49 29h7v1h-7zM8 30h7v1h-7zM49 30h7v1h-7zM8 31h7v1h-7zM49 31h7v1h-7zM8 32h7v1h-7zM49 32h7v1h-7zM8 33h7v1h-7zM49 33h7v1h-7zM8 34h7v1h-7zM49 34h7v1h-7zM8 35h8v1h-8zM49 35h7v1h-7zM8 36h8v1h-8zM49 36h7v1h-7zM9 37h7v1h-7zM49 37h7v1h-7zM9 38h7v1h-7zM49 38h7v1h-7zM9 39h8v1h-8zM49 39h7v1h-7zM9 40h8v1h-8zM49 40h7v1h-7zM10 41h7v1h-7zM49 41h7v1h-7zM10 42h8v1h-8zM49 42h7v1h-7zM11 43h8v1h-8zM49 43h7v1h-7zM12 44h8v1h-8zM32 44h2v1h-2zM49 44h7v1h-7zM12 45h12v1h-12zM29 45h5v1h-5zM49 45h7v1h-7zM12 46h22v1h-22zM49 46h7v1h-7zM13 47h21v1h-21zM49 47h7v1h-7zM15 48h19v1h-19zM49 48h7v1h-7zM17 49h17v1h-17zM49 49h7v1h-7zM19 50h15v1h-15zM49 50h7v1h-7zM22 51h8v1h-8z"/>
</svg>
