<svg xmlns="http://www.w3.org/2000/svg" width="64" height="64" viewBox="0 0 64 64">
  <path fill="#000" d="M8 14h47v1h-47zM8 15h4v1h-4zM51 15h5v1h-5zM8 16h2v1h-2zM53 16h3v1h-3zM8 17h2v1h-2zM54 17h2v1h-2zM8 18h2v1h-2zM54 18h2v1h-2zM8 19h2v1h-2zM54 19h2v1h-2zM8 20h2v1h-2zM54 20h2v1h-2zM8 21h2v1h-2zM54 21h2v1h-2zM8 22h2v1h-2zM16 22h7v1h-7zM30 22h2v1h-2zM37 22h5v1h-5zM44 22h4v1h-4zM54 22h2v1h-2zM8 23h2v1h-2zM16 23h9v1h-9zM29 23h4v1h-4zM36 23h5v1h-5zM43 23h5v1h-5zM54 23h1v1h-1zM8 24h2v1h-2zM16 24h10v1h-10zM30 24h3v1h-3zM36 24h4v1h-4zM43 24h4v1h-4zM54 24h2v1h-2zM8 25h2v1h-2zM16 25h3v1h-3zM21 25h6v1h-6zM31 25h1v1h-1zM36 25h3v1h-3zM43 25h4v1h-4zM54 25h2v1h-2zM8 26h2v1h-2zM16 26h3v1h-3zM23 26h4v1h-4zM36 26h3v1h-3zM44 26h2v1h-2zM54 26h2v1h-2zM8 27h2v1h-2zM16 27h3v1h-3zM23 27h4v1h-4zM30 27h2v1h-2zM36 27h5v1h-5zM42 27h6v1h-6zM54 27h1v1h-1zM8 28h2v1h-2zM16 28h3v1h-3zM24 28h4v1h-4zM29 28h4v1h-4zM34 28h7v1h-7zM42 28h6v1h-6zM54 28h2v1h-2zM8 29h2v1h-2zM16 29h3v1h-3zM24 29h4v1h-4zM29 29h4v1h-4zM34 29h7v1h-7zM42 29h6v1h-6zM54 29h2v1h-2zM8 30h2v1h-2zM16 30h3v1h-3zM24 30h4v1h-4zM29 30h4v1h-4zM36 30h3v1h-3zM44 30h2v1h-2zM54 30h2v1h-2zM8 31h2v1h-2zM16 31h3v1h-3zM24 31h4v1h-4zM29 31h4v1h-4zM36 31h3v1h-3zM43 31h3v1h-3zM54 31h2v1h-2zM8 32h2v1h-2zM16 32h3v1h-3zM24 32h4v1h-4zM29 32h4v1h-4zM36 32h3v1h-3zM43 32h3v1h-3zM54 32h2v1h-2zM8 33h2v1h-2zM16 33h3v1h-3zM24 33h4v1h-4zM29 33h4v1h-4zM36 33h3v1h-3zM43 33h3v1h-3zM54 33h2v1h-2zM8 34h2v1h-2zM16 34h3v1h-3zM24 34h4v1h-4zM29 34h4v1h-4zM36 34h3v1h-3zM43 34h3v1h-3zM54 34h2v1h-2zM8 35h2v1h-2zM16 35h3v1h-3zM23 35h4v1h-4zM29 35h4v1h-4zM36 35h3v1h-3zM43 35h3v1h-3zM54 35h2v1h-2zM8 36h2v1h-2zM16 36h3v1h-3zM23 36h4v1h-4zM29 36h4v1h-4zM36 36h3v1h-3zM43 36h3v1h-3zM54 36h2v1h-2zM8 37h2v1h-2zM16 37h10v1h-10zM29 37h4v1h-4zM36 37h3v1h-3zM43 37h3v1h-3zM54 37h2v1h-2zM8 38h2v1h-2zM16 38h10v1h-10zM30 38h3v1h-3zM36 38h3v1h-3zM43 38h3v1h-3zM54 38h2v1h-2zM8 39h2v1h-2zM16 39h9v1h-9zM29 39h4v1h-4zM36 39h3v1h-3zM43 39h3v1h-3zM54 39h2v1h-2zM8 40h2v1h-2zM16 40h7v1h-7zM30 40h2v1h-2zM36 40h2v1h-2zM44 40h1v1h-1zM54 40h2v1h-2zM8 41h2v1h-2zM54 41h2v1h-2zM8 42h2v1h-2zM54 42h2v1h-2zM8 43h2v1h-2zM54 43h2v1h-2zM8 44h2v1h-2zM54 44h2v1h-2zM8 45h2v1h-2zM54 45h2v1h-2zM8 46h3v1h-3zM53 46h3v1h-3zM8 47h47v1h-47zM9 48h45v1h-45z"/>
</svg>
