<svg xmlns="http://www.w3.org/2000/svg" width="64" height="64" viewBox="0 0 64 64">
  <path fill="#000" d="M8 13h34v1h-34zM8 14h34v1h-34zM8 15h34v1h-34zM8 16h34v1h-34zM8 17h4v1h-4zM38 17h4v1h-4zM8 18h4v1h-4zM38 18h4v1h-4zM8 19h4v1h-4zM38 19h4v1h-4zM8 20h4v1h-4zM38 20h5v1h-5zM8 21h4v1h-4zM38 21h5v1h-5zM44 21h5v1h-5zM8 22h4v1h-4zM38 22h5v1h-5zM44 22h5v1h-5zM8 23h4v1h-4zM38 23h5v1h-5zM46 23h3v1h-3zM8 24h4v1h-4zM38 24h5v1h-5zM46 24h3v1h-3zM8 25h4v1h-4zM38 25h5v1h-5zM46 25h3v1h-3zM8 26h4v1h-4zM38 26h5v1h-5zM46 26h3v1h-3zM51 26h4v1h-4zM8 27h4v1h-4zM38 27h4v1h-4zM46 27h3v1h-3zM51 27h5v1h-5zM8 28h4v1h-4zM38 28h4v1h-4zM46 28h3v1h-3zM52 28h4v1h-4zM8 29h4v1h-4zM38 29h4v1h-4zM46 29h3v1h-3zM52 29h4v1h-4zM8 30h4v1h-4zM38 30h4v1h-4zM46 30h3v1h-3zM52 30h4v1h-4zM8 31h4v1h-4zM38 31h4v1h-4zM46 31h3v1h-3zM52 31h4v1h-4zM8 32h4v1h-4zM38 32h4v1h-4zM46 32h3v1h-3zM52 32h4v1h-4zM8 33h4v1h-4zM38 33h4v1h-4zM46 33h3v1h-3zM52 33h4v1h-4zM8 34h4v1h-4zM38 34h4v1h-4zM46 34h3v1h-3zM52 34h4v1h-4zM8 35h4v1h-4zM38 35h4v1h-4zM46 35h3v1h-3zM52 35h4v1h-4zM8 36h34v1h-34zM46 36h3v1h-3zM52 36h4v1h-4zM8 37h34v1h-34zM46 37h3v1h-3zM52 37h4v1h-4zM8 38h34v1h-34zM46 38h3v1h-3zM52 38h4v1h-4zM9 39h33v1h-33zM46 39h3v1h-3zM52 39h3v1h-3zM46 40h3v1h-3zM52 40h3v1h-3zM17 41h3v1h-3zM46 41h3v1h-3zM52 41h3v1h-3zM17 42h3v1h-3zM45 42h4v1h-4zM52 42h3v1h-3zM17 43h32v1h-32zM52 43h3v1h-3zM17 44h32v1h-32zM52 44h3v1h-3zM18 45h31v1h-31zM52 45h3v1h-3zM23 46h1v1h-1zM52 46h3v1h-3zM22 47h3v1h-3zM52 47h3v1h-3zM22 48h33v1h-33zM22 49h33v1h-33zM22 50h33v1h-33z"/>
</svg>
