<svg xmlns="http://www.w3.org/2000/svg" width="64" height="64" viewBox="0 0 64 64">
  <path fill="#000" d="M24 10h16v1h-16zM22 11h20v1h-20zM20 12h7v1h-7zM36 12h8v1h-8zM18 13h6v1h-6zM40 13h6v1h-6zM17 14h6v1h-6zM41 14h6v1h-6zM16 15h5v1h-5zM43 15h5v1h-5zM15 16h5v1h-5zM44 16h5v1h-5zM14 17h4v1h-4zM46 17h4v1h-4zM13 18h4v1h-4zM47 18h4v1h-4zM12 19h5v1h-5zM48 19h4v1h-4zM12 20h5v1h-5zM48 20h4v1h-4zM11 21h4v1h-4zM48 21h5v1h-5zM11 22h3v1h-3zM28 22h8v1h-8zM49 22h4v1h-4zM11 23h2v1h-2zM26 23h12v1h-12zM49 23h4v1h-4zM24 24h16v1h-16zM9 25h3v1h-3zM23 25h5v1h-5zM36 25h5v1h-5zM52 25h3v1h-3zM9 26h4v1h-4zM23 26h4v1h-4zM38 26h4v1h-4zM51 26h4v1h-4zM9 27h3v1h-3zM22 27h3v1h-3zM39 27h4v1h-4zM52 27h3v1h-3zM9 28h3v1h-3zM22 28h2v1h-2zM40 28h3v1h-3zM52 28h3v1h-3zM9 29h3v1h-3zM15 29h4v1h-4zM21 29h3v1h-3zM40 29h3v1h-3zM45 29h5v1h-5zM51 29h5v1h-5zM9 30h3v1h-3zM15 30h5v1h-5zM21 30h3v1h-3zM41 30h2v1h-2zM45 30h5v1h-5zM51 30h5v1h-5zM8 31h4v1h-4zM15 31h4v1h-4zM21 31h3v1h-3zM41 31h2v1h-2zM45 31h5v1h-5zM51 31h5v1h-5zM9 32h3v1h-3zM15 32h4v1h-4zM21 32h3v1h-3zM41 32h2v1h-2zM45 32h5v1h-5zM51 32h5v1h-5zM9 33h3v1h-3zM15 33h4v1h-4zM21 33h3v1h-3zM40 33h3v1h-3zM45 33h5v1h-5zM51 33h5v1h-5zM9 34h3v1h-3zM15 34h4v1h-4zM21 34h4v1h-4zM39 34h4v1h-4zM45 34h5v1h-5zM51 34h4v1h-4zM9 35h4v1h-4zM22 35h4v1h-4zM38 35h4v1h-4zM52 35h3v1h-3zM9 36h3v1h-3zM23 36h5v1h-5zM37 36h5v1h-5zM51 36h4v1h-4zM9 37h5v1h-5zM24 37h17v1h-17zM50 37h5v1h-5zM9 38h4v1h-4zM25 38h15v1h-15zM51 38h4v1h-4zM10 39h2v1h-2zM27 39h11v1h-11zM52 39h3v1h-3zM11 40h3v1h-3zM29 40h6v1h-6zM49 40h4v1h-4zM11 41h5v1h-5zM49 41h4v1h-4zM11 42h5v1h-5zM49 42h3v1h-3zM12 43h4v1h-4zM48 43h4v1h-4zM13 44h4v1h-4zM47 44h4v1h-4zM14 45h4v1h-4zM46 45h4v1h-4zM14 46h5v1h-5zM45 46h5v1h-5zM15 47h6v1h-6zM43 47h6v1h-6zM17 48h6v1h-6zM41 48h7v1h-7zM18 49h6v1h-6zM25 49h1v1h-1zM38 49h1v1h-1zM40 49h6v1h-6zM20 50h7v1h-7zM37 50h8v1h-8zM21 51h22v1h-22zM24 52h16v1h-16zM30 53h5v1h-5z"/>
</svg>
