<svg xmlns="http://www.w3.org/2000/svg" width="64" height="64" viewBox="0 0 64 64">
  <path fill="#000" d="M8 20h20v1h-20zM8 21h20v1h-20zM8 22h2v1h-2zM26 22h2v1h-2zM8 23h2v1h-2zM13 23h2v1h-2zM25 23h3v1h-3zM8 24h2v1h-2zM13 24h3v1h-3zM24 24h4v1h-4zM49 24h5v1h-5zM8 25h2v1h-2zM13 25h2v1h-2zM23 25h5v1h-5zM48 25h7v1h-7zM8 26h2v1h-2zM11 26h6v1h-6zM22 26h6v1h-6zM37 26h2v1h-2zM47 26h9v1h-9zM8 27h2v1h-2zM11 27h7v1h-7zM21 27h7v1h-7zM36 27h3v1h-3zM47 27h3v1h-3zM52 27h4v1h-4zM8 28h2v1h-2zM11 28h6v1h-6zM21 28h7v1h-7zM36 28h3v1h-3zM46 28h4v1h-4zM53 28h3v1h-3zM8 29h2v1h-2zM13 29h2v1h-2zM20 29h8v1h-8zM37 29h2v1h-2zM46 29h3v1h-3zM53 29h3v1h-3zM8 30h2v1h-2zM13 30h3v1h-3zM19 30h9v1h-9zM33 30h10v1h-10zM46 30h3v1h-3zM54 30h2v1h-2zM8 31h2v1h-2zM13 31h2v1h-2zM18 31h10v1h-10zM33 31h10v1h-10zM46 31h3v1h-3zM53 31h3v1h-3zM8 32h2v1h-2zM17 32h11v1h-11zM32 32h11v1h-11zM46 32h3v1h-3zM53 32h3v1h-3zM8 33h2v1h-2zM16 33h12v1h-12zM37 33h2v1h-2zM46 33h3v1h-3zM53 33h3v1h-3zM8 34h2v1h-2zM16 34h12v1h-12zM36 34h3v1h-3zM46 34h3v1h-3zM53 34h3v1h-3zM8 35h2v1h-2zM15 35h13v1h-13zM36 35h3v1h-3zM46 35h3v1h-3zM53 35h3v1h-3zM8 36h2v1h-2zM14 36h5v1h-5zM25 36h3v1h-3zM36 36h3v1h-3zM46 36h3v1h-3zM53 36h3v1h-3zM8 37h2v1h-2zM13 37h6v1h-6zM25 37h3v1h-3zM37 37h1v1h-1zM46 37h3v1h-3zM53 37h3v1h-3zM8 38h2v1h-2zM12 38h16v1h-16zM35 38h7v1h-7zM46 38h4v1h-4zM53 38h3v1h-3zM8 39h2v1h-2zM11 39h17v1h-17zM32 39h12v1h-12zM47 39h3v1h-3zM52 39h4v1h-4zM8 40h20v1h-20zM32 40h12v1h-12zM47 40h9v1h-9zM8 41h20v1h-20zM48 41h7v1h-7zM8 42h20v1h-20zM49 42h4v1h-4zM8 43h20v1h-20z"/>
</svg>
