<svg xmlns="http://www.w3.org/2000/svg" width="64" height="64" viewBox="0 0 64 64">
  <path fill="#000" d="M17 11h4v1h-4zM17 12h4v1h-4zM17 13h4v1h-4zM17 14h4v1h-4zM17 15h4v1h-4zM17 16h4v1h-4zM17 17h4v1h-4zM9 18h13v1h-13zM28 18h2v1h-2zM9 19h21v1h-21zM9 20h21v1h-21zM45 20h1v1h-1zM50 20h6v1h-6zM9 21h21v1h-21zM45 21h2v1h-2zM49 21h7v1h-7zM9 22h21v1h-21zM44 22h3v1h-3zM49 22h7v1h-7zM16 23h5v1h-5zM43 23h4v1h-4zM49 23h7v1h-7zM16 24h5v1h-5zM41 24h6v1h-6zM49 24h7v1h-7zM16 25h5v1h-5zM40 25h7v1h-7zM49 25h7v1h-7zM16 26h5v1h-5zM40 26h7v1h-7zM49 26h7v1h-7zM16 27h5v1h-5zM40 27h7v1h-7zM49 27h7v1h-7zM16 28h5v1h-5zM40 28h7v1h-7zM49 28h7v1h-7zM17 29h4v1h-4zM40 29h7v1h-7zM50 29h6v1h-6zM40 30h7v1h-7zM50 30h6v1h-6zM40 31h7v1h-7zM50 31h6v1h-6zM9 32h20v1h-20zM40 32h7v1h-7zM50 32h6v1h-6zM8 33h22v1h-22zM40 33h7v1h-7zM50 33h6v1h-6zM8 34h22v1h-22zM35 34h1v1h-1zM40 34h7v1h-7zM50 34h6v1h-6zM8 35h22v1h-22zM34 35h2v1h-2zM40 35h7v1h-7zM50 35h6v1h-6zM8 36h22v1h-22zM34 36h2v1h-2zM40 36h7v1h-7zM50 36h6v1h-6zM34 37h2v1h-2zM40 37h7v1h-7zM50 37h6v1h-6zM34 38h2v1h-2zM40 38h7v1h-7zM50 38h6v1h-6zM34 39h2v1h-2zM40 39h7v1h-7zM50 39h6v1h-6zM34 40h2v1h-2zM40 40h7v1h-7zM50 40h6v1h-6zM29 41h7v1h-7zM40 41h7v1h-7zM50 41h6v1h-6zM29 42h7v1h-7zM40 42h7v1h-7zM50 42h6v1h-6zM29 43h8v1h-8zM40 43h7v1h-7zM49 43h7v1h-7zM29 44h8v1h-8zM40 44h7v1h-7zM49 44h7v1h-7zM29 45h8v1h-8zM40 45h7v1h-7zM49 45h7v1h-7zM29 46h8v1h-8zM40 46h7v1h-7zM49 46h7v1h-7zM29 47h8v1h-8zM40 47h7v1h-7zM49 47h7v1h-7zM22 48h4v1h-4zM29 48h8v1h-8zM40 48h7v1h-7zM49 48h7v1h-7zM19 49h7v1h-7zM29 49h8v1h-8zM40 49h7v1h-7zM49 49h7v1h-7zM18 50h8v1h-8zM29 50h8v1h-8zM40 50h7v1h-7zM49 50h7v1h-7zM18 51h8v1h-8zM29 51h8v1h-8zM40 51h7v1h-7zM49 51h7v1h-7zM29 52h2v1h-2zM44 52h3v1h-3zM50 52h2v1h-2z"/>
</svg>
