<svg xmlns="http://www.w3.org/2000/svg" width="64" height="64" viewBox="0 0 64 64">
  <path fill="#000" d="M15 11h2v1h-2zM21 11h1v1h-1zM15 12h7v1h-7zM14 13h8v1h-8zM14 14h8v1h-8zM13 15h9v1h-9zM12 16h9v1h-9zM12 17h9v1h-9zM12 18h8v1h-8zM11 19h9v1h-9zM38 19h5v1h-5zM52 19h4v1h-4zM11 20h9v1h-9zM38 20h5v1h-5zM52 20h4v1h-4zM11 21h9v1h-9zM38 21h5v1h-5zM52 21h4v1h-4zM10 22h9v1h-9zM38 22h5v1h-5zM52 22h4v1h-4zM10 23h9v1h-9zM38 23h5v1h-5zM52 23h4v1h-4zM10 24h9v1h-9zM38 24h5v1h-5zM52 24h4v1h-4zM10 25h8v1h-8zM38 25h5v1h-5zM52 25h4v1h-4zM9 26h20v1h-20zM38 26h5v1h-5zM52 26h4v1h-4zM9 27h20v1h-20zM38 27h5v1h-5zM52 27h4v1h-4zM8 28h20v1h-20zM38 28h5v1h-5zM52 28h4v1h-4zM8 29h20v1h-20zM38 29h5v1h-5zM52 29h4v1h-4zM19 30h8v1h-8zM38 30h6v1h-6zM52 30h4v1h-4zM19 31h8v1h-8zM38 31h18v1h-18zM19 32h8v1h-8zM38 32h18v1h-18zM18 33h9v1h-9zM38 33h18v1h-18zM18 34h8v1h-8zM38 34h18v1h-18zM18 35h8v1h-8zM38 35h5v1h-5zM51 35h5v1h-5zM18 36h7v1h-7zM38 36h6v1h-6zM52 36h4v1h-4zM17 37h8v1h-8zM38 37h5v1h-5zM52 37h4v1h-4zM16 38h9v1h-9zM38 38h5v1h-5zM52 38h4v1h-4zM11 39h18v1h-18zM38 39h5v1h-5zM52 39h4v1h-4zM11 40h18v1h-18zM38 40h5v1h-5zM52 40h4v1h-4zM12 41h16v1h-16zM38 41h5v1h-5zM52 41h4v1h-4zM12 42h15v1h-15zM38 42h5v1h-5zM52 42h4v1h-4zM12 43h14v1h-14zM38 43h5v1h-5zM52 43h4v1h-4zM14 44h11v1h-11zM38 44h5v1h-5zM52 44h4v1h-4zM14 45h10v1h-10zM38 45h5v1h-5zM52 45h4v1h-4zM14 46h9v1h-9zM38 46h5v1h-5zM52 46h4v1h-4zM15 47h7v1h-7zM38 47h5v1h-5zM52 47h4v1h-4zM15 48h7v1h-7zM15 49h6v1h-6zM16 50h4v1h-4zM16 51h3v1h-3z"/>
</svg>
