<svg xmlns="http://www.w3.org/2000/svg" width="64" height="64" viewBox="0 0 64 64">
  <path fill="#000" d="M27 8h10v1h-10zM27 9h10v1h-10zM25 10h11v1h-11zM26 11h10v1h-10zM24 12h11v1h-11zM24 13h11v1h-11zM24 14h11v1h-11zM24 15h10v1h-10zM23 16h11v1h-11zM23 17h11v1h-11zM23 18h10v1h-10zM22 19h11v1h-11zM22 20h10v1h-10zM22 21h10v1h-10zM21 22h11v1h-11zM21 23h11v1h-11zM21 24h23v1h-23zM21 25h23v1h-23zM20 26h24v1h-24zM20 27h24v1h-24zM19 28h24v1h-24zM19 29h24v1h-24zM34 30h9v1h-9zM32 31h10v1h-10zM32 32h10v1h-10zM32 33h10v1h-10zM32 34h9v1h-9zM31 35h10v1h-10zM31 36h9v1h-9zM31 37h9v1h-9zM30 38h10v1h-10zM30 39h10v1h-10zM23 40h22v1h-22zM23 41h22v1h-22zM23 42h21v1h-21zM24 43h19v1h-19zM24 44h18v1h-18zM25 45h16v1h-16zM25 46h15v1h-15zM26 47h13v1h-13zM27 48h11v1h-11zM27 49h10v1h-10zM27 50h9v1h-9zM28 51h7v1h-7zM28 52h6v1h-6zM29 53h4v1h-4zM29 54h3v1h-3zM29 55h3v1h-3z"/>
</svg>
