<svg xmlns="http://www.w3.org/2000/svg" width="64" height="64" viewBox="0 0 64 64">
  <path fill="#000" d="M12 15h7v1h-7zM12 16h7v1h-7zM12 17h7v1h-7zM12 18h6v1h-6zM11 19h7v1h-7zM11 20h7v1h-7zM11 21h7v1h-7zM10 22h7v1h-7zM50 22h1v1h-1zM10 23h7v1h-7zM48 23h6v1h-6zM9 24h7v1h-7zM47 24h8v1h-8zM9 25h7v1h-7zM35 25h2v1h-2zM46 25h4v1h-4zM51 25h4v1h-4zM9 26h7v1h-7zM23 26h1v1h-1zM35 26h3v1h-3zM46 26h3v1h-3zM52 26h4v1h-4zM8 27h17v1h-17zM35 27h3v1h-3zM46 27h3v1h-3zM53 27h3v1h-3zM8 28h16v1h-16zM35 28h3v1h-3zM46 28h3v1h-3zM53 28h3v1h-3zM8 29h16v1h-16zM31 29h11v1h-11zM45 29h4v1h-4zM53 29h3v1h-3zM17 30h6v1h-6zM30 30h12v1h-12zM45 30h4v1h-4zM53 30h3v1h-3zM17 31h6v1h-6zM31 31h11v1h-11zM45 31h4v1h-4zM53 31h3v1h-3zM16 32h6v1h-6zM35 32h3v1h-3zM45 32h4v1h-4zM53 32h3v1h-3zM16 33h6v1h-6zM35 33h3v1h-3zM45 33h4v1h-4zM53 33h3v1h-3zM15 34h7v1h-7zM35 34h3v1h-3zM45 34h4v1h-4zM53 34h3v1h-3zM15 35h6v1h-6zM35 35h3v1h-3zM46 35h3v1h-3zM53 35h3v1h-3zM13 36h8v1h-8zM46 36h3v1h-3zM53 36h3v1h-3zM11 37h14v1h-14zM46 37h3v1h-3zM53 37h3v1h-3zM11 38h13v1h-13zM30 38h12v1h-12zM46 38h4v1h-4zM52 38h4v1h-4zM11 39h13v1h-13zM30 39h12v1h-12zM47 39h8v1h-8zM12 40h11v1h-11zM30 40h12v1h-12zM47 40h7v1h-7zM12 41h10v1h-10zM49 41h4v1h-4zM12 42h9v1h-9zM13 43h7v1h-7zM13 44h6v1h-6zM14 45h4v1h-4zM14 46h3v1h-3zM14 47h2v1h-2z"/>
</svg>
