<svg xmlns="http://www.w3.org/2000/svg" width="64" height="64" viewBox="0 0 64 64">
  <path fill="#000" d="M9 16h45v1h-45zM8 17h48v1h-48zM8 18h3v1h-3zM53 18h3v1h-3zM8 19h2v1h-2zM54 19h2v1h-2zM8 20h2v1h-2zM54 20h2v1h-2zM8 21h2v1h-2zM54 21h2v1h-2zM8 22h2v1h-2zM54 22h2v1h-2zM8 23h2v1h-2zM54 23h2v1h-2zM8 24h2v1h-2zM13 24h6v1h-6zM22 24h7v1h-7zM34 24h4v1h-4zM42 24h3v1h-3zM48 24h3v1h-3zM54 24h2v1h-2zM8 25h2v1h-2zM13 25h7v1h-7zM22 25h7v1h-7zM34 25h4v1h-4zM42 25h3v1h-3zM47 25h4v1h-4zM54 25h2v1h-2zM8 26h2v1h-2zM13 26h3v1h-3zM17 26h4v1h-4zM22 26h3v1h-3zM34 26h4v1h-4zM42 26h3v1h-3zM47 26h3v1h-3zM54 26h2v1h-2zM8 27h2v1h-2zM13 27h3v1h-3zM18 27h3v1h-3zM22 27h3v1h-3zM33 27h5v1h-5zM42 27h3v1h-3zM46 27h3v1h-3zM54 27h2v1h-2zM8 28h2v1h-2zM13 28h3v1h-3zM19 28h2v1h-2zM22 28h3v1h-3zM33 28h2v1h-2zM36 28h3v1h-3zM42 28h3v1h-3zM46 28h3v1h-3zM54 28h2v1h-2zM8 29h2v1h-2zM13 29h3v1h-3zM19 29h2v1h-2zM22 29h3v1h-3zM33 29h2v1h-2zM36 29h3v1h-3zM42 29h7v1h-7zM54 29h2v1h-2zM8 30h2v1h-2zM13 30h3v1h-3zM18 30h3v1h-3zM22 30h7v1h-7zM32 30h3v1h-3zM36 30h3v1h-3zM42 30h6v1h-6zM54 30h2v1h-2zM8 31h2v1h-2zM13 31h7v1h-7zM22 31h7v1h-7zM32 31h3v1h-3zM36 31h4v1h-4zM42 31h6v1h-6zM54 31h2v1h-2zM8 32h2v1h-2zM13 32h6v1h-6zM22 32h7v1h-7zM32 32h2v1h-2zM37 32h2v1h-2zM42 32h6v1h-6zM54 32h2v1h-2zM8 33h2v1h-2zM13 33h3v1h-3zM22 33h3v1h-3zM31 33h9v1h-9zM42 33h3v1h-3zM46 33h3v1h-3zM54 33h2v1h-2zM8 34h2v1h-2zM13 34h3v1h-3zM22 34h3v1h-3zM31 34h9v1h-9zM42 34h3v1h-3zM46 34h3v1h-3zM54 34h2v1h-2zM8 35h2v1h-2zM13 35h3v1h-3zM22 35h3v1h-3zM31 35h9v1h-9zM42 35h3v1h-3zM46 35h4v1h-4zM54 35h2v1h-2zM8 36h2v1h-2zM13 36h3v1h-3zM22 36h3v1h-3zM31 36h3v1h-3zM38 36h2v1h-2zM42 36h3v1h-3zM47 36h3v1h-3zM54 36h2v1h-2zM8 37h1v1h-1zM13 37h3v1h-3zM22 37h7v1h-7zM30 37h4v1h-4zM38 37h3v1h-3zM42 37h3v1h-3zM48 37h3v1h-3zM54 37h2v1h-2zM8 38h2v1h-2zM13 38h3v1h-3zM22 38h7v1h-7zM30 38h4v1h-4zM38 38h3v1h-3zM42 38h3v1h-3zM48 38h3v1h-3zM54 38h2v1h-2zM8 39h2v1h-2zM14 39h1v1h-1zM30 39h2v1h-2zM54 39h2v1h-2zM8 40h2v1h-2zM54 40h2v1h-2zM8 41h2v1h-2zM54 41h2v1h-2zM8 42h1v1h-1zM55 42h1v1h-1zM8 43h2v1h-2zM54 43h2v1h-2zM8 44h3v1h-3zM53 44h3v1h-3zM8 45h48v1h-48zM9 46h45v1h-45z"/>
</svg>
