<svg xmlns="http://www.w3.org/2000/svg" width="64" height="64" viewBox="0 0 64 64">
  <path fill="#000" d="M8 10h16v1h-16zM26 10h29v1h-29zM8 11h48v1h-48zM8 12h1v1h-1zM23 12h2v1h-2zM38 12h3v1h-3zM54 12h2v1h-2zM8 13h1v1h-1zM23 13h2v1h-2zM38 13h3v1h-3zM54 13h2v1h-2zM8 14h1v1h-1zM23 14h2v1h-2zM38 14h3v1h-3zM54 14h2v1h-2zM8 15h1v1h-1zM23 15h2v1h-2zM38 15h3v1h-3zM54 15h2v1h-2zM8 16h1v1h-1zM23 16h2v1h-2zM38 16h3v1h-3zM54 16h2v1h-2zM8 17h1v1h-1zM23 17h2v1h-2zM38 17h3v1h-3zM54 17h2v1h-2zM8 18h1v1h-1zM23 18h2v1h-2zM38 18h3v1h-3zM54 18h2v1h-2zM8 19h1v1h-1zM23 19h2v1h-2zM38 19h3v1h-3zM54 19h2v1h-2zM8 20h1v1h-1zM23 20h2v1h-2zM38 20h3v1h-3zM54 20h2v1h-2zM8 21h1v1h-1zM23 21h2v1h-2zM38 21h3v1h-3zM54 21h2v1h-2zM8 22h1v1h-1zM22 22h3v1h-3zM38 22h3v1h-3zM54 22h2v1h-2zM8 23h1v1h-1zM22 23h3v1h-3zM38 23h3v1h-3zM54 23h2v1h-2zM8 24h48v1h-48zM8 25h48v1h-48zM8 26h2v1h-2zM22 26h3v1h-3zM29 26h4v1h-4zM38 26h3v1h-3zM54 26h2v1h-2zM8 27h1v1h-1zM23 27h2v1h-2zM38 27h3v1h-3zM54 27h2v1h-2zM8 28h1v1h-1zM23 28h2v1h-2zM38 28h3v1h-3zM54 28h2v1h-2zM8 29h1v1h-1zM23 29h2v1h-2zM38 29h3v1h-3zM54 29h2v1h-2zM8 30h1v1h-1zM23 30h2v1h-2zM38 30h3v1h-3zM54 30h2v1h-2zM8 31h1v1h-1zM23 31h2v1h-2zM38 31h3v1h-3zM54 31h2v1h-2zM8 32h1v1h-1zM23 32h2v1h-2zM38 32h3v1h-3zM54 32h2v1h-2zM8 33h1v1h-1zM23 33h2v1h-2zM38 33h3v1h-3zM54 33h2v1h-2zM8 34h1v1h-1zM23 34h2v1h-2zM38 34h3v1h-3zM54 34h2v1h-2zM8 35h1v1h-1zM23 35h2v1h-2zM38 35h3v1h-3zM54 35h2v1h-2zM8 36h1v1h-1zM22 36h3v1h-3zM31 36h1v1h-1zM38 36h3v1h-3zM54 36h2v1h-2zM8 37h48v1h-48zM8 38h48v1h-48zM8 39h1v1h-1zM22 39h3v1h-3zM38 39h3v1h-3zM54 39h2v1h-2zM8 40h1v1h-1zM23 40h2v1h-2zM38 40h3v1h-3zM54 40h2v1h-2zM8 41h1v1h-1zM23 41h2v1h-2zM38 41h3v1h-3zM54 41h2v1h-2zM8 42h1v1h-1zM23 42h2v1h-2zM38 42h3v1h-3zM54 42h2v1h-2zM8 43h1v1h-1zM23 43h2v1h-2zM38 43h3v1h-3zM54 43h2v1h-2zM8 44h1v1h-1zM23 44h2v1h-2zM38 44h3v1h-3zM54 44h2v1h-2zM8 45h1v1h-1zM23 45h2v1h-2zM38 45h3v1h-3zM54 45h2v1h-2zM8 46h1v1h-1zM23 46h2v1h-2zM38 46h3v1h-3zM54 46h2v1h-2zM8 47h1v1h-1zM23 47h2v1h-2zM38 47h3v1h-3zM54 47h2v1h-2zM8 48h1v1h-1zM23 48h2v1h-2zM38 48h3v1h-3zM54 48h2v1h-2zM8 49h1v1h-1zM23 49h2v1h-2zM38 49h3v1h-3zM54 49h2v1h-2zM8 50h1v1h-1zM23 50h2v1h-2zM38 50h3v1h-3zM54 50h2v1h-2zM8 51h48v1h-48zM8 52h47v1h-47z"/>
</svg>
