<svg xmlns="http://www.w3.org/2000/svg" width="64" height="64" viewBox="0 0 64 64">
  <path fill="#000" d="M8 16h48v1h-48zM8 17h3v1h-3zM53 17h3v1h-3zM8 18h1v1h-1zM54 18h2v1h-2zM8 19h1v1h-1zM54 19h2v1h-2zM8 20h1v1h-1zM54 20h2v1h-2zM8 21h1v1h-1zM54 21h2v1h-2zM8 22h1v1h-1zM54 22h2v1h-2zM8 23h1v1h-1zM55 23h1v1h-1zM8 24h1v1h-1zM15 24h2v1h-2zM22 24h3v1h-3zM27 24h7v1h-7zM40 24h6v1h-6zM55 24h1v1h-1zM8 25h1v1h-1zM15 25h3v1h-3zM22 25h3v1h-3zM27 25h8v1h-8zM39 25h9v1h-9zM55 25h1v1h-1zM8 26h1v1h-1zM15 26h3v1h-3zM22 26h3v1h-3zM27 26h10v1h-10zM39 26h9v1h-9zM55 26h1v1h-1zM8 27h1v1h-1zM15 27h3v1h-3zM22 27h3v1h-3zM27 27h3v1h-3zM33 27h4v1h-4zM39 27h3v1h-3zM45 27h4v1h-4zM54 27h2v1h-2zM8 28h1v1h-1zM15 28h3v1h-3zM22 28h3v1h-3zM27 28h3v1h-3zM34 28h4v1h-4zM39 28h4v1h-4zM46 28h3v1h-3zM54 28h2v1h-2zM8 29h1v1h-1zM15 29h3v1h-3zM22 29h3v1h-3zM27 29h3v1h-3zM35 29h3v1h-3zM39 29h4v1h-4zM46 29h2v1h-2zM54 29h2v1h-2zM8 30h1v1h-1zM15 30h10v1h-10zM27 30h3v1h-3zM35 30h3v1h-3zM39 30h3v1h-3zM45 30h3v1h-3zM54 30h2v1h-2zM8 31h1v1h-1zM15 31h10v1h-10zM27 31h3v1h-3zM35 31h3v1h-3zM39 31h9v1h-9zM54 31h2v1h-2zM8 32h1v1h-1zM15 32h10v1h-10zM27 32h3v1h-3zM35 32h3v1h-3zM39 32h8v1h-8zM54 32h2v1h-2zM8 33h1v1h-1zM15 33h10v1h-10zM27 33h3v1h-3zM35 33h3v1h-3zM39 33h7v1h-7zM54 33h2v1h-2zM8 34h1v1h-1zM15 34h3v1h-3zM22 34h3v1h-3zM27 34h3v1h-3zM34 34h4v1h-4zM39 34h4v1h-4zM44 34h3v1h-3zM54 34h2v1h-2zM8 35h1v1h-1zM15 35h3v1h-3zM22 35h3v1h-3zM27 35h3v1h-3zM35 35h3v1h-3zM39 35h3v1h-3zM44 35h4v1h-4zM54 35h2v1h-2zM8 36h1v1h-1zM15 36h3v1h-3zM22 36h3v1h-3zM27 36h3v1h-3zM34 36h3v1h-3zM39 36h3v1h-3zM45 36h3v1h-3zM54 36h2v1h-2zM8 37h1v1h-1zM15 37h3v1h-3zM22 37h3v1h-3zM27 37h3v1h-3zM33 37h4v1h-4zM39 37h3v1h-3zM45 37h3v1h-3zM54 37h2v1h-2zM8 38h1v1h-1zM15 38h3v1h-3zM22 38h3v1h-3zM27 38h9v1h-9zM39 38h3v1h-3zM46 38h3v1h-3zM54 38h2v1h-2zM8 39h1v1h-1zM15 39h3v1h-3zM22 39h3v1h-3zM27 39h8v1h-8zM39 39h4v1h-4zM46 39h3v1h-3zM54 39h2v1h-2zM8 40h1v1h-1zM15 40h2v1h-2zM23 40h1v1h-1zM27 40h6v1h-6zM40 40h2v1h-2zM47 40h2v1h-2zM54 40h2v1h-2zM8 41h1v1h-1zM54 41h2v1h-2zM8 42h1v1h-1zM54 42h2v1h-2zM8 43h1v1h-1zM54 43h2v1h-2zM8 44h1v1h-1zM55 44h1v1h-1zM8 45h1v1h-1zM54 45h2v1h-2zM8 46h2v1h-2zM54 46h2v1h-2zM8 47h48v1h-48z"/>
</svg>
