<svg xmlns="http://www.w3.org/2000/svg" width="64" height="64" viewBox="0 0 64 64">
  <path fill="#000" d="M8 12h4v1h-4zM18 12h4v1h-4zM25 12h9v1h-9zM8 13h5v1h-5zM18 13h4v1h-4zM25 13h10v1h-10zM8 14h5v1h-5zM18 14h4v1h-4zM25 14h11v1h-11zM8 15h6v1h-6zM18 15h4v1h-4zM25 15h3v1h-3zM31 15h5v1h-5zM8 16h6v1h-6zM18 16h4v1h-4zM25 16h3v1h-3zM32 16h4v1h-4zM8 17h7v1h-7zM18 17h4v1h-4zM25 17h3v1h-3zM33 17h3v1h-3zM8 18h7v1h-7zM18 18h4v1h-4zM25 18h3v1h-3zM32 18h4v1h-4zM8 19h3v1h-3zM12 19h4v1h-4zM18 19h4v1h-4zM25 19h3v1h-3zM32 19h4v1h-4zM8 20h3v1h-3zM12 20h4v1h-4zM18 20h4v1h-4zM25 20h3v1h-3zM30 20h6v1h-6zM8 21h3v1h-3zM13 21h3v1h-3zM18 21h4v1h-4zM25 21h10v1h-10zM8 22h3v1h-3zM13 22h4v1h-4zM18 22h4v1h-4zM25 22h9v1h-9zM8 23h3v1h-3zM13 23h4v1h-4zM18 23h4v1h-4zM25 23h9v1h-9zM49 23h7v1h-7zM8 24h3v1h-3zM14 24h3v1h-3zM18 24h4v1h-4zM25 24h3v1h-3zM30 24h5v1h-5zM49 24h7v1h-7zM8 25h3v1h-3zM14 25h8v1h-8zM25 25h3v1h-3zM31 25h4v1h-4zM49 25h7v1h-7zM8 26h3v1h-3zM15 26h7v1h-7zM25 26h3v1h-3zM31 26h5v1h-5zM49 26h7v1h-7zM8 27h3v1h-3zM15 27h7v1h-7zM25 27h3v1h-3zM31 27h4v1h-4zM48 27h8v1h-8zM8 28h3v1h-3zM16 28h6v1h-6zM25 28h3v1h-3zM32 28h4v1h-4zM48 28h8v1h-8zM8 29h3v1h-3zM16 29h6v1h-6zM25 29h3v1h-3zM32 29h4v1h-4zM39 29h7v1h-7zM48 29h8v1h-8zM8 30h3v1h-3zM17 30h5v1h-5zM25 30h3v1h-3zM33 30h3v1h-3zM39 30h7v1h-7zM48 30h8v1h-8zM8 31h3v1h-3zM17 31h5v1h-5zM25 31h3v1h-3zM33 31h4v1h-4zM39 31h7v1h-7zM48 31h8v1h-8zM39 32h7v1h-7zM48 32h8v1h-8zM39 33h7v1h-7zM48 33h8v1h-8zM39 34h7v1h-7zM48 34h8v1h-8zM30 35h6v1h-6zM39 35h7v1h-7zM48 35h8v1h-8zM29 36h7v1h-7zM39 36h7v1h-7zM49 36h7v1h-7zM29 37h7v1h-7zM39 37h7v1h-7zM49 37h7v1h-7zM29 38h7v1h-7zM39 38h7v1h-7zM49 38h7v1h-7zM29 39h7v1h-7zM39 39h7v1h-7zM49 39h7v1h-7zM29 40h7v1h-7zM39 40h7v1h-7zM49 40h7v1h-7zM29 41h7v1h-7zM39 41h7v1h-7zM49 41h7v1h-7zM20 42h7v1h-7zM29 42h7v1h-7zM39 42h7v1h-7zM48 42h8v1h-8zM20 43h7v1h-7zM29 43h7v1h-7zM39 43h7v1h-7zM48 43h8v1h-8zM20 44h7v1h-7zM29 44h7v1h-7zM39 44h7v1h-7zM48 44h8v1h-8zM20 45h7v1h-7zM29 45h7v1h-7zM39 45h7v1h-7zM48 45h8v1h-8zM20 46h7v1h-7zM29 46h7v1h-7zM39 46h7v1h-7zM48 46h8v1h-8zM20 47h7v1h-7zM29 47h7v1h-7zM39 47h7v1h-7zM48 47h8v1h-8zM10 48h7v1h-7zM20 48h7v1h-7zM29 48h7v1h-7zM39 48h7v1h-7zM48 48h8v1h-8zM10 49h7v1h-7zM20 49h7v1h-7zM29 49h7v1h-7zM39 49h7v1h-7zM48 49h8v1h-8zM10 50h7v1h-7zM20 50h7v1h-7zM29 50h7v1h-7zM39 50h7v1h-7zM48 50h8v1h-8zM10 51h7v1h-7zM20 51h7v1h-7zM30 51h6v1h-6zM39 51h7v1h-7zM49 51h6v1h-6z"/>
</svg>
