<svg xmlns="http://www.w3.org/2000/svg" width="64" height="64" viewBox="0 0 64 64">
  <path fill="#000" d="M9 14h46v1h-46zM8 15h16v1h-16zM50 15h5v1h-5zM8 16h3v1h-3zM53 16h3v1h-3zM8 17h2v1h-2zM54 17h2v1h-2zM8 18h2v1h-2zM54 18h2v1h-2zM8 19h2v1h-2zM54 19h2v1h-2zM8 20h2v1h-2zM54 20h2v1h-2zM8 21h2v1h-2zM54 21h2v1h-2zM8 22h2v1h-2zM18 22h10v1h-10zM40 22h2v1h-2zM54 22h2v1h-2zM8 23h2v1h-2zM18 23h11v1h-11zM40 23h2v1h-2zM54 23h2v1h-2zM8 24h2v1h-2zM18 24h12v1h-12zM40 24h2v1h-2zM54 24h2v1h-2zM8 25h2v1h-2zM18 25h4v1h-4zM26 25h5v1h-5zM40 25h2v1h-2zM54 25h2v1h-2zM8 26h2v1h-2zM18 26h4v1h-4zM27 26h4v1h-4zM35 26h11v1h-11zM54 26h2v1h-2zM8 27h2v1h-2zM18 27h4v1h-4zM27 27h5v1h-5zM35 27h12v1h-12zM54 27h2v1h-2zM8 28h2v1h-2zM18 28h4v1h-4zM28 28h4v1h-4zM35 28h12v1h-12zM54 28h2v1h-2zM8 29h2v1h-2zM18 29h4v1h-4zM28 29h4v1h-4zM36 29h10v1h-10zM54 29h2v1h-2zM8 30h2v1h-2zM18 30h4v1h-4zM29 30h3v1h-3zM40 30h2v1h-2zM54 30h2v1h-2zM8 31h2v1h-2zM18 31h4v1h-4zM29 31h3v1h-3zM40 31h2v1h-2zM54 31h2v1h-2zM8 32h2v1h-2zM18 32h4v1h-4zM29 32h3v1h-3zM40 32h2v1h-2zM54 32h2v1h-2zM8 33h2v1h-2zM18 33h4v1h-4zM29 33h3v1h-3zM54 33h2v1h-2zM8 34h2v1h-2zM18 34h4v1h-4zM28 34h4v1h-4zM54 34h2v1h-2zM8 35h2v1h-2zM18 35h4v1h-4zM28 35h4v1h-4zM54 35h2v1h-2zM8 36h2v1h-2zM18 36h4v1h-4zM27 36h5v1h-5zM54 36h2v1h-2zM8 37h2v1h-2zM18 37h4v1h-4zM27 37h4v1h-4zM54 37h2v1h-2zM8 38h2v1h-2zM18 38h4v1h-4zM26 38h5v1h-5zM54 38h2v1h-2zM8 39h2v1h-2zM18 39h12v1h-12zM54 39h2v1h-2zM8 40h2v1h-2zM18 40h11v1h-11zM54 40h2v1h-2zM8 41h2v1h-2zM18 41h10v1h-10zM54 41h2v1h-2zM8 42h2v1h-2zM54 42h2v1h-2zM8 43h2v1h-2zM54 43h2v1h-2zM8 44h2v1h-2zM54 44h2v1h-2zM8 45h2v1h-2zM54 45h2v1h-2zM8 46h2v1h-2zM53 46h3v1h-3zM8 47h3v1h-3zM52 47h4v1h-4zM9 48h46v1h-46zM10 49h44v1h-44z"/>
</svg>
