<svg xmlns="http://www.w3.org/2000/svg" width="64" height="64" viewBox="0 0 64 64">
  <path fill="#000" d="M31 8h3v1h-3zM30 9h4v1h-4zM30 10h4v1h-4zM15 11h1v1h-1zM30 11h4v1h-4zM48 11h1v1h-1zM14 12h3v1h-3zM30 12h4v1h-4zM47 12h3v1h-3zM14 13h4v1h-4zM30 13h4v1h-4zM46 13h4v1h-4zM14 14h5v1h-5zM30 14h4v1h-4zM46 14h4v1h-4zM15 15h5v1h-5zM30 15h4v1h-4zM45 15h4v1h-4zM16 16h5v1h-5zM30 16h4v1h-4zM44 16h4v1h-4zM17 17h5v1h-5zM31 17h3v1h-3zM43 17h4v1h-4zM18 18h4v1h-4zM43 18h4v1h-4zM19 19h2v1h-2zM44 19h2v1h-2zM12 26h40v1h-40zM12 27h40v1h-40zM12 28h40v1h-40zM12 29h2v1h-2zM50 29h2v1h-2zM12 30h2v1h-2zM50 30h2v1h-2zM12 31h2v1h-2zM19 31h3v1h-3zM50 31h2v1h-2zM12 32h2v1h-2zM17 32h6v1h-6zM50 32h2v1h-2zM12 33h2v1h-2zM17 33h6v1h-6zM50 33h2v1h-2zM12 34h2v1h-2zM18 34h4v1h-4zM24 34h3v1h-3zM50 34h2v1h-2zM12 35h2v1h-2zM18 35h11v1h-11zM50 35h2v1h-2zM12 36h2v1h-2zM22 36h7v1h-7zM50 36h2v1h-2zM12 37h2v1h-2zM21 37h9v1h-9zM50 37h2v1h-2zM12 38h2v1h-2zM21 38h10v1h-10zM50 38h2v1h-2zM12 39h2v1h-2zM20 39h11v1h-11zM50 39h2v1h-2zM12 40h2v1h-2zM20 40h12v1h-12zM50 40h2v1h-2zM12 41h2v1h-2zM19 41h14v1h-14zM50 41h2v1h-2zM12 42h2v1h-2zM18 42h15v1h-15zM39 42h3v1h-3zM50 42h2v1h-2zM12 43h2v1h-2zM18 43h16v1h-16zM38 43h5v1h-5zM50 43h2v1h-2zM12 44h2v1h-2zM17 44h17v1h-17zM37 44h7v1h-7zM50 44h2v1h-2zM12 45h2v1h-2zM16 45h19v1h-19zM36 45h9v1h-9zM50 45h2v1h-2zM12 46h2v1h-2zM16 46h29v1h-29zM50 46h2v1h-2zM12 47h2v1h-2zM16 47h30v1h-30zM50 47h2v1h-2zM12 48h2v1h-2zM16 48h31v1h-31zM50 48h2v1h-2zM12 49h2v1h-2zM16 49h32v1h-32zM50 49h2v1h-2zM12 50h2v1h-2zM17 50h31v1h-31zM50 50h2v1h-2zM12 51h2v1h-2zM50 51h2v1h-2zM12 52h2v1h-2zM50 52h2v1h-2zM12 53h2v1h-2zM50 53h2v1h-2zM12 54h40v1h-40zM12 55h40v1h-40z"/>
</svg>
