<svg xmlns="http://www.w3.org/2000/svg" width="64" height="64" viewBox="0 0 64 64">
  <path fill="#000" d="M31 16h2v1h-2zM30 17h3v1h-3zM34 17h2v1h-2zM12 18h1v1h-1zM27 18h2v1h-2zM30 18h3v1h-3zM34 18h3v1h-3zM51 18h2v1h-2zM11 19h3v1h-3zM26 19h3v1h-3zM30 19h3v1h-3zM34 19h3v1h-3zM50 19h3v1h-3zM10 20h4v1h-4zM26 20h3v1h-3zM30 20h3v1h-3zM34 20h3v1h-3zM39 20h1v1h-1zM51 20h3v1h-3zM10 21h3v1h-3zM26 21h3v1h-3zM30 21h3v1h-3zM34 21h3v1h-3zM38 21h3v1h-3zM46 21h1v1h-1zM52 21h3v1h-3zM9 22h3v1h-3zM17 22h2v1h-2zM26 22h3v1h-3zM30 22h3v1h-3zM34 22h3v1h-3zM38 22h3v1h-3zM45 22h3v1h-3zM52 22h3v1h-3zM9 23h3v1h-3zM16 23h4v1h-4zM26 23h3v1h-3zM30 23h3v1h-3zM34 23h3v1h-3zM38 23h3v1h-3zM44 23h4v1h-4zM52 23h4v1h-4zM8 24h4v1h-4zM15 24h4v1h-4zM26 24h3v1h-3zM30 24h3v1h-3zM34 24h3v1h-3zM38 24h3v1h-3zM45 24h4v1h-4zM53 24h2v1h-2zM9 25h2v1h-2zM15 25h4v1h-4zM26 25h3v1h-3zM30 25h3v1h-3zM34 25h3v1h-3zM38 25h3v1h-3zM46 25h3v1h-3zM53 25h3v1h-3zM8 26h3v1h-3zM15 26h3v1h-3zM26 26h3v1h-3zM30 26h3v1h-3zM34 26h3v1h-3zM38 26h3v1h-3zM46 26h4v1h-4zM53 26h3v1h-3zM8 27h3v1h-3zM15 27h3v1h-3zM26 27h3v1h-3zM30 27h3v1h-3zM34 27h3v1h-3zM38 27h3v1h-3zM47 27h3v1h-3zM53 27h3v1h-3zM8 28h3v1h-3zM14 28h3v1h-3zM21 28h2v1h-2zM26 28h3v1h-3zM30 28h3v1h-3zM34 28h3v1h-3zM38 28h3v1h-3zM47 28h3v1h-3zM53 28h3v1h-3zM8 29h3v1h-3zM14 29h3v1h-3zM20 29h4v1h-4zM26 29h3v1h-3zM30 29h3v1h-3zM34 29h3v1h-3zM38 29h3v1h-3zM48 29h2v1h-2zM54 29h2v1h-2zM8 30h3v1h-3zM14 30h3v1h-3zM20 30h4v1h-4zM26 30h3v1h-3zM30 30h7v1h-7zM38 30h3v1h-3zM48 30h3v1h-3zM54 30h2v1h-2zM8 31h3v1h-3zM14 31h3v1h-3zM21 31h3v1h-3zM26 31h15v1h-15zM48 31h3v1h-3zM54 31h2v1h-2zM8 32h3v1h-3zM14 32h3v1h-3zM21 32h4v1h-4zM26 32h15v1h-15zM48 32h3v1h-3zM54 32h2v1h-2zM8 33h3v1h-3zM14 33h3v1h-3zM21 33h4v1h-4zM26 33h15v1h-15zM48 33h3v1h-3zM54 33h2v1h-2zM8 34h3v1h-3zM14 34h3v1h-3zM22 34h3v1h-3zM26 34h15v1h-15zM47 34h3v1h-3zM53 34h3v1h-3zM8 35h3v1h-3zM14 35h3v1h-3zM22 35h19v1h-19zM47 35h3v1h-3zM53 35h3v1h-3zM8 36h3v1h-3zM15 36h3v1h-3zM22 36h19v1h-19zM47 36h3v1h-3zM53 36h3v1h-3zM9 37h2v1h-2zM15 37h3v1h-3zM23 37h18v1h-18zM46 37h4v1h-4zM53 37h3v1h-3zM8 38h4v1h-4zM15 38h4v1h-4zM23 38h18v1h-18zM46 38h3v1h-3zM53 38h3v1h-3zM8 39h4v1h-4zM16 39h3v1h-3zM23 39h18v1h-18zM45 39h4v1h-4zM52 39h3v1h-3zM9 40h3v1h-3zM16 40h4v1h-4zM24 40h17v1h-17zM45 40h3v1h-3zM52 40h4v1h-4zM9 41h4v1h-4zM17 41h2v1h-2zM25 41h16v1h-16zM45 41h3v1h-3zM52 41h3v1h-3zM10 42h3v1h-3zM25 42h15v1h-15zM46 42h1v1h-1zM51 42h4v1h-4zM11 43h3v1h-3zM25 43h15v1h-15zM51 43h3v1h-3zM11 44h3v1h-3zM26 44h14v1h-14zM51 44h2v1h-2zM27 45h12v1h-12zM27 46h11v1h-11zM28 47h10v1h-10z"/>
</svg>
