<svg xmlns="http://www.w3.org/2000/svg" width="64" height="64" viewBox="0 0 64 64">
  <path fill="#000" d="M29 15h3v1h-3zM38 15h6v1h-6zM26 16h6v1h-6zM38 16h6v1h-6zM24 17h8v1h-8zM38 17h6v1h-6zM22 18h10v1h-10zM38 18h6v1h-6zM21 19h11v1h-11zM38 19h6v1h-6zM20 20h12v1h-12zM38 20h6v1h-6zM18 21h14v1h-14zM38 21h6v1h-6zM17 22h15v1h-15zM38 22h6v1h-6zM16 23h16v1h-16zM38 23h6v1h-6zM16 24h16v1h-16zM38 24h6v1h-6zM15 25h17v1h-17zM38 25h6v1h-6zM14 26h18v1h-18zM38 26h6v1h-6zM14 27h18v1h-18zM38 27h6v1h-6zM13 28h19v1h-19zM38 28h6v1h-6zM13 29h19v1h-19zM38 29h6v1h-6zM12 30h20v1h-20zM38 30h6v1h-6zM12 31h20v1h-20zM38 31h6v1h-6zM11 32h21v1h-21zM38 32h6v1h-6zM11 33h21v1h-21zM38 33h6v1h-6zM10 34h22v1h-22zM38 34h6v1h-6zM10 35h22v1h-22zM38 35h6v1h-6zM10 36h22v1h-22zM38 36h6v1h-6zM9 37h23v1h-23zM38 37h6v1h-6zM9 38h23v1h-23zM38 38h6v1h-6zM9 39h23v1h-23zM38 39h6v1h-6zM9 40h23v1h-23zM38 40h6v1h-6zM9 41h23v1h-23zM38 41h6v1h-6zM8 42h24v1h-24zM38 42h7v1h-7zM8 43h24v1h-24zM38 43h18v1h-18zM8 44h24v1h-24zM38 44h18v1h-18zM8 45h24v1h-24zM38 45h18v1h-18zM8 46h24v1h-24zM38 46h18v1h-18zM8 47h24v1h-24zM38 47h18v1h-18z"/>
</svg>
