<svg xmlns="http://www.w3.org/2000/svg" width="64" height="64" viewBox="0 0 64 64">
  <path fill="#000" d="M17 18h4v1h-4zM17 19h4v1h-4zM17 20h7v1h-7zM17 21h8v1h-8zM17 22h9v1h-9zM11 23h2v1h-2zM18 23h2v1h-2zM23 23h4v1h-4zM10 24h4v1h-4zM25 24h3v1h-3zM9 25h5v1h-5zM26 25h3v1h-3zM9 26h3v1h-3zM14 26h3v1h-3zM26 26h4v1h-4zM33 26h15v1h-15zM8 27h4v1h-4zM14 27h4v1h-4zM27 27h3v1h-3zM33 27h16v1h-16zM8 28h3v1h-3zM15 28h4v1h-4zM28 28h2v1h-2zM33 28h2v1h-2zM46 28h3v1h-3zM8 29h3v1h-3zM15 29h5v1h-5zM28 29h3v1h-3zM33 29h2v1h-2zM46 29h3v1h-3zM50 29h2v1h-2zM8 30h3v1h-3zM16 30h5v1h-5zM28 30h3v1h-3zM33 30h2v1h-2zM46 30h6v1h-6zM8 31h2v1h-2zM17 31h4v1h-4zM28 31h3v1h-3zM33 31h2v1h-2zM46 31h3v1h-3zM50 31h2v1h-2zM8 32h2v1h-2zM17 32h4v1h-4zM28 32h3v1h-3zM33 32h2v1h-2zM46 32h3v1h-3zM50 32h2v1h-2zM8 33h3v1h-3zM18 33h3v1h-3zM28 33h3v1h-3zM33 33h2v1h-2zM46 33h3v1h-3zM50 33h2v1h-2zM53 33h3v1h-3zM8 34h3v1h-3zM28 34h3v1h-3zM33 34h2v1h-2zM46 34h2v1h-2zM50 34h2v1h-2zM53 34h3v1h-3zM8 35h3v1h-3zM27 35h3v1h-3zM33 35h2v1h-2zM46 35h2v1h-2zM50 35h2v1h-2zM54 35h2v1h-2zM8 36h4v1h-4zM27 36h3v1h-3zM33 36h2v1h-2zM46 36h2v1h-2zM50 36h2v1h-2zM54 36h2v1h-2zM9 37h4v1h-4zM26 37h3v1h-3zM33 37h15v1h-15zM50 37h2v1h-2zM54 37h2v1h-2zM9 38h5v1h-5zM25 38h4v1h-4zM33 38h15v1h-15zM50 38h2v1h-2zM54 38h2v1h-2zM10 39h5v1h-5zM24 39h4v1h-4zM37 39h1v1h-1zM50 39h2v1h-2zM54 39h2v1h-2zM11 40h6v1h-6zM21 40h6v1h-6zM36 40h2v1h-2zM50 40h2v1h-2zM54 40h2v1h-2zM12 41h14v1h-14zM36 41h16v1h-16zM54 41h2v1h-2zM14 42h11v1h-11zM37 42h15v1h-15zM54 42h2v1h-2zM16 43h7v1h-7zM41 43h1v1h-1zM54 43h2v1h-2zM41 44h15v1h-15zM41 45h15v1h-15z"/>
</svg>
