<svg xmlns="http://www.w3.org/2000/svg" width="64" height="64" viewBox="0 0 64 64">
  <path fill="#000" d="M11 20h2v1h-2zM51 20h2v1h-2zM10 21h2v1h-2zM14 21h2v1h-2zM48 21h2v1h-2zM52 21h2v1h-2zM9 22h3v1h-3zM14 22h2v1h-2zM24 22h3v1h-3zM33 22h6v1h-6zM48 22h2v1h-2zM52 22h3v1h-3zM9 23h2v1h-2zM13 23h3v1h-3zM18 23h2v1h-2zM24 23h4v1h-4zM32 23h8v1h-8zM44 23h2v1h-2zM48 23h3v1h-3zM53 23h2v1h-2zM8 24h3v1h-3zM13 24h3v1h-3zM17 24h3v1h-3zM24 24h4v1h-4zM31 24h9v1h-9zM44 24h2v1h-2zM49 24h2v1h-2zM53 24h3v1h-3zM9 25h2v1h-2zM13 25h2v1h-2zM17 25h2v1h-2zM24 25h4v1h-4zM30 25h4v1h-4zM38 25h1v1h-1zM45 25h2v1h-2zM49 25h3v1h-3zM53 25h2v1h-2zM8 26h3v1h-3zM12 26h3v1h-3zM17 26h2v1h-2zM24 26h4v1h-4zM30 26h4v1h-4zM44 26h3v1h-3zM49 26h2v1h-2zM53 26h3v1h-3zM8 27h2v1h-2zM13 27h2v1h-2zM16 27h3v1h-3zM24 27h4v1h-4zM30 27h3v1h-3zM45 27h3v1h-3zM49 27h3v1h-3zM54 27h2v1h-2zM8 28h2v1h-2zM12 28h3v1h-3zM16 28h3v1h-3zM24 28h4v1h-4zM30 28h4v1h-4zM45 28h3v1h-3zM49 28h3v1h-3zM54 28h2v1h-2zM8 29h2v1h-2zM12 29h3v1h-3zM17 29h2v1h-2zM24 29h4v1h-4zM30 29h6v1h-6zM45 29h2v1h-2zM50 29h2v1h-2zM54 29h2v1h-2zM8 30h2v1h-2zM12 30h2v1h-2zM16 30h3v1h-3zM24 30h4v1h-4zM31 30h6v1h-6zM45 30h3v1h-3zM50 30h2v1h-2zM54 30h2v1h-2zM8 31h2v1h-2zM12 31h2v1h-2zM16 31h2v1h-2zM25 31h3v1h-3zM32 31h7v1h-7zM45 31h3v1h-3zM50 31h2v1h-2zM54 31h2v1h-2zM8 32h2v1h-2zM12 32h2v1h-2zM16 32h3v1h-3zM24 32h4v1h-4zM34 32h5v1h-5zM45 32h2v1h-2zM50 32h2v1h-2zM54 32h2v1h-2zM8 33h2v1h-2zM12 33h3v1h-3zM17 33h2v1h-2zM24 33h4v1h-4zM36 33h4v1h-4zM45 33h3v1h-3zM50 33h2v1h-2zM54 33h2v1h-2zM8 34h2v1h-2zM13 34h2v1h-2zM16 34h3v1h-3zM24 34h4v1h-4zM37 34h3v1h-3zM45 34h3v1h-3zM49 34h3v1h-3zM54 34h2v1h-2zM8 35h3v1h-3zM12 35h3v1h-3zM17 35h2v1h-2zM24 35h4v1h-4zM36 35h4v1h-4zM44 35h4v1h-4zM49 35h2v1h-2zM53 35h3v1h-3zM9 36h2v1h-2zM12 36h3v1h-3zM17 36h2v1h-2zM24 36h4v1h-4zM37 36h3v1h-3zM45 36h2v1h-2zM49 36h3v1h-3zM53 36h3v1h-3zM8 37h3v1h-3zM13 37h2v1h-2zM17 37h3v1h-3zM24 37h4v1h-4zM30 37h2v1h-2zM36 37h4v1h-4zM44 37h3v1h-3zM49 37h2v1h-2zM53 37h2v1h-2zM9 38h2v1h-2zM13 38h3v1h-3zM18 38h2v1h-2zM24 38h4v1h-4zM30 38h9v1h-9zM44 38h2v1h-2zM48 38h3v1h-3zM52 38h4v1h-4zM9 39h3v1h-3zM14 39h2v1h-2zM24 39h4v1h-4zM30 39h9v1h-9zM44 39h1v1h-1zM48 39h3v1h-3zM53 39h2v1h-2zM9 40h3v1h-3zM14 40h2v1h-2zM25 40h2v1h-2zM32 40h5v1h-5zM48 40h2v1h-2zM52 40h3v1h-3zM10 41h3v1h-3zM15 41h1v1h-1zM48 41h1v1h-1zM51 41h3v1h-3zM11 42h2v1h-2zM51 42h2v1h-2z"/>
</svg>
