<svg xmlns="http://www.w3.org/2000/svg" width="64" height="64" viewBox="0 0 64 64">
  <path fill="#000" d="M8 12h31v1h-31zM8 13h31v1h-31zM8 14h31v1h-31zM8 15h2v1h-2zM37 15h2v1h-2zM8 16h2v1h-2zM37 16h2v1h-2zM8 17h2v1h-2zM37 17h2v1h-2zM8 18h2v1h-2zM37 18h2v1h-2zM8 19h2v1h-2zM37 19h2v1h-2zM8 20h2v1h-2zM37 20h2v1h-2zM41 20h6v1h-6zM8 21h2v1h-2zM15 21h3v1h-3zM37 21h2v1h-2zM41 21h6v1h-6zM8 22h2v1h-2zM15 22h5v1h-5zM29 22h6v1h-6zM37 22h2v1h-2zM43 22h4v1h-4zM8 23h2v1h-2zM15 23h7v1h-7zM25 23h10v1h-10zM43 23h4v1h-4zM8 24h2v1h-2zM15 24h7v1h-7zM23 24h12v1h-12zM43 24h4v1h-4zM8 25h2v1h-2zM15 25h3v1h-3zM21 25h14v1h-14zM43 25h4v1h-4zM8 26h2v1h-2zM15 26h2v1h-2zM21 26h4v1h-4zM33 26h1v1h-1zM43 26h4v1h-4zM8 27h2v1h-2zM15 27h2v1h-2zM20 27h4v1h-4zM8 28h2v1h-2zM15 28h2v1h-2zM18 28h5v1h-5zM8 29h2v1h-2zM15 29h7v1h-7zM8 30h2v1h-2zM17 30h3v1h-3zM8 31h2v1h-2zM16 31h3v1h-3zM8 32h2v1h-2zM15 32h4v1h-4zM8 33h2v1h-2zM14 33h4v1h-4zM8 34h2v1h-2zM14 34h4v1h-4zM26 34h6v1h-6zM38 34h8v1h-8zM48 34h8v1h-8zM8 35h2v1h-2zM13 35h3v1h-3zM25 35h8v1h-8zM38 35h8v1h-8zM48 35h8v1h-8zM8 36h2v1h-2zM12 36h4v1h-4zM24 36h5v1h-5zM30 36h4v1h-4zM38 36h8v1h-8zM48 36h8v1h-8zM8 37h2v1h-2zM12 37h3v1h-3zM24 37h4v1h-4zM31 37h4v1h-4zM38 37h2v1h-2zM48 37h3v1h-3zM8 38h2v1h-2zM24 38h3v1h-3zM32 38h3v1h-3zM38 38h2v1h-2zM48 38h3v1h-3zM8 39h2v1h-2zM23 39h4v1h-4zM32 39h3v1h-3zM38 39h2v1h-2zM48 39h3v1h-3zM8 40h2v1h-2zM23 40h3v1h-3zM33 40h3v1h-3zM38 40h2v1h-2zM48 40h3v1h-3zM8 41h2v1h-2zM23 41h3v1h-3zM33 41h3v1h-3zM38 41h3v1h-3zM43 41h2v1h-2zM48 41h7v1h-7zM8 42h10v1h-10zM23 42h3v1h-3zM33 42h3v1h-3zM38 42h8v1h-8zM48 42h7v1h-7zM8 43h11v1h-11zM23 43h3v1h-3zM33 43h3v1h-3zM38 43h8v1h-8zM48 43h7v1h-7zM23 44h3v1h-3zM33 44h3v1h-3zM38 44h3v1h-3zM48 44h3v1h-3zM23 45h3v1h-3zM33 45h3v1h-3zM38 45h2v1h-2zM48 45h3v1h-3zM24 46h3v1h-3zM32 46h4v1h-4zM38 46h2v1h-2zM48 46h3v1h-3zM24 47h3v1h-3zM32 47h3v1h-3zM38 47h2v1h-2zM48 47h3v1h-3zM24 48h4v1h-4zM31 48h4v1h-4zM38 48h2v1h-2zM48 48h3v1h-3zM24 49h5v1h-5zM30 49h5v1h-5zM38 49h2v1h-2zM48 49h3v1h-3zM25 50h8v1h-8zM37 50h3v1h-3zM48 50h3v1h-3zM26 51h6v1h-6zM38 51h2v1h-2zM48 51h3v1h-3z"/>
</svg>
