<svg xmlns="http://www.w3.org/2000/svg" width="64" height="64" viewBox="0 0 64 64">
  <path fill="#000" d="M8 9h5v1h-5zM19 9h3v1h-3zM25 9h9v1h-9zM8 10h5v1h-5zM19 10h3v1h-3zM25 10h10v1h-10zM8 11h5v1h-5zM19 11h3v1h-3zM25 11h11v1h-11zM8 12h6v1h-6zM19 12h3v1h-3zM25 12h3v1h-3zM31 12h5v1h-5zM8 13h6v1h-6zM19 13h3v1h-3zM25 13h3v1h-3zM32 13h4v1h-4zM8 14h7v1h-7zM19 14h3v1h-3zM25 14h3v1h-3zM33 14h3v1h-3zM8 15h3v1h-3zM12 15h3v1h-3zM19 15h3v1h-3zM25 15h3v1h-3zM33 15h3v1h-3zM8 16h3v1h-3zM12 16h4v1h-4zM19 16h3v1h-3zM25 16h3v1h-3zM32 16h4v1h-4zM8 17h3v1h-3zM12 17h4v1h-4zM19 17h3v1h-3zM25 17h3v1h-3zM31 17h5v1h-5zM8 18h3v1h-3zM13 18h3v1h-3zM19 18h3v1h-3zM25 18h10v1h-10zM8 19h3v1h-3zM13 19h4v1h-4zM18 19h4v1h-4zM25 19h9v1h-9zM8 20h3v1h-3zM14 20h3v1h-3zM18 20h4v1h-4zM25 20h9v1h-9zM8 21h3v1h-3zM14 21h3v1h-3zM19 21h3v1h-3zM25 21h3v1h-3zM31 21h4v1h-4zM8 22h3v1h-3zM15 22h3v1h-3zM19 22h3v1h-3zM25 22h3v1h-3zM31 22h4v1h-4zM8 23h3v1h-3zM15 23h7v1h-7zM25 23h3v1h-3zM31 23h5v1h-5zM8 24h3v1h-3zM15 24h7v1h-7zM25 24h3v1h-3zM32 24h3v1h-3zM40 24h4v1h-4zM8 25h3v1h-3zM16 25h6v1h-6zM25 25h3v1h-3zM32 25h4v1h-4zM39 25h6v1h-6zM8 26h3v1h-3zM17 26h5v1h-5zM25 26h3v1h-3zM33 26h3v1h-3zM39 26h6v1h-6zM8 27h3v1h-3zM17 27h5v1h-5zM25 27h3v1h-3zM33 27h3v1h-3zM39 27h8v1h-8zM8 28h3v1h-3zM17 28h5v1h-5zM25 28h3v1h-3zM33 28h4v1h-4zM39 28h10v1h-10zM39 29h12v1h-12zM32 30h1v1h-1zM40 30h3v1h-3zM46 30h6v1h-6zM32 31h2v1h-2zM48 31h5v1h-5zM30 32h2v1h-2zM33 32h3v1h-3zM50 32h4v1h-4zM29 33h8v1h-8zM51 33h3v1h-3zM29 34h4v1h-4zM35 34h3v1h-3zM51 34h4v1h-4zM29 35h3v1h-3zM36 35h3v1h-3zM52 35h3v1h-3zM28 36h4v1h-4zM36 36h4v1h-4zM52 36h3v1h-3zM28 37h4v1h-4zM37 37h4v1h-4zM53 37h3v1h-3zM28 38h3v1h-3zM38 38h5v1h-5zM53 38h3v1h-3zM28 39h3v1h-3zM39 39h5v1h-5zM53 39h3v1h-3zM28 40h3v1h-3zM39 40h5v1h-5zM53 40h3v1h-3zM28 41h3v1h-3zM39 41h5v1h-5zM53 41h3v1h-3zM28 42h3v1h-3zM40 42h3v1h-3zM53 42h3v1h-3zM28 43h3v1h-3zM53 43h3v1h-3zM28 44h4v1h-4zM53 44h3v1h-3zM28 45h4v1h-4zM52 45h3v1h-3zM29 46h3v1h-3zM52 46h3v1h-3zM29 47h4v1h-4zM51 47h3v1h-3zM30 48h4v1h-4zM50 48h4v1h-4zM30 49h5v1h-5zM49 49h5v1h-5zM30 50h6v1h-6zM48 50h5v1h-5zM32 51h6v1h-6zM46 51h6v1h-6zM33 52h18v1h-18zM34 53h15v1h-15zM37 54h9v1h-9z"/>
</svg>
