<svg xmlns="http://www.w3.org/2000/svg" width="64" height="64" viewBox="0 0 64 64">
  <path fill="#000" d="M11 13h17v1h-17zM36 13h18v1h-18zM9 14h19v1h-19zM36 14h19v1h-19zM9 15h19v1h-19zM36 15h19v1h-19zM8 16h4v1h-4zM52 16h4v1h-4zM8 17h3v1h-3zM53 17h3v1h-3zM8 18h3v1h-3zM53 18h3v1h-3zM8 19h3v1h-3zM53 19h3v1h-3zM8 20h3v1h-3zM53 20h3v1h-3zM8 21h3v1h-3zM25 21h6v1h-6zM33 21h5v1h-5zM53 21h3v1h-3zM8 22h3v1h-3zM24 22h7v1h-7zM33 22h6v1h-6zM53 22h3v1h-3zM8 23h3v1h-3zM23 23h7v1h-7zM34 23h7v1h-7zM53 23h3v1h-3zM8 24h3v1h-3zM22 24h6v1h-6zM36 24h5v1h-5zM53 24h3v1h-3zM8 25h3v1h-3zM22 25h4v1h-4zM37 25h5v1h-5zM53 25h3v1h-3zM8 26h3v1h-3zM21 26h4v1h-4zM39 26h4v1h-4zM53 26h3v1h-3zM8 27h3v1h-3zM21 27h3v1h-3zM40 27h3v1h-3zM53 27h3v1h-3zM8 28h3v1h-3zM21 28h2v1h-2zM29 28h6v1h-6zM40 28h3v1h-3zM53 28h3v1h-3zM8 29h3v1h-3zM20 29h3v1h-3zM28 29h8v1h-8zM41 29h3v1h-3zM53 29h3v1h-3zM8 30h3v1h-3zM20 30h3v1h-3zM27 30h9v1h-9zM41 30h3v1h-3zM53 30h3v1h-3zM8 31h3v1h-3zM20 31h3v1h-3zM27 31h10v1h-10zM41 31h3v1h-3zM53 31h3v1h-3zM8 32h3v1h-3zM20 32h3v1h-3zM27 32h9v1h-9zM41 32h3v1h-3zM53 32h3v1h-3zM8 33h3v1h-3zM20 33h3v1h-3zM28 33h8v1h-8zM41 33h3v1h-3zM53 33h3v1h-3zM8 34h3v1h-3zM20 34h3v1h-3zM29 34h6v1h-6zM41 34h3v1h-3zM53 34h3v1h-3zM8 35h3v1h-3zM21 35h3v1h-3zM30 35h4v1h-4zM40 35h3v1h-3zM53 35h3v1h-3zM8 36h3v1h-3zM21 36h4v1h-4zM39 36h4v1h-4zM53 36h3v1h-3zM8 37h3v1h-3zM21 37h5v1h-5zM38 37h5v1h-5zM53 37h3v1h-3zM8 38h3v1h-3zM22 38h5v1h-5zM37 38h5v1h-5zM53 38h3v1h-3zM8 39h3v1h-3zM23 39h6v1h-6zM35 39h6v1h-6zM53 39h3v1h-3zM8 40h3v1h-3zM24 40h6v1h-6zM34 40h6v1h-6zM53 40h3v1h-3zM8 41h3v1h-3zM25 41h6v1h-6zM33 41h6v1h-6zM53 41h3v1h-3zM8 42h3v1h-3zM27 42h4v1h-4zM33 42h4v1h-4zM53 42h3v1h-3zM8 43h3v1h-3zM53 43h3v1h-3zM8 44h3v1h-3zM53 44h3v1h-3zM8 45h3v1h-3zM53 45h3v1h-3zM8 46h3v1h-3zM53 46h3v1h-3zM8 47h4v1h-4zM52 47h4v1h-4zM9 48h19v1h-19zM36 48h19v1h-19zM10 49h18v1h-18zM36 49h19v1h-19z"/>
</svg>
