<svg xmlns="http://www.w3.org/2000/svg" width="64" height="64" viewBox="0 0 64 64">
  <path fill="#000" d="M8 8h12v1h-12zM42 8h14v1h-14zM8 9h14v1h-14zM42 9h14v1h-14zM8 10h14v1h-14zM42 10h14v1h-14zM8 11h14v1h-14zM42 11h14v1h-14zM8 12h14v1h-14zM41 12h15v1h-15zM8 13h15v1h-15zM41 13h15v1h-15zM8 14h15v1h-15zM41 14h15v1h-15zM8 15h15v1h-15zM41 15h15v1h-15zM8 16h15v1h-15zM40 16h16v1h-16zM8 17h15v1h-15zM40 17h16v1h-16zM8 18h16v1h-16zM40 18h16v1h-16zM8 19h16v1h-16zM39 19h17v1h-17zM8 20h8v1h-8zM17 20h7v1h-7zM38 20h9v1h-9zM48 20h8v1h-8zM8 21h8v1h-8zM17 21h7v1h-7zM38 21h9v1h-9zM48 21h8v1h-8zM8 22h8v1h-8zM17 22h8v1h-8zM38 22h9v1h-9zM48 22h8v1h-8zM8 23h8v1h-8zM17 23h9v1h-9zM38 23h8v1h-8zM48 23h8v1h-8zM8 24h8v1h-8zM17 24h9v1h-9zM37 24h9v1h-9zM48 24h8v1h-8zM8 25h8v1h-8zM17 25h9v1h-9zM37 25h9v1h-9zM48 25h8v1h-8zM8 26h8v1h-8zM18 26h9v1h-9zM37 26h9v1h-9zM48 26h8v1h-8zM8 27h8v1h-8zM18 27h9v1h-9zM37 27h9v1h-9zM48 27h8v1h-8zM8 28h8v1h-8zM18 28h9v1h-9zM37 28h8v1h-8zM48 28h8v1h-8zM8 29h8v1h-8zM19 29h8v1h-8zM36 29h8v1h-8zM48 29h8v1h-8zM8 30h8v1h-8zM20 30h8v1h-8zM36 30h8v1h-8zM48 30h8v1h-8zM8 31h8v1h-8zM20 31h8v1h-8zM36 31h8v1h-8zM48 31h8v1h-8zM8 32h8v1h-8zM20 32h8v1h-8zM36 32h7v1h-7zM48 32h8v1h-8zM8 33h8v1h-8zM20 33h8v1h-8zM34 33h9v1h-9zM48 33h8v1h-8zM8 34h8v1h-8zM21 34h8v1h-8zM34 34h9v1h-9zM48 34h8v1h-8zM8 35h8v1h-8zM21 35h9v1h-9zM34 35h9v1h-9zM48 35h8v1h-8zM8 36h8v1h-8zM21 36h9v1h-9zM34 36h8v1h-8zM48 36h8v1h-8zM8 37h8v1h-8zM21 37h9v1h-9zM33 37h9v1h-9zM48 37h8v1h-8zM8 38h8v1h-8zM22 38h9v1h-9zM33 38h9v1h-9zM48 38h8v1h-8zM8 39h8v1h-8zM22 39h9v1h-9zM33 39h9v1h-9zM48 39h8v1h-8zM8 40h8v1h-8zM22 40h9v1h-9zM33 40h8v1h-8zM48 40h8v1h-8zM8 41h8v1h-8zM22 41h9v1h-9zM32 41h8v1h-8zM48 41h8v1h-8zM8 42h8v1h-8zM22 42h18v1h-18zM48 42h8v1h-8zM8 43h8v1h-8zM24 43h16v1h-16zM48 43h8v1h-8zM8 44h8v1h-8zM24 44h15v1h-15zM48 44h8v1h-8zM8 45h8v1h-8zM24 45h15v1h-15zM48 45h8v1h-8zM8 46h8v1h-8zM25 46h14v1h-14zM48 46h8v1h-8zM8 47h8v1h-8zM25 47h14v1h-14zM48 47h8v1h-8zM8 48h8v1h-8zM25 48h14v1h-14zM48 48h8v1h-8zM8 49h8v1h-8zM25 49h14v1h-14zM48 49h8v1h-8zM8 50h8v1h-8zM25 50h13v1h-13zM48 50h8v1h-8zM8 51h8v1h-8zM26 51h12v1h-12zM48 51h8v1h-8zM8 52h8v1h-8zM26 52h11v1h-11zM48 52h8v1h-8zM8 53h8v1h-8zM26 53h10v1h-10zM48 53h8v1h-8zM8 54h8v1h-8zM26 54h10v1h-10zM48 54h8v1h-8zM8 55h8v1h-8zM28 55h8v1h-8zM48 55h8v1h-8z"/>
</svg>
