<svg xmlns="http://www.w3.org/2000/svg" width="64" height="64" viewBox="0 0 64 64">
  <path fill="#000" d="M23 9h10v1h-10zM43 9h9v1h-9zM22 10h13v1h-13zM41 10h13v1h-13zM8 11h1v1h-1zM21 11h15v1h-15zM40 11h15v1h-15zM8 12h3v1h-3zM20 12h17v1h-17zM39 12h16v1h-16zM8 13h4v1h-4zM20 13h36v1h-36zM8 14h6v1h-6zM20 14h36v1h-36zM8 15h8v1h-8zM20 15h35v1h-35zM8 16h9v1h-9zM20 16h35v1h-35zM8 17h9v1h-9zM20 17h35v1h-35zM8 18h9v1h-9zM20 18h35v1h-35zM8 19h9v1h-9zM20 19h35v1h-35zM8 20h9v1h-9zM20 20h35v1h-35zM8 21h9v1h-9zM20 21h35v1h-35zM8 22h9v1h-9zM20 22h35v1h-35zM8 23h9v1h-9zM20 23h35v1h-35zM8 24h9v1h-9zM20 24h36v1h-36zM8 25h9v1h-9zM20 25h36v1h-36zM8 26h9v1h-9zM20 26h36v1h-36zM8 27h8v1h-8zM20 27h36v1h-36zM8 28h7v1h-7zM20 28h36v1h-36zM8 29h5v1h-5zM20 29h36v1h-36zM8 30h3v1h-3zM20 30h36v1h-36zM8 31h2v1h-2zM20 31h35v1h-35zM21 32h33v1h-33zM22 33h31v1h-31zM28 38h4v1h-4zM35 38h3v1h-3zM42 38h4v1h-4zM27 39h4v1h-4zM35 39h3v1h-3zM43 39h4v1h-4zM27 40h4v1h-4zM35 40h3v1h-3zM43 40h4v1h-4zM26 41h4v1h-4zM35 41h3v1h-3zM44 41h4v1h-4zM25 42h5v1h-5zM35 42h3v1h-3zM45 42h3v1h-3zM25 43h4v1h-4zM35 43h3v1h-3zM45 43h4v1h-4zM24 44h4v1h-4zM35 44h3v1h-3zM46 44h4v1h-4zM24 45h4v1h-4zM35 45h3v1h-3zM46 45h4v1h-4zM23 46h4v1h-4zM35 46h3v1h-3zM47 46h4v1h-4zM22 47h4v1h-4zM35 47h3v1h-3zM47 47h4v1h-4zM22 48h4v1h-4zM35 48h3v1h-3zM48 48h4v1h-4zM21 49h4v1h-4zM35 49h3v1h-3zM49 49h4v1h-4zM21 50h4v1h-4zM35 50h3v1h-3zM49 50h4v1h-4zM20 51h4v1h-4zM35 51h3v1h-3zM50 51h4v1h-4zM19 52h4v1h-4zM35 52h3v1h-3zM50 52h4v1h-4zM19 53h4v1h-4zM35 53h3v1h-3zM51 53h4v1h-4zM20 54h2v1h-2zM35 54h3v1h-3zM52 54h2v1h-2z"/>
</svg>
