<svg xmlns="http://www.w3.org/2000/svg" width="64" height="64" viewBox="0 0 64 64">
  <path fill="#000" d="M12 21h4v1h-4zM23 21h9v1h-9zM41 21h14v1h-14zM12 22h5v1h-5zM22 22h10v1h-10zM35 22h2v1h-2zM40 22h16v1h-16zM12 23h5v1h-5zM23 23h9v1h-9zM35 23h3v1h-3zM39 23h17v1h-17zM12 24h5v1h-5zM23 24h3v1h-3zM35 24h21v1h-21zM12 25h6v1h-6zM23 25h3v1h-3zM35 25h21v1h-21zM11 26h3v1h-3zM15 26h3v1h-3zM23 26h3v1h-3zM35 26h21v1h-21zM11 27h3v1h-3zM15 27h3v1h-3zM23 27h3v1h-3zM35 27h21v1h-21zM11 28h3v1h-3zM15 28h3v1h-3zM23 28h3v1h-3zM35 28h21v1h-21zM10 29h4v1h-4zM15 29h3v1h-3zM23 29h8v1h-8zM35 29h21v1h-21zM10 30h3v1h-3zM15 30h3v1h-3zM23 30h9v1h-9zM35 30h3v1h-3zM39 30h17v1h-17zM10 31h3v1h-3zM15 31h4v1h-4zM23 31h9v1h-9zM35 31h2v1h-2zM40 31h16v1h-16zM10 32h3v1h-3zM16 32h3v1h-3zM23 32h3v1h-3zM40 32h16v1h-16zM9 33h10v1h-10zM23 33h3v1h-3zM41 33h14v1h-14zM9 34h11v1h-11zM23 34h3v1h-3zM9 35h11v1h-11zM23 35h3v1h-3zM43 35h2v1h-2zM46 35h3v1h-3zM50 35h2v1h-2zM8 36h12v1h-12zM23 36h3v1h-3zM42 36h3v1h-3zM46 36h3v1h-3zM50 36h2v1h-2zM9 37h2v1h-2zM17 37h4v1h-4zM23 37h3v1h-3zM42 37h3v1h-3zM46 37h3v1h-3zM50 37h3v1h-3zM8 38h3v1h-3zM17 38h4v1h-4zM23 38h3v1h-3zM41 38h3v1h-3zM46 38h3v1h-3zM51 38h2v1h-2zM8 39h3v1h-3zM18 39h3v1h-3zM23 39h3v1h-3zM41 39h2v1h-2zM46 39h3v1h-3zM51 39h3v1h-3zM8 40h3v1h-3zM18 40h3v1h-3zM23 40h3v1h-3zM40 40h3v1h-3zM46 40h3v1h-3zM52 40h2v1h-2zM8 41h2v1h-2zM18 41h2v1h-2zM23 41h2v1h-2zM39 41h3v1h-3zM46 41h3v1h-3zM53 41h2v1h-2zM39 42h3v1h-3zM46 42h3v1h-3zM53 42h3v1h-3z"/>
</svg>
