<svg xmlns="http://www.w3.org/2000/svg" width="64" height="64" viewBox="0 0 64 64">
  <path fill="#000" d="M9 9h46v1h-46zM8 10h2v1h-2zM54 10h2v1h-2zM8 11h2v1h-2zM54 11h2v1h-2zM8 12h2v1h-2zM54 12h2v1h-2zM8 13h2v1h-2zM54 13h2v1h-2zM8 14h2v1h-2zM25 14h4v1h-4zM34 14h3v1h-3zM42 14h3v1h-3zM54 14h2v1h-2zM8 15h2v1h-2zM24 15h5v1h-5zM34 15h3v1h-3zM41 15h4v1h-4zM54 15h2v1h-2zM8 16h2v1h-2zM24 16h5v1h-5zM34 16h3v1h-3zM40 16h4v1h-4zM54 16h2v1h-2zM8 17h2v1h-2zM23 17h6v1h-6zM34 17h3v1h-3zM39 17h5v1h-5zM54 17h2v1h-2zM8 18h2v1h-2zM23 18h6v1h-6zM34 18h3v1h-3zM39 18h3v1h-3zM54 18h2v1h-2zM8 19h2v1h-2zM22 19h3v1h-3zM26 19h3v1h-3zM34 19h3v1h-3zM38 19h3v1h-3zM54 19h2v1h-2zM8 20h2v1h-2zM22 20h3v1h-3zM26 20h3v1h-3zM34 20h7v1h-7zM54 20h2v1h-2zM8 21h2v1h-2zM21 21h3v1h-3zM26 21h3v1h-3zM34 21h6v1h-6zM54 21h2v1h-2zM8 22h2v1h-2zM20 22h4v1h-4zM26 22h3v1h-3zM34 22h6v1h-6zM54 22h2v1h-2zM8 23h2v1h-2zM20 23h3v1h-3zM26 23h3v1h-3zM34 23h7v1h-7zM54 23h2v1h-2zM8 24h2v1h-2zM19 24h12v1h-12zM34 24h3v1h-3zM38 24h4v1h-4zM54 24h2v1h-2zM8 25h2v1h-2zM18 25h13v1h-13zM34 25h3v1h-3zM39 25h4v1h-4zM54 25h2v1h-2zM8 26h2v1h-2zM19 26h12v1h-12zM34 26h3v1h-3zM39 26h4v1h-4zM54 26h2v1h-2zM8 27h2v1h-2zM26 27h4v1h-4zM34 27h3v1h-3zM40 27h4v1h-4zM54 27h2v1h-2zM8 28h2v1h-2zM26 28h3v1h-3zM34 28h3v1h-3zM41 28h3v1h-3zM54 28h2v1h-2zM8 29h2v1h-2zM26 29h3v1h-3zM34 29h3v1h-3zM41 29h4v1h-4zM54 29h2v1h-2zM8 30h2v1h-2zM26 30h3v1h-3zM42 30h3v1h-3zM54 30h2v1h-2zM8 31h2v1h-2zM54 31h2v1h-2zM8 32h2v1h-2zM54 32h2v1h-2zM8 33h2v1h-2zM54 33h2v1h-2zM8 34h2v1h-2zM12 34h5v1h-5zM23 34h5v1h-5zM31 34h21v1h-21zM54 34h2v1h-2zM8 35h48v1h-48zM8 36h48v1h-48zM8 37h48v1h-48zM8 38h11v1h-11zM24 38h6v1h-6zM35 38h5v1h-5zM45 38h11v1h-11zM8 39h10v1h-10zM20 39h2v1h-2zM24 39h5v1h-5zM31 39h3v1h-3zM35 39h5v1h-5zM42 39h1v1h-1zM47 39h9v1h-9zM8 40h15v1h-15zM25 40h4v1h-4zM30 40h4v1h-4zM35 40h5v1h-5zM41 40h5v1h-5zM47 40h9v1h-9zM8 41h15v1h-15zM25 41h3v1h-3zM30 41h5v1h-5zM36 41h4v1h-4zM41 41h5v1h-5zM48 41h8v1h-8zM8 42h14v1h-14zM24 42h4v1h-4zM30 42h5v1h-5zM36 42h4v1h-4zM41 42h5v1h-5zM48 42h8v1h-8zM8 43h14v1h-14zM23 43h5v1h-5zM30 43h5v1h-5zM36 43h4v1h-4zM42 43h3v1h-3zM47 43h9v1h-9zM8 44h11v1h-11zM24 44h4v1h-4zM30 44h5v1h-5zM36 44h4v1h-4zM42 44h1v1h-1zM47 44h9v1h-9zM8 45h15v1h-15zM25 45h3v1h-3zM30 45h5v1h-5zM36 45h4v1h-4zM45 45h11v1h-11zM8 46h15v1h-15zM25 46h3v1h-3zM30 46h5v1h-5zM36 46h4v1h-4zM41 46h15v1h-15zM8 47h15v1h-15zM25 47h3v1h-3zM30 47h5v1h-5zM36 47h4v1h-4zM41 47h15v1h-15zM8 48h15v1h-15zM25 48h4v1h-4zM31 48h3v1h-3zM36 48h4v1h-4zM41 48h15v1h-15zM8 49h9v1h-9zM24 49h5v1h-5zM35 49h5v1h-5zM41 49h15v1h-15zM8 50h10v1h-10zM23 50h7v1h-7zM34 50h6v1h-6zM41 50h15v1h-15zM8 51h48v1h-48zM8 52h47v1h-47zM9 53h46v1h-46z"/>
</svg>
