<svg xmlns="http://www.w3.org/2000/svg" width="64" height="64" viewBox="0 0 64 64">
  <path fill="#000" d="M8 15h33v1h-33zM8 16h33v1h-33zM8 17h2v1h-2zM39 17h2v1h-2zM8 18h2v1h-2zM38 18h3v1h-3zM8 19h2v1h-2zM38 19h3v1h-3zM8 20h2v1h-2zM38 20h3v1h-3zM8 21h2v1h-2zM38 21h3v1h-3zM8 22h2v1h-2zM38 22h3v1h-3zM8 23h2v1h-2zM38 23h3v1h-3zM8 24h2v1h-2zM25 24h5v1h-5zM35 24h21v1h-21zM8 25h2v1h-2zM24 25h7v1h-7zM35 25h21v1h-21zM8 26h2v1h-2zM23 26h8v1h-8zM35 26h21v1h-21zM8 27h2v1h-2zM23 27h8v1h-8zM39 27h2v1h-2zM54 27h2v1h-2zM8 28h2v1h-2zM23 28h8v1h-8zM39 28h2v1h-2zM54 28h2v1h-2zM8 29h2v1h-2zM23 29h8v1h-8zM39 29h2v1h-2zM54 29h2v1h-2zM8 30h2v1h-2zM23 30h7v1h-7zM38 30h3v1h-3zM54 30h2v1h-2zM8 31h2v1h-2zM23 31h2v1h-2zM38 31h3v1h-3zM54 31h2v1h-2zM8 32h2v1h-2zM23 32h2v1h-2zM34 32h7v1h-7zM54 32h2v1h-2zM8 33h2v1h-2zM23 33h2v1h-2zM34 33h7v1h-7zM54 33h2v1h-2zM8 34h2v1h-2zM23 34h2v1h-2zM34 34h7v1h-7zM54 34h2v1h-2zM8 35h2v1h-2zM23 35h2v1h-2zM34 35h7v1h-7zM54 35h2v1h-2zM8 36h13v1h-13zM23 36h2v1h-2zM28 36h13v1h-13zM54 36h2v1h-2zM8 37h14v1h-14zM23 37h2v1h-2zM28 37h13v1h-13zM54 37h2v1h-2zM8 38h14v1h-14zM23 38h2v1h-2zM28 38h12v1h-12zM54 38h2v1h-2zM23 39h2v1h-2zM54 39h2v1h-2zM23 40h2v1h-2zM54 40h2v1h-2zM23 41h2v1h-2zM54 41h2v1h-2zM23 42h2v1h-2zM54 42h2v1h-2zM23 43h2v1h-2zM54 43h2v1h-2zM23 44h2v1h-2zM54 44h2v1h-2zM23 45h2v1h-2zM54 45h2v1h-2zM23 46h33v1h-33zM23 47h33v1h-33z"/>
</svg>
