<svg xmlns="http://www.w3.org/2000/svg" width="64" height="64" viewBox="0 0 64 64">
  <path fill="#000" d="M12 13h5v1h-5zM47 13h5v1h-5zM11 14h6v1h-6zM47 14h6v1h-6zM10 15h4v1h-4zM50 15h4v1h-4zM9 16h4v1h-4zM51 16h4v1h-4zM8 17h3v1h-3zM26 17h2v1h-2zM36 17h2v1h-2zM52 17h4v1h-4zM8 18h3v1h-3zM24 18h4v1h-4zM36 18h4v1h-4zM53 18h3v1h-3zM8 19h3v1h-3zM21 19h6v1h-6zM37 19h5v1h-5zM53 19h3v1h-3zM20 20h6v1h-6zM38 20h5v1h-5zM19 21h7v1h-7zM38 21h6v1h-6zM13 22h2v1h-2zM20 22h5v1h-5zM39 22h6v1h-6zM49 22h2v1h-2zM11 23h4v1h-4zM19 23h5v1h-5zM40 23h5v1h-5zM49 23h4v1h-4zM9 24h6v1h-6zM18 24h6v1h-6zM40 24h5v1h-5zM49 24h6v1h-6zM9 25h5v1h-5zM18 25h6v1h-6zM40 25h5v1h-5zM49 25h6v1h-6zM8 26h6v1h-6zM18 26h6v1h-6zM40 26h6v1h-6zM49 26h6v1h-6zM8 27h6v1h-6zM18 27h5v1h-5zM41 27h5v1h-5zM50 27h5v1h-5zM8 28h6v1h-6zM18 28h6v1h-6zM40 28h6v1h-6zM50 28h5v1h-5zM8 29h6v1h-6zM18 29h5v1h-5zM41 29h5v1h-5zM50 29h5v1h-5zM8 30h6v1h-6zM18 30h5v1h-5zM40 30h6v1h-6zM50 30h5v1h-5zM8 31h6v1h-6zM18 31h6v1h-6zM41 31h5v1h-5zM50 31h5v1h-5zM8 32h6v1h-6zM18 32h5v1h-5zM40 32h6v1h-6zM50 32h5v1h-5zM8 33h6v1h-6zM18 33h6v1h-6zM40 33h5v1h-5zM49 33h6v1h-6zM8 34h6v1h-6zM19 34h5v1h-5zM40 34h5v1h-5zM49 34h6v1h-6zM9 35h5v1h-5zM19 35h5v1h-5zM39 35h6v1h-6zM49 35h6v1h-6zM9 36h6v1h-6zM19 36h6v1h-6zM39 36h5v1h-5zM49 36h5v1h-5zM10 37h5v1h-5zM20 37h5v1h-5zM38 37h6v1h-6zM49 37h5v1h-5zM13 38h2v1h-2zM20 38h6v1h-6zM37 38h6v1h-6zM49 38h1v1h-1zM21 39h6v1h-6zM36 39h6v1h-6zM23 40h5v1h-5zM35 40h5v1h-5zM25 41h3v1h-3zM36 41h2v1h-2zM8 42h3v1h-3zM53 42h2v1h-2zM8 43h3v1h-3zM52 43h4v1h-4zM8 44h4v1h-4zM52 44h4v1h-4zM9 45h3v1h-3zM22 45h11v1h-11zM39 45h3v1h-3zM52 45h3v1h-3zM9 46h4v1h-4zM22 46h20v1h-20zM51 46h4v1h-4zM10 47h4v1h-4zM22 47h20v1h-20zM49 47h5v1h-5zM10 48h6v1h-6zM22 48h20v1h-20zM48 48h6v1h-6zM12 49h5v1h-5zM22 49h20v1h-20zM47 49h5v1h-5zM13 50h4v1h-4zM22 50h20v1h-20zM47 50h4v1h-4z"/>
</svg>
