<svg xmlns="http://www.w3.org/2000/svg" width="64" height="64" viewBox="0 0 64 64">
  <path fill="#000" d="M8 19h30v1h-30zM8 20h30v1h-30zM8 21h3v1h-3zM35 21h3v1h-3zM8 22h3v1h-3zM35 22h3v1h-3zM8 23h3v1h-3zM17 23h4v1h-4zM31 23h2v1h-2zM35 23h3v1h-3zM43 23h3v1h-3zM53 23h3v1h-3zM8 24h3v1h-3zM16 24h6v1h-6zM27 24h6v1h-6zM35 24h3v1h-3zM43 24h4v1h-4zM53 24h3v1h-3zM8 25h3v1h-3zM14 25h9v1h-9zM26 25h7v1h-7zM35 25h3v1h-3zM43 25h5v1h-5zM53 25h3v1h-3zM8 26h3v1h-3zM13 26h9v1h-9zM25 26h7v1h-7zM35 26h3v1h-3zM43 26h5v1h-5zM53 26h3v1h-3zM8 27h3v1h-3zM13 27h4v1h-4zM25 27h2v1h-2zM29 27h3v1h-3zM35 27h3v1h-3zM43 27h6v1h-6zM53 27h3v1h-3zM8 28h3v1h-3zM13 28h3v1h-3zM29 28h3v1h-3zM35 28h3v1h-3zM43 28h6v1h-6zM53 28h3v1h-3zM8 29h3v1h-3zM13 29h3v1h-3zM29 29h2v1h-2zM35 29h3v1h-3zM43 29h3v1h-3zM47 29h3v1h-3zM53 29h3v1h-3zM8 30h3v1h-3zM13 30h3v1h-3zM35 30h3v1h-3zM43 30h3v1h-3zM47 30h4v1h-4zM53 30h3v1h-3zM8 31h3v1h-3zM35 31h3v1h-3zM43 31h3v1h-3zM48 31h3v1h-3zM53 31h3v1h-3zM8 32h3v1h-3zM32 32h1v1h-1zM35 32h3v1h-3zM43 32h3v1h-3zM48 32h4v1h-4zM53 32h3v1h-3zM8 33h3v1h-3zM14 33h4v1h-4zM27 33h6v1h-6zM35 33h3v1h-3zM43 33h3v1h-3zM48 33h4v1h-4zM53 33h3v1h-3zM8 34h3v1h-3zM13 34h5v1h-5zM25 34h8v1h-8zM35 34h3v1h-3zM43 34h3v1h-3zM49 34h7v1h-7zM8 35h3v1h-3zM12 35h5v1h-5zM25 35h8v1h-8zM35 35h3v1h-3zM43 35h3v1h-3zM49 35h7v1h-7zM8 36h3v1h-3zM12 36h4v1h-4zM20 36h2v1h-2zM24 36h4v1h-4zM35 36h3v1h-3zM43 36h3v1h-3zM50 36h6v1h-6zM8 37h3v1h-3zM12 37h3v1h-3zM19 37h8v1h-8zM35 37h3v1h-3zM43 37h3v1h-3zM51 37h5v1h-5zM8 38h3v1h-3zM12 38h2v1h-2zM19 38h7v1h-7zM35 38h3v1h-3zM43 38h3v1h-3zM51 38h5v1h-5zM8 39h2v1h-2zM20 39h5v1h-5zM35 39h3v1h-3zM43 39h3v1h-3zM52 39h4v1h-4zM8 40h2v1h-2zM35 40h3v1h-3zM43 40h3v1h-3zM52 40h4v1h-4zM8 41h3v1h-3zM35 41h3v1h-3zM43 41h3v1h-3zM53 41h3v1h-3zM8 42h30v1h-30zM8 43h30v1h-30z"/>
</svg>
