<svg xmlns="http://www.w3.org/2000/svg" width="64" height="64" viewBox="0 0 64 64">
  <path fill="#000" d="M26 16h12v1h-12zM23 17h18v1h-18zM21 18h22v1h-22zM19 19h9v1h-9zM36 19h9v1h-9zM18 20h7v1h-7zM39 20h7v1h-7zM17 21h6v1h-6zM41 21h6v1h-6zM16 22h5v1h-5zM43 22h6v1h-6zM14 23h6v1h-6zM29 23h6v1h-6zM45 23h5v1h-5zM14 24h4v1h-4zM27 24h9v1h-9zM46 24h5v1h-5zM13 25h4v1h-4zM26 25h9v1h-9zM47 25h4v1h-4zM12 26h4v1h-4zM25 26h9v1h-9zM48 26h4v1h-4zM11 27h4v1h-4zM24 27h10v1h-10zM49 27h4v1h-4zM10 28h4v1h-4zM24 28h10v1h-10zM39 28h1v1h-1zM50 28h4v1h-4zM10 29h4v1h-4zM24 29h11v1h-11zM36 29h5v1h-5zM51 29h3v1h-3zM9 30h4v1h-4zM23 30h18v1h-18zM51 30h4v1h-4zM9 31h3v1h-3zM23 31h18v1h-18zM52 31h4v1h-4zM8 32h4v1h-4zM23 32h18v1h-18zM52 32h4v1h-4zM9 33h4v1h-4zM23 33h18v1h-18zM52 33h3v1h-3zM10 34h4v1h-4zM24 34h17v1h-17zM51 34h3v1h-3zM10 35h4v1h-4zM24 35h16v1h-16zM50 35h4v1h-4zM11 36h4v1h-4zM25 36h15v1h-15zM49 36h4v1h-4zM12 37h4v1h-4zM25 37h14v1h-14zM48 37h4v1h-4zM13 38h4v1h-4zM26 38h12v1h-12zM47 38h5v1h-5zM14 39h5v1h-5zM28 39h9v1h-9zM46 39h5v1h-5zM14 40h6v1h-6zM30 40h5v1h-5zM45 40h5v1h-5zM16 41h5v1h-5zM43 41h6v1h-6zM17 42h6v1h-6zM41 42h7v1h-7zM18 43h7v1h-7zM39 43h7v1h-7zM20 44h9v1h-9zM35 44h10v1h-10zM21 45h22v1h-22zM24 46h17v1h-17zM26 47h12v1h-12z"/>
</svg>
