<svg xmlns="http://www.w3.org/2000/svg" width="64" height="64" viewBox="0 0 64 64">
  <path fill="#000" d="M27 8h10v1h-10zM23 9h17v1h-17zM21 10h22v1h-22zM19 11h8v1h-8zM37 11h8v1h-8zM18 12h7v1h-7zM39 12h7v1h-7zM17 13h6v1h-6zM41 13h6v1h-6zM16 14h6v1h-6zM42 14h6v1h-6zM16 15h5v1h-5zM30 15h5v1h-5zM44 15h4v1h-4zM17 16h3v1h-3zM26 16h12v1h-12zM45 16h2v1h-2zM24 17h16v1h-16zM23 18h18v1h-18zM21 19h9v1h-9zM34 19h9v1h-9zM21 20h6v1h-6zM37 20h6v1h-6zM22 21h3v1h-3zM39 21h3v1h-3zM29 24h6v1h-6zM27 25h10v1h-10zM27 26h3v1h-3zM34 26h3v1h-3zM26 27h3v1h-3zM35 27h3v1h-3zM25 28h4v1h-4zM35 28h4v1h-4zM24 29h16v1h-16zM23 30h18v1h-18zM23 31h18v1h-18zM23 32h4v1h-4zM38 32h3v1h-3zM23 33h3v1h-3zM38 33h3v1h-3zM23 34h3v1h-3zM30 34h2v1h-2zM38 34h3v1h-3zM23 35h3v1h-3zM29 35h6v1h-6zM38 35h3v1h-3zM23 36h3v1h-3zM29 36h6v1h-6zM38 36h3v1h-3zM23 37h4v1h-4zM29 37h6v1h-6zM38 37h3v1h-3zM23 38h4v1h-4zM30 38h4v1h-4zM38 38h3v1h-3zM23 39h4v1h-4zM31 39h2v1h-2zM38 39h3v1h-3zM23 40h4v1h-4zM38 40h3v1h-3zM23 41h4v1h-4zM38 41h3v1h-3zM23 42h4v1h-4zM38 42h3v1h-3zM23 43h4v1h-4zM38 43h3v1h-3zM23 44h4v1h-4zM38 44h3v1h-3zM23 45h4v1h-4zM38 45h3v1h-3zM23 46h3v1h-3zM38 46h3v1h-3zM23 47h3v1h-3zM38 47h3v1h-3zM23 48h3v1h-3zM38 48h3v1h-3zM23 49h3v1h-3zM38 49h3v1h-3zM23 50h3v1h-3zM38 50h3v1h-3zM23 51h3v1h-3zM38 51h3v1h-3zM23 52h3v1h-3zM38 52h3v1h-3zM23 53h4v1h-4zM37 53h4v1h-4zM23 54h18v1h-18zM23 55h18v1h-18z"/>
</svg>
