<svg xmlns="http://www.w3.org/2000/svg" width="64" height="64" viewBox="0 0 64 64">
  <path fill="#000" d="M19 17h5v1h-5zM19 18h5v1h-5zM19 19h5v1h-5zM19 20h8v1h-8zM19 21h10v1h-10zM19 22h11v1h-11zM12 23h2v1h-2zM20 23h2v1h-2zM25 23h6v1h-6zM11 24h4v1h-4zM27 24h5v1h-5zM10 25h5v1h-5zM28 25h5v1h-5zM10 26h4v1h-4zM16 26h2v1h-2zM29 26h4v1h-4zM9 27h4v1h-4zM16 27h3v1h-3zM29 27h4v1h-4zM8 28h4v1h-4zM16 28h4v1h-4zM30 28h3v1h-3zM8 29h4v1h-4zM16 29h5v1h-5zM31 29h3v1h-3zM40 29h4v1h-4zM49 29h5v1h-5zM8 30h4v1h-4zM17 30h5v1h-5zM31 30h3v1h-3zM39 30h5v1h-5zM48 30h7v1h-7zM8 31h3v1h-3zM18 31h5v1h-5zM31 31h3v1h-3zM37 31h7v1h-7zM47 31h8v1h-8zM8 32h3v1h-3zM18 32h6v1h-6zM31 32h3v1h-3zM37 32h7v1h-7zM47 32h3v1h-3zM53 32h3v1h-3zM8 33h3v1h-3zM19 33h5v1h-5zM31 33h3v1h-3zM38 33h6v1h-6zM46 33h4v1h-4zM53 33h3v1h-3zM8 34h3v1h-3zM20 34h3v1h-3zM31 34h3v1h-3zM38 34h1v1h-1zM40 34h4v1h-4zM46 34h3v1h-3zM53 34h3v1h-3zM8 35h4v1h-4zM31 35h3v1h-3zM40 35h4v1h-4zM46 35h3v1h-3zM53 35h3v1h-3zM8 36h4v1h-4zM31 36h3v1h-3zM40 36h4v1h-4zM46 36h3v1h-3zM53 36h3v1h-3zM8 37h5v1h-5zM30 37h4v1h-4zM40 37h4v1h-4zM46 37h3v1h-3zM53 37h3v1h-3zM9 38h4v1h-4zM30 38h3v1h-3zM40 38h4v1h-4zM46 38h3v1h-3zM53 38h3v1h-3zM9 39h4v1h-4zM29 39h4v1h-4zM40 39h4v1h-4zM46 39h3v1h-3zM53 39h3v1h-3zM10 40h4v1h-4zM28 40h4v1h-4zM40 40h4v1h-4zM46 40h3v1h-3zM53 40h3v1h-3zM11 41h5v1h-5zM27 41h5v1h-5zM40 41h4v1h-4zM46 41h3v1h-3zM53 41h3v1h-3zM12 42h6v1h-6zM24 42h7v1h-7zM40 42h4v1h-4zM47 42h3v1h-3zM53 42h3v1h-3zM13 43h17v1h-17zM40 43h4v1h-4zM47 43h3v1h-3zM53 43h3v1h-3zM14 44h14v1h-14zM40 44h4v1h-4zM47 44h8v1h-8zM15 45h12v1h-12zM40 45h4v1h-4zM48 45h7v1h-7zM17 46h8v1h-8zM40 46h3v1h-3zM49 46h5v1h-5z"/>
</svg>
