<svg xmlns="http://www.w3.org/2000/svg" width="64" height="64" viewBox="0 0 64 64">
  <path fill="#000" d="M10 23h4v1h-4zM21 23h3v1h-3zM28 23h4v1h-4zM36 23h6v1h-6zM47 23h9v1h-9zM9 24h5v1h-5zM21 24h2v1h-2zM27 24h5v1h-5zM35 24h8v1h-8zM47 24h9v1h-9zM8 25h6v1h-6zM21 25h2v1h-2zM26 25h6v1h-6zM35 25h3v1h-3zM40 25h4v1h-4zM47 25h4v1h-4zM52 25h1v1h-1zM8 26h6v1h-6zM20 26h3v1h-3zM26 26h6v1h-6zM41 26h3v1h-3zM47 26h3v1h-3zM8 27h2v1h-2zM11 27h3v1h-3zM20 27h3v1h-3zM26 27h2v1h-2zM29 27h3v1h-3zM41 27h3v1h-3zM47 27h3v1h-3zM11 28h3v1h-3zM20 28h3v1h-3zM28 28h4v1h-4zM41 28h3v1h-3zM47 28h3v1h-3zM11 29h3v1h-3zM19 29h3v1h-3zM28 29h4v1h-4zM41 29h3v1h-3zM47 29h6v1h-6zM11 30h3v1h-3zM19 30h3v1h-3zM28 30h4v1h-4zM41 30h3v1h-3zM47 30h7v1h-7zM11 31h3v1h-3zM19 31h2v1h-2zM28 31h4v1h-4zM40 31h3v1h-3zM47 31h8v1h-8zM11 32h3v1h-3zM18 32h3v1h-3zM28 32h4v1h-4zM39 32h4v1h-4zM47 32h2v1h-2zM52 32h4v1h-4zM11 33h3v1h-3zM18 33h3v1h-3zM29 33h3v1h-3zM39 33h4v1h-4zM53 33h3v1h-3zM11 34h3v1h-3zM18 34h2v1h-2zM29 34h3v1h-3zM38 34h4v1h-4zM53 34h3v1h-3zM11 35h3v1h-3zM18 35h3v1h-3zM29 35h3v1h-3zM38 35h3v1h-3zM53 35h3v1h-3zM11 36h3v1h-3zM17 36h3v1h-3zM29 36h3v1h-3zM37 36h3v1h-3zM53 36h3v1h-3zM11 37h3v1h-3zM17 37h3v1h-3zM29 37h3v1h-3zM36 37h3v1h-3zM52 37h4v1h-4zM11 38h3v1h-3zM17 38h2v1h-2zM29 38h3v1h-3zM35 38h4v1h-4zM40 38h1v1h-1zM46 38h3v1h-3zM51 38h5v1h-5zM11 39h3v1h-3zM16 39h3v1h-3zM29 39h3v1h-3zM35 39h10v1h-10zM46 39h9v1h-9zM11 40h3v1h-3zM16 40h3v1h-3zM29 40h3v1h-3zM35 40h10v1h-10zM47 40h7v1h-7z"/>
</svg>
