<svg xmlns="http://www.w3.org/2000/svg" width="64" height="64" viewBox="0 0 64 64">
  <path fill="#000" d="M27 8h9v1h-9zM25 9h12v1h-12zM25 10h13v1h-13zM24 11h14v1h-14zM23 12h16v1h-16zM23 13h16v1h-16zM23 14h17v1h-17zM23 15h17v1h-17zM23 16h17v1h-17zM23 17h17v1h-17zM23 18h17v1h-17zM23 19h17v1h-17zM23 20h17v1h-17zM23 21h17v1h-17zM23 22h17v1h-17zM23 23h17v1h-17zM23 24h17v1h-17zM23 25h17v1h-17zM17 26h3v1h-3zM23 26h17v1h-17zM42 26h3v1h-3zM17 27h4v1h-4zM23 27h17v1h-17zM42 27h4v1h-4zM17 28h4v1h-4zM23 28h17v1h-17zM42 28h4v1h-4zM17 29h4v1h-4zM23 29h17v1h-17zM42 29h4v1h-4zM17 30h4v1h-4zM23 30h17v1h-17zM42 30h4v1h-4zM17 31h4v1h-4zM23 31h17v1h-17zM42 31h4v1h-4zM17 32h4v1h-4zM23 32h17v1h-17zM42 32h4v1h-4zM17 33h4v1h-4zM23 33h17v1h-17zM42 33h4v1h-4zM17 34h4v1h-4zM23 34h17v1h-17zM42 34h4v1h-4zM17 35h4v1h-4zM23 35h16v1h-16zM42 35h3v1h-3zM18 36h3v1h-3zM24 36h15v1h-15zM42 36h3v1h-3zM18 37h4v1h-4zM24 37h14v1h-14zM41 37h4v1h-4zM18 38h4v1h-4zM26 38h12v1h-12zM40 38h5v1h-5zM18 39h5v1h-5zM27 39h9v1h-9zM40 39h4v1h-4zM19 40h5v1h-5zM28 40h7v1h-7zM39 40h5v1h-5zM20 41h5v1h-5zM38 41h5v1h-5zM20 42h7v1h-7zM36 42h7v1h-7zM21 43h10v1h-10zM32 43h10v1h-10zM22 44h18v1h-18zM24 45h15v1h-15zM26 46h11v1h-11zM29 47h4v1h-4zM29 48h4v1h-4zM29 49h4v1h-4zM29 50h4v1h-4zM29 51h4v1h-4zM22 52h18v1h-18zM22 53h19v1h-19zM22 54h19v1h-19zM22 55h19v1h-19z"/>
</svg>
