<svg xmlns="http://www.w3.org/2000/svg" width="64" height="64" viewBox="0 0 64 64">
  <path fill="#000" d="M8 11h11v1h-11zM45 11h10v1h-10zM8 12h11v1h-11zM45 12h11v1h-11zM8 13h11v1h-11zM45 13h11v1h-11zM8 14h3v1h-3zM53 14h3v1h-3zM8 15h3v1h-3zM53 15h3v1h-3zM8 16h3v1h-3zM28 16h8v1h-8zM53 16h3v1h-3zM8 17h3v1h-3zM26 17h11v1h-11zM53 17h3v1h-3zM8 18h3v1h-3zM25 18h13v1h-13zM53 18h3v1h-3zM8 19h3v1h-3zM24 19h15v1h-15zM53 19h3v1h-3zM8 20h3v1h-3zM24 20h16v1h-16zM53 20h3v1h-3zM8 21h3v1h-3zM23 21h17v1h-17zM53 21h3v1h-3zM8 22h3v1h-3zM23 22h17v1h-17zM53 22h3v1h-3zM23 23h18v1h-18zM23 24h18v1h-18zM23 25h18v1h-18zM23 26h18v1h-18zM23 27h18v1h-18zM23 28h18v1h-18zM23 29h17v1h-17zM23 30h17v1h-17zM24 31h16v1h-16zM24 32h16v1h-16zM25 33h14v1h-14zM26 34h12v1h-12zM27 35h10v1h-10zM28 36h8v1h-8zM22 39h5v1h-5zM36 39h6v1h-6zM20 40h10v1h-10zM34 40h10v1h-10zM8 41h3v1h-3zM19 41h26v1h-26zM53 41h3v1h-3zM8 42h3v1h-3zM18 42h28v1h-28zM53 42h3v1h-3zM8 43h3v1h-3zM17 43h29v1h-29zM53 43h3v1h-3zM8 44h3v1h-3zM17 44h30v1h-30zM53 44h3v1h-3zM8 45h3v1h-3zM16 45h31v1h-31zM53 45h3v1h-3zM8 46h3v1h-3zM16 46h31v1h-31zM53 46h3v1h-3zM8 47h3v1h-3zM53 47h3v1h-3zM8 48h3v1h-3zM53 48h3v1h-3zM8 49h3v1h-3zM52 49h4v1h-4zM8 50h11v1h-11zM45 50h11v1h-11zM8 51h11v1h-11zM45 51h11v1h-11zM9 52h10v1h-10zM45 52h10v1h-10z"/>
</svg>
