<svg xmlns="http://www.w3.org/2000/svg" width="64" height="64" viewBox="0 0 64 64">
  <path fill="#000" d="M24 8h4v1h-4zM20 9h12v1h-12zM18 10h16v1h-16zM17 11h5v1h-5zM30 11h5v1h-5zM16 12h4v1h-4zM31 12h5v1h-5zM15 13h4v1h-4zM23 13h7v1h-7zM33 13h4v1h-4zM14 14h4v1h-4zM22 14h9v1h-9zM34 14h3v1h-3zM14 15h3v1h-3zM20 15h5v1h-5zM28 15h5v1h-5zM35 15h3v1h-3zM14 16h3v1h-3zM19 16h4v1h-4zM29 16h4v1h-4zM36 16h2v1h-2zM14 17h2v1h-2zM19 17h3v1h-3zM30 17h4v1h-4zM36 17h3v1h-3zM14 18h2v1h-2zM18 18h3v1h-3zM25 18h3v1h-3zM31 18h3v1h-3zM37 18h2v1h-2zM13 19h3v1h-3zM18 19h3v1h-3zM24 19h5v1h-5zM32 19h2v1h-2zM36 19h3v1h-3zM13 20h3v1h-3zM18 20h2v1h-2zM23 20h7v1h-7zM32 20h2v1h-2zM36 20h3v1h-3zM13 21h3v1h-3zM18 21h2v1h-2zM23 21h8v1h-8zM32 21h2v1h-2zM37 21h2v1h-2zM13 22h3v1h-3zM18 22h2v1h-2zM23 22h3v1h-3zM28 22h3v1h-3zM32 22h2v1h-2zM36 22h3v1h-3zM14 23h2v1h-2zM18 23h3v1h-3zM23 23h3v1h-3zM29 23h3v1h-3zM36 23h3v1h-3zM14 24h3v1h-3zM19 24h2v1h-2zM23 24h3v1h-3zM29 24h3v1h-3zM36 24h2v1h-2zM14 25h3v1h-3zM20 25h1v1h-1zM23 25h3v1h-3zM29 25h3v1h-3zM35 25h3v1h-3zM15 26h2v1h-2zM23 26h3v1h-3zM29 26h3v1h-3zM35 26h2v1h-2zM15 27h3v1h-3zM23 27h3v1h-3zM29 27h3v1h-3zM16 28h3v1h-3zM23 28h3v1h-3zM29 28h3v1h-3zM17 29h3v1h-3zM23 29h3v1h-3zM29 29h7v1h-7zM18 30h3v1h-3zM23 30h3v1h-3zM29 30h8v1h-8zM23 31h3v1h-3zM29 31h4v1h-4zM34 31h8v1h-8zM23 32h3v1h-3zM29 32h3v1h-3zM35 32h8v1h-8zM23 33h3v1h-3zM29 33h3v1h-3zM36 33h3v1h-3zM40 33h8v1h-8zM23 34h3v1h-3zM29 34h3v1h-3zM36 34h2v1h-2zM41 34h8v1h-8zM23 35h3v1h-3zM29 35h3v1h-3zM36 35h2v1h-2zM41 35h8v1h-8zM23 36h3v1h-3zM29 36h3v1h-3zM36 36h2v1h-2zM41 36h3v1h-3zM46 36h3v1h-3zM16 37h6v1h-6zM23 37h3v1h-3zM29 37h3v1h-3zM36 37h2v1h-2zM41 37h3v1h-3zM47 37h3v1h-3zM15 38h7v1h-7zM23 38h3v1h-3zM30 38h1v1h-1zM36 38h1v1h-1zM41 38h3v1h-3zM47 38h3v1h-3zM15 39h4v1h-4zM21 39h5v1h-5zM42 39h2v1h-2zM47 39h2v1h-2zM15 40h3v1h-3zM21 40h5v1h-5zM47 40h2v1h-2zM15 41h3v1h-3zM22 41h4v1h-4zM47 41h2v1h-2zM15 42h4v1h-4zM22 42h4v1h-4zM47 42h2v1h-2zM16 43h3v1h-3zM22 43h4v1h-4zM47 43h2v1h-2zM16 44h3v1h-3zM23 44h3v1h-3zM47 44h2v1h-2zM17 45h3v1h-3zM23 45h3v1h-3zM47 45h2v1h-2zM18 46h2v1h-2zM24 46h1v1h-1zM47 46h2v1h-2zM18 47h3v1h-3zM47 47h2v1h-2zM19 48h2v1h-2zM47 48h2v1h-2zM19 49h3v1h-3zM47 49h2v1h-2zM20 50h3v1h-3zM47 50h2v1h-2zM20 51h3v1h-3zM46 51h3v1h-3zM21 52h3v1h-3zM46 52h3v1h-3zM21 53h3v1h-3zM46 53h3v1h-3zM22 54h3v1h-3zM45 54h3v1h-3zM22 55h4v1h-4zM45 55h4v1h-4z"/>
</svg>
