<svg xmlns="http://www.w3.org/2000/svg" width="64" height="64" viewBox="0 0 64 64">
  <path fill="#000" d="M9 15h46v1h-46zM8 16h48v1h-48zM8 17h3v1h-3zM53 17h3v1h-3zM8 18h2v1h-2zM54 18h2v1h-2zM8 19h2v1h-2zM54 19h2v1h-2zM8 20h2v1h-2zM54 20h2v1h-2zM8 21h2v1h-2zM54 21h2v1h-2zM8 22h2v1h-2zM54 22h2v1h-2zM8 23h2v1h-2zM54 23h2v1h-2zM8 24h2v1h-2zM15 24h2v1h-2zM20 24h1v1h-1zM27 24h2v1h-2zM32 24h1v1h-1zM44 24h3v1h-3zM54 24h2v1h-2zM8 25h2v1h-2zM14 25h4v1h-4zM20 25h3v1h-3zM26 25h4v1h-4zM31 25h8v1h-8zM42 25h6v1h-6zM54 25h2v1h-2zM8 26h2v1h-2zM14 26h4v1h-4zM20 26h3v1h-3zM26 26h4v1h-4zM31 26h7v1h-7zM41 26h3v1h-3zM46 26h3v1h-3zM54 26h2v1h-2zM8 27h2v1h-2zM14 27h4v1h-4zM20 27h4v1h-4zM26 27h4v1h-4zM31 27h3v1h-3zM40 27h3v1h-3zM47 27h3v1h-3zM54 27h2v1h-2zM8 28h2v1h-2zM14 28h4v1h-4zM20 28h4v1h-4zM26 28h4v1h-4zM31 28h3v1h-3zM40 28h2v1h-2zM47 28h3v1h-3zM54 28h2v1h-2zM8 29h2v1h-2zM14 29h4v1h-4zM20 29h5v1h-5zM26 29h4v1h-4zM31 29h3v1h-3zM40 29h2v1h-2zM47 29h3v1h-3zM54 29h2v1h-2zM8 30h2v1h-2zM14 30h4v1h-4zM20 30h2v1h-2zM23 30h2v1h-2zM26 30h4v1h-4zM31 30h7v1h-7zM39 30h3v1h-3zM47 30h4v1h-4zM54 30h2v1h-2zM8 31h2v1h-2zM14 31h4v1h-4zM20 31h2v1h-2zM23 31h7v1h-7zM31 31h7v1h-7zM39 31h3v1h-3zM47 31h4v1h-4zM54 31h2v1h-2zM8 32h2v1h-2zM14 32h4v1h-4zM20 32h2v1h-2zM23 32h7v1h-7zM31 32h7v1h-7zM39 32h3v1h-3zM47 32h4v1h-4zM54 32h2v1h-2zM8 33h2v1h-2zM14 33h4v1h-4zM20 33h2v1h-2zM24 33h6v1h-6zM31 33h3v1h-3zM39 33h3v1h-3zM47 33h3v1h-3zM54 33h2v1h-2zM8 34h2v1h-2zM14 34h4v1h-4zM20 34h2v1h-2zM24 34h6v1h-6zM32 34h2v1h-2zM40 34h2v1h-2zM47 34h3v1h-3zM54 34h2v1h-2zM8 35h2v1h-2zM14 35h4v1h-4zM20 35h2v1h-2zM25 35h5v1h-5zM32 35h2v1h-2zM40 35h3v1h-3zM47 35h3v1h-3zM54 35h2v1h-2zM8 36h2v1h-2zM14 36h4v1h-4zM20 36h2v1h-2zM25 36h5v1h-5zM32 36h2v1h-2zM41 36h3v1h-3zM46 36h3v1h-3zM54 36h2v1h-2zM8 37h2v1h-2zM14 37h4v1h-4zM20 37h2v1h-2zM25 37h5v1h-5zM31 37h3v1h-3zM42 37h6v1h-6zM54 37h2v1h-2zM8 38h2v1h-2zM15 38h2v1h-2zM27 38h2v1h-2zM32 38h1v1h-1zM43 38h4v1h-4zM54 38h2v1h-2zM8 39h2v1h-2zM54 39h2v1h-2zM8 40h2v1h-2zM54 40h2v1h-2zM8 41h2v1h-2zM54 41h2v1h-2zM8 42h2v1h-2zM54 42h2v1h-2zM8 43h2v1h-2zM54 43h2v1h-2zM8 44h2v1h-2zM54 44h2v1h-2zM8 45h4v1h-4zM52 45h4v1h-4zM8 46h48v1h-48zM9 47h45v1h-45z"/>
</svg>
