<svg xmlns="http://www.w3.org/2000/svg" width="64" height="64" viewBox="0 0 64 64">
  <path fill="#000" d="M14 8h4v1h-4zM21 8h5v1h-5zM31 8h3v1h-3zM37 8h9v1h-9zM14 9h4v1h-4zM21 9h5v1h-5zM30 9h4v1h-4zM37 9h10v1h-10zM14 10h4v1h-4zM21 10h5v1h-5zM30 10h4v1h-4zM37 10h4v1h-4zM43 10h5v1h-5zM14 11h4v1h-4zM21 11h5v1h-5zM30 11h4v1h-4zM37 11h3v1h-3zM44 11h4v1h-4zM14 12h4v1h-4zM21 12h6v1h-6zM30 12h4v1h-4zM37 12h3v1h-3zM44 12h4v1h-4zM14 13h4v1h-4zM22 13h5v1h-5zM30 13h4v1h-4zM37 13h3v1h-3zM44 13h4v1h-4zM15 14h4v1h-4zM20 14h7v1h-7zM30 14h3v1h-3zM37 14h3v1h-3zM44 14h4v1h-4zM15 15h4v1h-4zM20 15h3v1h-3zM25 15h2v1h-2zM29 15h4v1h-4zM37 15h3v1h-3zM43 15h5v1h-5zM15 16h4v1h-4zM20 16h3v1h-3zM25 16h3v1h-3zM29 16h4v1h-4zM37 16h10v1h-10zM15 17h4v1h-4zM20 17h3v1h-3zM25 17h2v1h-2zM29 17h4v1h-4zM37 17h9v1h-9zM15 18h4v1h-4zM20 18h3v1h-3zM25 18h3v1h-3zM29 18h4v1h-4zM37 18h11v1h-11zM16 19h3v1h-3zM20 19h3v1h-3zM25 19h3v1h-3zM29 19h4v1h-4zM37 19h3v1h-3zM43 19h5v1h-5zM16 20h3v1h-3zM20 20h3v1h-3zM25 20h3v1h-3zM29 20h3v1h-3zM37 20h3v1h-3zM44 20h4v1h-4zM16 21h7v1h-7zM26 21h6v1h-6zM37 21h3v1h-3zM45 21h4v1h-4zM16 22h6v1h-6zM26 22h6v1h-6zM37 22h3v1h-3zM45 22h4v1h-4zM16 23h6v1h-6zM26 23h6v1h-6zM37 23h3v1h-3zM45 23h4v1h-4zM17 24h5v1h-5zM26 24h5v1h-5zM37 24h3v1h-3zM44 24h4v1h-4zM17 25h5v1h-5zM26 25h5v1h-5zM37 25h11v1h-11zM17 26h5v1h-5zM26 26h5v1h-5zM37 26h10v1h-10zM17 27h5v1h-5zM26 27h5v1h-5zM37 27h9v1h-9zM18 28h4v1h-4zM27 28h3v1h-3zM37 28h8v1h-8zM11 35h8v1h-8zM26 35h3v1h-3zM35 35h3v1h-3zM41 35h12v1h-12zM11 36h9v1h-9zM26 36h4v1h-4zM34 36h4v1h-4zM41 36h12v1h-12zM11 37h10v1h-10zM26 37h4v1h-4zM33 37h4v1h-4zM41 37h12v1h-12zM11 38h4v1h-4zM17 38h5v1h-5zM26 38h4v1h-4zM32 38h5v1h-5zM45 38h4v1h-4zM11 39h4v1h-4zM18 39h4v1h-4zM26 39h4v1h-4zM32 39h4v1h-4zM45 39h4v1h-4zM11 40h4v1h-4zM18 40h4v1h-4zM26 40h4v1h-4zM31 40h4v1h-4zM45 40h4v1h-4zM11 41h4v1h-4zM18 41h4v1h-4zM26 41h4v1h-4zM31 41h4v1h-4zM45 41h4v1h-4zM11 42h4v1h-4zM18 42h4v1h-4zM26 42h3v1h-3zM30 42h4v1h-4zM45 42h4v1h-4zM11 43h4v1h-4zM16 43h5v1h-5zM26 43h7v1h-7zM45 43h4v1h-4zM11 44h9v1h-9zM26 44h7v1h-7zM45 44h4v1h-4zM11 45h10v1h-10zM26 45h7v1h-7zM45 45h4v1h-4zM11 46h11v1h-11zM26 46h8v1h-8zM45 46h4v1h-4zM11 47h3v1h-3zM17 47h5v1h-5zM26 47h3v1h-3zM30 47h4v1h-4zM45 47h4v1h-4zM11 48h4v1h-4zM18 48h5v1h-5zM26 48h9v1h-9zM45 48h4v1h-4zM11 49h4v1h-4zM19 49h4v1h-4zM26 49h4v1h-4zM31 49h5v1h-5zM45 49h4v1h-4zM11 50h4v1h-4zM19 50h4v1h-4zM26 50h4v1h-4zM31 50h5v1h-5zM45 50h4v1h-4zM11 51h3v1h-3zM19 51h4v1h-4zM26 51h4v1h-4zM32 51h5v1h-5zM45 51h4v1h-4zM11 52h11v1h-11zM26 52h4v1h-4zM33 52h4v1h-4zM45 52h4v1h-4zM11 53h11v1h-11zM26 53h4v1h-4zM33 53h4v1h-4zM45 53h4v1h-4zM11 54h10v1h-10zM26 54h4v1h-4zM34 54h4v1h-4zM45 54h4v1h-4zM11 55h9v1h-9zM26 55h4v1h-4zM34 55h5v1h-5zM45 55h4v1h-4z"/>
</svg>
