<svg xmlns="http://www.w3.org/2000/svg" width="64" height="64" viewBox="0 0 64 64">
  <path fill="#000" d="M9 17h46v1h-46zM8 18h48v1h-48zM8 19h48v1h-48zM8 20h48v1h-48zM8 21h48v1h-48zM8 22h8v1h-8zM19 22h5v1h-5zM25 22h6v1h-6zM33 22h6v1h-6zM40 22h3v1h-3zM49 22h7v1h-7zM8 23h7v1h-7zM19 23h5v1h-5zM26 23h5v1h-5zM34 23h4v1h-4zM41 23h2v1h-2zM51 23h5v1h-5zM8 24h7v1h-7zM19 24h5v1h-5zM27 24h4v1h-4zM34 24h4v1h-4zM40 24h3v1h-3zM51 24h5v1h-5zM8 25h7v1h-7zM20 25h4v1h-4zM27 25h3v1h-3zM34 25h4v1h-4zM40 25h3v1h-3zM46 25h2v1h-2zM51 25h5v1h-5zM8 26h7v1h-7zM20 26h4v1h-4zM27 26h3v1h-3zM34 26h4v1h-4zM40 26h3v1h-3zM45 26h4v1h-4zM52 26h4v1h-4zM8 27h6v1h-6zM16 27h2v1h-2zM20 27h5v1h-5zM27 27h3v1h-3zM34 27h3v1h-3zM40 27h3v1h-3zM45 27h4v1h-4zM52 27h4v1h-4zM8 28h6v1h-6zM16 28h2v1h-2zM20 28h5v1h-5zM27 28h3v1h-3zM32 28h1v1h-1zM34 28h3v1h-3zM39 28h4v1h-4zM45 28h4v1h-4zM52 28h4v1h-4zM8 29h6v1h-6zM16 29h2v1h-2zM21 29h4v1h-4zM27 29h3v1h-3zM32 29h1v1h-1zM35 29h2v1h-2zM39 29h4v1h-4zM45 29h4v1h-4zM51 29h5v1h-5zM8 30h5v1h-5zM16 30h3v1h-3zM21 30h4v1h-4zM27 30h3v1h-3zM31 30h2v1h-2zM35 30h2v1h-2zM39 30h4v1h-4zM50 30h6v1h-6zM8 31h5v1h-5zM16 31h3v1h-3zM21 31h4v1h-4zM27 31h3v1h-3zM31 31h2v1h-2zM35 31h2v1h-2zM39 31h4v1h-4zM50 31h6v1h-6zM8 32h5v1h-5zM15 32h4v1h-4zM21 32h4v1h-4zM27 32h2v1h-2zM31 32h2v1h-2zM35 32h2v1h-2zM39 32h4v1h-4zM51 32h5v1h-5zM8 33h5v1h-5zM15 33h4v1h-4zM21 33h4v1h-4zM27 33h2v1h-2zM31 33h2v1h-2zM35 33h2v1h-2zM39 33h4v1h-4zM45 33h3v1h-3zM52 33h4v1h-4zM8 34h5v1h-5zM18 34h1v1h-1zM21 34h4v1h-4zM27 34h2v1h-2zM31 34h2v1h-2zM35 34h2v1h-2zM39 34h4v1h-4zM45 34h4v1h-4zM52 34h4v1h-4zM8 35h5v1h-5zM22 35h3v1h-3zM31 35h3v1h-3zM39 35h4v1h-4zM45 35h5v1h-5zM52 35h4v1h-4zM8 36h5v1h-5zM22 36h4v1h-4zM30 36h4v1h-4zM39 36h4v1h-4zM45 36h5v1h-5zM52 36h4v1h-4zM8 37h4v1h-4zM15 37h5v1h-5zM22 37h4v1h-4zM30 37h4v1h-4zM39 37h4v1h-4zM45 37h4v1h-4zM52 37h4v1h-4zM8 38h4v1h-4zM14 38h6v1h-6zM22 38h4v1h-4zM30 38h4v1h-4zM38 38h5v1h-5zM46 38h3v1h-3zM52 38h4v1h-4zM8 39h3v1h-3zM14 39h6v1h-6zM23 39h3v1h-3zM30 39h4v1h-4zM38 39h5v1h-5zM52 39h4v1h-4zM8 40h3v1h-3zM14 40h6v1h-6zM23 40h3v1h-3zM30 40h5v1h-5zM38 40h5v1h-5zM51 40h5v1h-5zM8 41h3v1h-3zM13 41h14v1h-14zM29 41h6v1h-6zM37 41h6v1h-6zM49 41h7v1h-7zM8 42h48v1h-48zM8 43h48v1h-48zM8 44h48v1h-48zM8 45h48v1h-48zM9 46h46v1h-46z"/>
</svg>
