<svg xmlns="http://www.w3.org/2000/svg" width="64" height="64" viewBox="0 0 64 64">
  <path fill="#000" d="M8 13h48v1h-48zM8 14h48v1h-48zM8 15h3v1h-3zM14 15h7v1h-7zM29 15h9v1h-9zM47 15h9v1h-9zM8 16h2v1h-2zM14 16h6v1h-6zM29 16h8v1h-8zM48 16h8v1h-8zM8 17h2v1h-2zM13 17h6v1h-6zM28 17h8v1h-8zM47 17h9v1h-9zM8 18h2v1h-2zM12 18h6v1h-6zM27 18h8v1h-8zM46 18h10v1h-10zM8 19h9v1h-9zM26 19h8v1h-8zM45 19h7v1h-7zM53 19h3v1h-3zM8 20h8v1h-8zM25 20h8v1h-8zM44 20h7v1h-7zM53 20h3v1h-3zM8 21h7v1h-7zM24 21h8v1h-8zM43 21h8v1h-8zM53 21h3v1h-3zM8 22h7v1h-7zM23 22h8v1h-8zM42 22h8v1h-8zM53 22h3v1h-3zM8 23h6v1h-6zM22 23h8v1h-8zM41 23h8v1h-8zM53 23h3v1h-3zM8 24h5v1h-5zM21 24h8v1h-8zM40 24h8v1h-8zM53 24h3v1h-3zM8 25h4v1h-4zM20 25h9v1h-9zM39 25h8v1h-8zM53 25h3v1h-3zM8 26h2v1h-2zM19 26h9v1h-9zM37 26h9v1h-9zM53 26h3v1h-3zM8 27h2v1h-2zM18 27h9v1h-9zM36 27h9v1h-9zM53 27h3v1h-3zM8 28h2v1h-2zM17 28h9v1h-9zM35 28h9v1h-9zM53 28h3v1h-3zM8 29h2v1h-2zM16 29h9v1h-9zM34 29h9v1h-9zM53 29h3v1h-3zM8 30h2v1h-2zM15 30h9v1h-9zM33 30h9v1h-9zM52 30h4v1h-4zM8 31h2v1h-2zM14 31h9v1h-9zM32 31h9v1h-9zM51 31h5v1h-5zM8 32h2v1h-2zM13 32h9v1h-9zM31 32h9v1h-9zM50 32h6v1h-6zM8 33h2v1h-2zM12 33h9v1h-9zM30 33h9v1h-9zM49 33h7v1h-7zM8 34h2v1h-2zM11 34h9v1h-9zM29 34h9v1h-9zM48 34h8v1h-8zM8 35h11v1h-11zM28 35h9v1h-9zM47 35h9v1h-9zM8 36h10v1h-10zM27 36h9v1h-9zM46 36h10v1h-10zM8 37h9v1h-9zM26 37h10v1h-10zM45 37h11v1h-11zM8 38h8v1h-8zM25 38h10v1h-10zM44 38h8v1h-8zM53 38h3v1h-3zM8 39h7v1h-7zM25 39h9v1h-9zM43 39h8v1h-8zM53 39h3v1h-3zM8 40h6v1h-6zM24 40h9v1h-9zM42 40h8v1h-8zM53 40h3v1h-3zM8 41h5v1h-5zM23 41h9v1h-9zM41 41h8v1h-8zM53 41h3v1h-3zM8 42h4v1h-4zM22 42h9v1h-9zM40 42h8v1h-8zM53 42h3v1h-3zM8 43h3v1h-3zM21 43h9v1h-9zM39 43h8v1h-8zM53 43h3v1h-3zM8 44h2v1h-2zM20 44h9v1h-9zM38 44h8v1h-8zM53 44h3v1h-3zM8 45h2v1h-2zM19 45h8v1h-8zM37 45h8v1h-8zM53 45h3v1h-3zM8 46h2v1h-2zM18 46h8v1h-8zM36 46h8v1h-8zM53 46h3v1h-3zM8 47h2v1h-2zM17 47h8v1h-8zM35 47h8v1h-8zM53 47h3v1h-3zM8 48h2v1h-2zM16 48h9v1h-9zM34 48h9v1h-9zM52 48h4v1h-4zM8 49h48v1h-48zM8 50h48v1h-48z"/>
</svg>
