<svg id="レイヤー_1" data-name="レイヤー 1" xmlns="http://www.w3.org/2000/svg" width="34" height="16" viewBox="0 0 34 16">
  <defs>
    <style>
      .cls-1 {
        fill: none;
      }
    </style>
  </defs>
  <title>icon_face-tracking</title>
  <path d="M3.4,1.89A1.36,1.36,0,0,1,2,3.28,1.36,1.36,0,0,1,.62,1.89,1.36,1.36,0,0,1,2,.5,1.36,1.36,0,0,1,3.4,1.89Zm8.8,9.54,1.41,1.37a8,8,0,0,1-2.15,1.57,11.76,11.76,0,0,1-2.1.8l-1.12.23a5.88,5.88,0,0,1-2.19,0l-1.12-.23a12.1,12.1,0,0,1-2.11-.8A8.13,8.13,0,0,1,.68,12.82l1.41-1.42a5,5,0,0,0,1.56,1.18,9.24,9.24,0,0,0,1.63.62,6.13,6.13,0,0,0,.89.19,6.28,6.28,0,0,0,.91.06A6.56,6.56,0,0,0,8,13.4a6.09,6.09,0,0,0,.9-0.19,10.87,10.87,0,0,0,1.66-.6A5.3,5.3,0,0,0,12.2,11.43ZM9.53,8.73v2H5.46l0-7.51h2V8.73h2Zm4.14-6.84a1.39,1.39,0,1,1-2.78,0A1.39,1.39,0,1,1,13.67,1.89ZM23.83,0.55V1.63H19.48V6H18.38V0.55h5.45Zm0,13.84v1.08H18.38V10h1.11v4.35h4.35Zm0-11.53V3.95h-2V6H20.67V2.87h3.16Zm0,9.21v1.08H20.67V10h1.16v2h2ZM33.38,0.55V6H32.27V1.63H27.92V0.55h5.45ZM31.09,2.87V6H29.93v-2h-2V2.87h3.16ZM33.38,10v5.43H27.92V14.39h4.35V10h1.11Zm-2.29,0v3.11H27.92V12.08h2V10h1.16Z"/>
  <rect class="cls-1" width="34" height="16"/>
</svg>
