<svg id="レイヤー_1" data-name="レイヤー 1" xmlns="http://www.w3.org/2000/svg" width="15" height="16" viewBox="0 0 15 16">
  <defs>
    <style>
      .cls-1 {
        fill: none;
      }
    </style>
  </defs>
  <title>icon_face</title>
  <g>
    <path d="M3.76,1.89A1.36,1.36,0,0,1,2.37,3.28,1.36,1.36,0,0,1,1,1.89,1.36,1.36,0,0,1,2.37.5,1.36,1.36,0,0,1,3.76,1.89Z"/>
    <path d="M12.56,11.43L14,12.8a8,8,0,0,1-2.15,1.57,11.76,11.76,0,0,1-2.1.8l-1.12.23a5.88,5.88,0,0,1-2.19,0L5.3,15.16a12.1,12.1,0,0,1-2.11-.8A8.13,8.13,0,0,1,1,12.82l1.41-1.42A5,5,0,0,0,4,12.59a9.24,9.24,0,0,0,1.63.62,6.13,6.13,0,0,0,.89.19,6.28,6.28,0,0,0,.91.06,6.56,6.56,0,0,0,.93-0.06,6.09,6.09,0,0,0,.9-0.19,10.87,10.87,0,0,0,1.66-.6A5.3,5.3,0,0,0,12.56,11.43Z"/>
    <polygon points="9.88 8.73 9.88 10.77 5.82 10.77 5.84 3.25 7.85 3.25 7.85 8.73 9.88 8.73"/>
    <path d="M14,1.89a1.39,1.39,0,1,1-2.78,0A1.39,1.39,0,1,1,14,1.89Z"/>
  </g>
  <rect class="cls-1" width="15" height="16"/>
</svg>
