<?xml version="1.0" encoding="utf-8"?>
<!-- Generator: Adobe Illustrator 23.0.3, SVG Export Plug-In . SVG Version: 6.00 Build 0)  -->
<svg version="1.1" id="レイヤー_1" xmlns="http://www.w3.org/2000/svg" xmlns:xlink="http://www.w3.org/1999/xlink" x="0px"
	 y="0px" width="22px" height="16px" viewBox="0 0 22 16" style="enable-background:new 0 0 22 16;" xml:space="preserve">
<style type="text/css">
	.st0{fill:none;}
</style>
<title>icon_flash-exp-com</title>
<rect y="0" class="st0" width="22" height="16"/>
<g>
	<path d="M16.6,11.6H1.5V0.5h15.1V11.6z M15.6,10.6V1.5h-13v9.1H15.6z M9,9.6H8.4H7.7H7.3L5.1,4.2v5.4H3.7V2.5h0.7h0.7h0.4l2.2,5.4
		V2.5H9V9.6z M18.5,13.5h-14v-1h13.1V3.7h1v9.8H18.5z M20.5,15.5h-14v-1h13.1V5.7h1v9.8H20.5z M14.6,9.6h-1.4c0-0.3-0.1-0.5-0.1-0.8
		c0-0.2-0.1-0.4-0.1-0.6c0-0.2-0.1-0.3-0.1-0.5c0-0.1-0.1-0.2-0.2-0.4c-0.1-0.1-0.1-0.2-0.2-0.4c-0.1-0.1-0.2-0.3-0.3-0.5h-0.7v3
		h-1.4V2.3h2.7c0.4,0,0.8,0.1,1,0.3s0.4,0.4,0.5,0.6c0.1,0.3,0.2,0.6,0.2,0.9S14.4,4.7,14.3,5c-0.1,0.2-0.2,0.4-0.4,0.6
		S13.4,5.9,13,5.8l0.1,0.1L13.2,6l0.1,0.1c0.1,0.1,0.3,0.4,0.5,0.7c0.2,0.3,0.4,0.8,0.5,1.3c0,0.2,0.1,0.4,0.1,0.5s0.1,0.3,0.1,0.4
		C14.6,9.5,14.6,9.5,14.6,9.6z M13,4.5c0-0.2,0-0.3,0-0.5c0-0.1-0.1-0.2-0.2-0.4c-0.1-0.1-0.2-0.2-0.3-0.3h-1v2.2h1.1
		c0.1-0.1,0.2-0.2,0.3-0.3c0,0,0-0.2,0.1-0.3C13,4.8,13,4.6,13,4.5z"/>
</g>
</svg>
