<?xml version="1.0" encoding="utf-8"?>
<!-- Generator: Adobe Illustrator 23.0.3, SVG Export Plug-In . SVG Version: 6.00 Build 0)  -->
<svg version="1.1" id="レイヤー_1" xmlns="http://www.w3.org/2000/svg" xmlns:xlink="http://www.w3.org/1999/xlink" x="0px"
	 y="0px" width="22.68px" height="17.86px" viewBox="0 0 22.68 17.86" enable-background="new 0 0 22.68 17.86"
	 xml:space="preserve">
<path d="M3.63,1.29c0.37,0,0.74,0.01,1.11,0.04C5.11,1.36,5.49,1.4,5.86,1.45L5.7,3C5.36,2.96,5.01,2.93,4.67,2.9
	C4.32,2.87,3.98,2.86,3.63,2.86c-0.35,0-0.7,0.01-1.05,0.04C2.24,2.93,1.9,2.96,1.55,3L1.39,1.45C1.77,1.4,2.14,1.36,2.51,1.33
	C2.89,1.31,3.26,1.29,3.63,1.29z M5.62,3.93C5.28,3.88,4.94,3.84,4.61,3.8C4.28,3.77,3.95,3.76,3.63,3.76c-0.34,0-0.67,0.02-1,0.05
	c-0.33,0.03-0.66,0.07-1,0.13l0.16,1.54c0.61-0.1,1.22-0.14,1.84-0.14c0.61,0,1.22,0.05,1.82,0.14L5.62,3.93z M5.27,7.48
	C4.8,7.38,4.25,7.32,3.63,7.32C2.98,7.32,2.44,7.38,2,7.48L1.89,6.4c0.29-0.05,0.58-0.1,0.86-0.13c0.29-0.03,0.58-0.05,0.88-0.05
	c0.29,0,0.58,0.02,0.87,0.05C4.8,6.3,5.09,6.34,5.38,6.4L5.27,7.48z M2.58,16.16c-0.12,0-0.22-0.04-0.3-0.13
	c-0.09-0.09-0.13-0.19-0.13-0.32V9.34c0-0.12,0.04-0.22,0.13-0.31c0.09-0.09,0.19-0.14,0.3-0.14h2.1c0.12,0,0.22,0.05,0.31,0.14
	c0.09,0.09,0.14,0.19,0.14,0.31v6.37c0,0.13-0.05,0.23-0.14,0.32c-0.09,0.09-0.19,0.13-0.31,0.13H2.58z M3.63,10.09
	c-0.25,0-0.45,0.09-0.62,0.26c-0.17,0.17-0.26,0.38-0.26,0.62c0,0.26,0.09,0.47,0.26,0.64c0.17,0.17,0.38,0.26,0.62,0.26
	c0.26,0,0.47-0.08,0.64-0.26c0.1-0.1,0.16-0.2,0.2-0.3c0.04-0.11,0.06-0.22,0.06-0.34c0-0.25-0.09-0.45-0.26-0.62
	C4.1,10.18,3.89,10.09,3.63,10.09z"/>
<path d="M6.68,7.55c0.07-0.27,0.22-0.47,0.46-0.6c0.24-0.13,0.49-0.17,0.76-0.1c0.27,0.07,0.46,0.22,0.59,0.45
	c0.13,0.23,0.16,0.48,0.09,0.75c-0.2,0.73-0.25,1.46-0.15,2.18c0.1,0.72,0.32,1.38,0.67,1.99c0.35,0.61,0.8,1.14,1.37,1.59
	c0.57,0.45,1.22,0.78,1.95,0.98c0.73,0.2,1.46,0.25,2.17,0.15c0.71-0.1,1.37-0.32,1.99-0.67c0.61-0.35,1.15-0.8,1.6-1.37
	c0.45-0.57,0.78-1.22,0.98-1.95c0.27-1.01,0.25-2.01-0.04-3c-0.29-0.99-0.83-1.82-1.6-2.52c-0.2-0.19-0.31-0.41-0.32-0.68
	c-0.01-0.27,0.07-0.5,0.26-0.7c0.19-0.21,0.41-0.33,0.68-0.34c0.27-0.01,0.5,0.07,0.7,0.26c1.05,0.97,1.77,2.11,2.16,3.43
	c0.39,1.31,0.4,2.67,0.04,4.07c-0.27,1-0.71,1.88-1.32,2.65c-0.61,0.77-1.33,1.38-2.16,1.85c-0.83,0.47-1.73,0.76-2.71,0.89
	c-0.98,0.13-1.96,0.06-2.95-0.21c-0.99-0.25-1.86-0.69-2.63-1.3c-0.77-0.61-1.39-1.33-1.86-2.16c-0.47-0.83-0.78-1.72-0.92-2.7
	C6.35,9.52,6.41,8.54,6.68,7.55z M12.29,10.13c-0.21-0.21-0.41-0.42-0.6-0.63c-0.19-0.21-0.37-0.44-0.56-0.69L8.6,5.42
	C8.44,5.26,8.36,5.07,8.36,4.84c0-0.23,0.08-0.42,0.24-0.58C8.76,4.1,8.95,4.02,9.18,4.02c0.23,0,0.42,0.08,0.58,0.24l3.4,2.54
	c0.23,0.17,0.46,0.35,0.69,0.54c0.23,0.19,0.45,0.39,0.65,0.6l2.44,2.46l-0.12,0.2c-0.12,0.16-0.42,0.48-0.9,0.96l-1.02,1.02
	c-0.05-0.01-0.18-0.11-0.38-0.3c-0.17-0.15-0.43-0.39-0.78-0.72C13.38,11.22,12.9,10.74,12.29,10.13z M16.03,3.1
	c0,0.29-0.06,0.57-0.17,0.83c-0.11,0.26-0.27,0.5-0.47,0.71c-0.2,0.2-0.43,0.36-0.7,0.47c-0.27,0.11-0.55,0.17-0.84,0.17
	c-0.59,0-1.09-0.21-1.52-0.64c-0.21-0.2-0.37-0.43-0.48-0.7c-0.11-0.27-0.16-0.55-0.16-0.84c0-0.59,0.21-1.09,0.64-1.52
	s0.93-0.64,1.52-0.64c0.6,0,1.11,0.21,1.54,0.64C15.82,2.01,16.03,2.51,16.03,3.1z"/>
</svg>
