<svg id="レイヤー_1" data-name="レイヤー 1" xmlns="http://www.w3.org/2000/svg" width="28" height="16" viewBox="0 0 28 16">
  <defs>
    <style>
      .cls-1 {
        fill: none;
      }
    </style>
  </defs>
  <title>icon_af-frame-adjust</title>
  <path d="M5.26,11.73A0.23,0.23,0,0,1,5,12H4.92a0.68,0.68,0,0,1-.47-0.17L1,8.22A0.28,0.28,0,0,1,1,7.8L4.45,4.22A0.64,0.64,0,0,1,4.92,4H5a0.23,0.23,0,0,1,.27.27v7.43ZM9.53,1.2H7.08V3.65H6.38V0.5H9.53V1.2Zm0,14.3H6.38V12.35h0.7V14.8H9.53v0.7ZM21.32,3.65h-0.7V1.2H18.18V0.5h3.15V3.65Zm0,11.85H18.18V14.8h2.45V12.35h0.7V15.5ZM27,8.22L23.56,11.8a0.73,0.73,0,0,1-.47.17H23a0.24,0.24,0,0,1-.29-0.25V4.29A0.24,0.24,0,0,1,23,4h0.08a0.64,0.64,0,0,1,.47.19L27,7.8A0.26,0.26,0,0,1,27,8.22Z"/>
  <rect class="cls-1" width="28" height="16"/>
</svg>
