<?xml version="1.0" encoding="utf-8"?>
<!-- Generator: Adobe Illustrator 23.0.3, SVG Export Plug-In . SVG Version: 6.00 Build 0)  -->
<svg version="1.1" id="レイヤー_1" xmlns="http://www.w3.org/2000/svg" xmlns:xlink="http://www.w3.org/1999/xlink" x="0px"
	 y="0px" width="24.1px" height="16px" viewBox="0 0 24.1 16" style="enable-background:new 0 0 24.1 16;" xml:space="preserve">
<style type="text/css">
	.st0{fill:none;}
</style>
<title>icon_oneshot-ai-servo</title>
<rect class="st0" width="24.1" height="16"/>
<g>
	<path d="M22.7,7.1c-0.1-0.3-3.5-6.6-11.1-6.6C4.9,0.5,1.5,7.2,1.4,7.4L1.2,7.8l0.1,0.4c0.1,0.3,3,7.2,10.7,7.3l0.2,0
		c7.6,0,10.5-7.6,10.5-7.7l0.1-0.4L22.7,7.1z M12.2,13.7l-0.2,0c-5.7-0.1-8.3-4.5-8.9-5.8c0.7-1.3,3.6-5.6,8.5-5.6
		c5.6,0,8.5,4.1,9.3,5.3C20.3,9,17.8,13.7,12.2,13.7z"/>
	<circle cx="12" cy="8" r="4.3"/>
</g>
</svg>
