<?xml version="1.0" encoding="utf-8"?>
<!-- Generator: Adobe Illustrator 23.0.3, SVG Export Plug-In . SVG Version: 6.00 Build 0)  -->
<svg version="1.1" id="レイヤー_1" xmlns="http://www.w3.org/2000/svg" xmlns:xlink="http://www.w3.org/1999/xlink" x="0px"
	 y="0px" width="22.68px" height="15.87px" viewBox="0 0 22.68 15.87" enable-background="new 0 0 22.68 15.87"
	 xml:space="preserve">
<polygon points="19.58,5.31 19.95,5.36 20.27,5.45 20.59,5.58 20.86,5.74 21.1,5.94 21.32,6.16 21.5,6.43 21.63,6.74 21.74,7.07 
	21.8,7.46 21.82,7.88 21.79,8.34 21.67,8.81 21.51,9.25 21.31,9.69 21.05,10.12 20.75,10.55 20.43,10.97 20.09,11.37 19.72,11.77 
	19.37,12.12 19.02,12.49 18.65,12.86 22.09,12.86 22.09,14.22 16.51,14.22 16.51,12.75 16.73,12.53 17.05,12.22 17.4,11.87 
	17.8,11.52 18.2,11.09 18.62,10.64 19,10.16 19.37,9.69 19.67,9.21 19.91,8.73 20.07,8.29 20.14,7.87 20.12,7.68 20.07,7.5 
	20.01,7.34 19.93,7.2 19.82,7.07 19.71,6.97 19.56,6.88 19.43,6.81 19.27,6.75 19.11,6.72 18.94,6.69 18.76,6.69 18.59,6.69 
	18.41,6.7 18.25,6.73 18.07,6.78 17.91,6.83 17.74,6.89 17.58,6.96 17.42,7.04 17.26,7.12 17.11,7.2 16.97,7.29 16.83,7.39 
	16.7,5.92 16.89,5.82 17.08,5.74 17.29,5.66 17.48,5.58 17.69,5.52 17.91,5.45 18.12,5.41 18.33,5.37 18.55,5.34 18.76,5.31 
	18.97,5.29 19.19,5.29 "/>
<path d="M2.4,1.75c0.3,0,0.6,0.01,0.9,0.03c0.3,0.02,0.6,0.05,0.9,0.1L4.07,3.14C3.8,3.1,3.52,3.08,3.24,3.05
	C2.96,3.03,2.68,3.02,2.4,3.02c-0.29,0-0.57,0.01-0.85,0.03C1.27,3.08,0.99,3.1,0.72,3.14L0.59,1.88c0.3-0.04,0.6-0.08,0.91-0.1
	C1.8,1.76,2.1,1.75,2.4,1.75z M4.01,3.89c-0.28-0.04-0.55-0.08-0.82-0.1C2.92,3.76,2.66,3.75,2.4,3.75c-0.28,0-0.55,0.01-0.81,0.04
	c-0.26,0.03-0.53,0.06-0.81,0.1l0.13,1.24C1.4,5.06,1.9,5.02,2.4,5.02c0.49,0,0.98,0.04,1.48,0.12L4.01,3.89z M3.72,6.77
	C3.34,6.68,2.9,6.64,2.4,6.64c-0.53,0-0.97,0.04-1.32,0.13L0.99,5.89c0.23-0.04,0.47-0.08,0.7-0.1C1.92,5.76,2.16,5.74,2.4,5.74
	c0.23,0,0.47,0.01,0.71,0.04c0.24,0.03,0.47,0.06,0.71,0.1L3.72,6.77z M1.55,13.79c-0.1,0-0.18-0.03-0.25-0.1s-0.1-0.16-0.1-0.26
	V8.27c0-0.09,0.03-0.18,0.1-0.25c0.07-0.07,0.15-0.11,0.25-0.11h1.7c0.09,0,0.18,0.04,0.25,0.11c0.07,0.07,0.11,0.16,0.11,0.25v5.16
	c0,0.1-0.04,0.19-0.11,0.26c-0.07,0.07-0.16,0.1-0.25,0.1H1.55z M2.4,8.88c-0.2,0-0.37,0.07-0.51,0.21
	C1.76,9.23,1.69,9.39,1.69,9.59c0,0.21,0.07,0.38,0.21,0.52c0.14,0.14,0.31,0.21,0.51,0.21c0.21,0,0.38-0.07,0.52-0.21
	C3,10.03,3.05,9.95,3.08,9.86c0.03-0.09,0.05-0.18,0.05-0.27c0-0.2-0.07-0.37-0.21-0.51C2.78,8.95,2.61,8.88,2.4,8.88z"/>
<path d="M4.87,6.82c0.05-0.22,0.18-0.38,0.37-0.49c0.19-0.11,0.4-0.13,0.61-0.08c0.22,0.05,0.37,0.18,0.48,0.36
	c0.1,0.19,0.13,0.39,0.07,0.61C6.24,7.82,6.2,8.41,6.28,8.99c0.08,0.58,0.26,1.12,0.54,1.61c0.28,0.49,0.65,0.92,1.11,1.29
	c0.46,0.37,0.98,0.63,1.58,0.79c0.59,0.16,1.18,0.2,1.76,0.12c0.58-0.08,1.11-0.26,1.61-0.54c0.5-0.28,0.93-0.65,1.29-1.11
	c0.37-0.46,0.63-0.98,0.79-1.58c0.22-0.82,0.2-1.63-0.03-2.43c-0.24-0.8-0.67-1.48-1.29-2.04c-0.16-0.15-0.25-0.33-0.26-0.55
	c-0.01-0.22,0.06-0.4,0.21-0.57c0.15-0.17,0.33-0.26,0.55-0.28c0.22-0.01,0.4,0.06,0.57,0.21c0.85,0.79,1.43,1.71,1.75,2.78
	c0.31,1.06,0.32,2.16,0.03,3.29c-0.22,0.81-0.57,1.52-1.07,2.14c-0.5,0.62-1.08,1.12-1.75,1.5c-0.67,0.38-1.4,0.62-2.19,0.72
	c-0.79,0.1-1.59,0.05-2.39-0.17c-0.8-0.2-1.51-0.56-2.13-1.05c-0.62-0.5-1.12-1.08-1.5-1.75c-0.38-0.67-0.63-1.4-0.74-2.18
	C4.6,8.42,4.65,7.62,4.87,6.82z M9.42,8.91C9.24,8.74,9.08,8.57,8.93,8.4c-0.15-0.17-0.3-0.35-0.45-0.56L6.42,5.09
	C6.29,4.96,6.23,4.81,6.23,4.62c0-0.18,0.07-0.34,0.19-0.47c0.13-0.13,0.29-0.19,0.47-0.19c0.18,0,0.34,0.06,0.47,0.19l2.75,2.05
	c0.18,0.14,0.37,0.29,0.56,0.44c0.19,0.15,0.36,0.31,0.53,0.49l1.97,1.99l-0.1,0.16c-0.1,0.13-0.34,0.39-0.73,0.78l-0.83,0.83
	c-0.04-0.01-0.15-0.09-0.31-0.24c-0.14-0.12-0.35-0.31-0.63-0.58S9.91,9.41,9.42,8.91z M12.44,3.22c0,0.24-0.05,0.46-0.14,0.67
	c-0.09,0.21-0.22,0.4-0.38,0.57c-0.16,0.16-0.35,0.29-0.57,0.38c-0.22,0.09-0.44,0.14-0.68,0.14c-0.48,0-0.88-0.17-1.23-0.52
	C9.27,4.3,9.15,4.11,9.06,3.89C8.97,3.68,8.93,3.45,8.93,3.22c0-0.47,0.17-0.88,0.52-1.23c0.35-0.35,0.76-0.52,1.23-0.52
	c0.49,0,0.9,0.17,1.25,0.52C12.27,2.33,12.44,2.74,12.44,3.22z"/>
</svg>
